<?xml version="1.0" encoding="utf-8"?>
<!-- Generator: Adobe Illustrator 27.3.1, SVG Export Plug-In . SVG Version: 6.00 Build 0)  -->
<svg version="1.1" id="Layer_1" xmlns="http://www.w3.org/2000/svg" xmlns:xlink="http://www.w3.org/1999/xlink" x="0px" y="0px"
	 viewBox="0 0 500 500" style="enable-background:new 0 0 500 500;" xml:space="preserve">
<style type="text/css">
	.st0{display:none;}
	.st1{display:inline;}
	.st2{fill:#EBEBEB;}
	.st3{fill:#FAFAFA;}
	.st4{fill:#F5F5F5;}
	.st5{fill:#E0E0E0;}
	.st6{fill:#DFFFFF;}
	.st7{fill:#B9E9FC;}
	.st8{fill:#263238;}
	.st9{fill:#0EA293;}
	.st10{fill:#455A64;}
	.st11{fill:#FFFFFF;}
	.st12{fill:#FFBF9D;}
	.st13{fill:#FF9A6C;}
</style>
<g id="Background_Complete" class="st0">
	<g class="st1">
		<g>
			<path class="st2" d="M249.65,76.13c0.64-4.68-5.96-8.53-10.93-8.93c-2.37-0.19-4.83,0.17-7.07-0.61
				c-4.86-1.69-6.8-7.97-11.54-9.97c-3.54-1.49-7.62-0.16-11.06,1.56s-6.83,3.91-10.67,4.15c-3.34,0.21-6.96-1.03-9.89,0.61
				c-2.18,1.22-3.32,3.72-5.32,5.2c-1.96,1.45-4.52,1.75-6.96,1.89c-2.44,0.13-4.96,0.16-7.18,1.17s-4.05,3.36-3.59,5.76
				L249.65,76.13z"/>
		</g>
	</g>
	<g class="st1">
		<g>
			<path class="st2" d="M445.03,161.84c0.64-4.68-5.96-8.53-10.92-8.93c-2.37-0.19-4.83,0.17-7.07-0.61
				c-4.86-1.69-6.8-7.97-11.54-9.97c-3.54-1.49-7.62-0.16-11.06,1.57s-6.83,3.91-10.67,4.15c-3.34,0.21-6.96-1.02-9.89,0.61
				c-2.18,1.21-3.32,3.72-5.32,5.2c-1.96,1.45-4.52,1.76-6.96,1.89c-2.44,0.13-4.96,0.16-7.17,1.17c-2.22,1.01-4.05,3.36-3.59,5.76
				L445.03,161.84z"/>
		</g>
	</g>
	<g class="st1">
		<g>
			<rect x="34.58" y="44.33" class="st3" width="9.13" height="189.58"/>
		</g>
		<g>
			<rect x="174.71" y="44.33" class="st3" width="9.13" height="189.58"/>
		</g>
		<g>
			<rect x="314.85" y="44.33" class="st3" width="9.13" height="189.58"/>
		</g>
		<g>
			<rect x="454.99" y="44.33" class="st3" width="9.13" height="189.58"/>
		</g>
		<g>
			<rect x="15.73" y="229.95" class="st3" width="466.07" height="179.7"/>
		</g>
		<g>
			<g>
				<path class="st4" d="M461.02,44.94c0,0.14-95.37,0.26-212.99,0.26c-117.66,0-213.01-0.12-213.01-0.26
					c0-0.14,95.35-0.26,213.01-0.26C365.65,44.68,461.02,44.8,461.02,44.94z"/>
			</g>
		</g>
	</g>
	<g class="st1">
		<g>
			<path class="st5" d="M380.39,409.51H368.8V254.86c0-3.2,2.59-5.79,5.8-5.79l0,0c3.2,0,5.8,2.59,5.8,5.79V409.51z"/>
		</g>
		<g>
			<path class="st5" d="M412,409.51h-11.59V254.86c0-3.2,2.59-5.79,5.8-5.79l0,0c3.2,0,5.8,2.59,5.8,5.79L412,409.51L412,409.51z"/>
		</g>
		<g>
			<g>
				<path class="st5" d="M404.12,249.63h-27.78c-1.15,0-2.09-0.93-2.09-2.09l0,0c0-1.15,0.93-2.09,2.09-2.09h27.78
					c1.15,0,2.09,0.93,2.09,2.09l0,0C406.2,248.7,405.27,249.63,404.12,249.63z"/>
			</g>
			<g>
				<path class="st5" d="M382.66,252.33L382.66,252.33c-1.57,0-2.83-1.27-2.83-2.83v-4.65c0-1.57,1.27-2.83,2.83-2.83l0,0
					c1.57,0,2.83,1.27,2.83,2.83v4.65C385.49,251.06,384.23,252.33,382.66,252.33z"/>
			</g>
			<g>
				<path class="st5" d="M387.86,252.33L387.86,252.33c-1.57,0-2.83-1.27-2.83-2.83v-4.65c0-1.57,1.27-2.83,2.83-2.83l0,0
					c1.57,0,2.83,1.27,2.83,2.83v4.65C390.69,251.06,389.43,252.33,387.86,252.33z"/>
			</g>
			<g>
				<path class="st5" d="M393.06,252.33L393.06,252.33c-1.57,0-2.83-1.27-2.83-2.83v-4.65c0-1.57,1.27-2.83,2.83-2.83l0,0
					c1.57,0,2.83,1.27,2.83,2.83v4.65C395.89,251.06,394.63,252.33,393.06,252.33z"/>
			</g>
			<g>
				<path class="st5" d="M398.26,252.33L398.26,252.33c-1.57,0-2.83-1.27-2.83-2.83v-4.65c0-1.57,1.27-2.83,2.83-2.83l0,0
					c1.57,0,2.83,1.27,2.83,2.83v4.65C401.1,251.06,399.83,252.33,398.26,252.33z"/>
			</g>
		</g>
		<g>
			<path class="st5" d="M442.11,409.51h-11.59V254.86c0-3.2,2.59-5.79,5.8-5.79l0,0c3.2,0,5.8,2.59,5.8,5.79L442.11,409.51
				L442.11,409.51z"/>
		</g>
		<g>
			<g>
				<path class="st5" d="M434.22,249.63h-27.78c-1.15,0-2.09-0.93-2.09-2.09l0,0c0-1.15,0.93-2.09,2.09-2.09h27.78
					c1.15,0,2.09,0.93,2.09,2.09l0,0C436.31,248.7,435.38,249.63,434.22,249.63z"/>
			</g>
			<g>
				<path class="st5" d="M412.77,252.33L412.77,252.33c-1.57,0-2.83-1.27-2.83-2.83v-4.65c0-1.57,1.27-2.83,2.83-2.83l0,0
					c1.57,0,2.83,1.27,2.83,2.83v4.65C415.6,251.06,414.33,252.33,412.77,252.33z"/>
			</g>
			<g>
				<path class="st5" d="M417.97,252.33L417.97,252.33c-1.57,0-2.83-1.27-2.83-2.83v-4.65c0-1.57,1.27-2.83,2.83-2.83l0,0
					c1.57,0,2.83,1.27,2.83,2.83v4.65C420.8,251.06,419.53,252.33,417.97,252.33z"/>
			</g>
			<g>
				<path class="st5" d="M423.17,252.33L423.17,252.33c-1.57,0-2.83-1.27-2.83-2.83v-4.65c0-1.57,1.27-2.83,2.83-2.83l0,0
					c1.57,0,2.83,1.27,2.83,2.83v4.65C426,251.06,424.73,252.33,423.17,252.33z"/>
			</g>
			<g>
				<path class="st5" d="M428.37,252.33L428.37,252.33c-1.57,0-2.83-1.27-2.83-2.83v-4.65c0-1.57,1.27-2.83,2.83-2.83l0,0
					c1.57,0,2.83,1.27,2.83,2.83v4.65C431.2,251.06,429.93,252.33,428.37,252.33z"/>
			</g>
		</g>
	</g>
	<g class="st1">
		<g>
			<path class="st2" d="M140.17,151.53c0.64-4.68-5.96-8.53-10.93-8.93c-2.37-0.19-4.83,0.17-7.07-0.61
				c-4.86-1.69-6.8-7.97-11.54-9.97c-3.54-1.49-7.62-0.16-11.06,1.57s-6.83,3.91-10.67,4.15c-3.34,0.21-6.96-1.02-9.89,0.61
				c-2.18,1.21-3.32,3.72-5.32,5.2c-1.96,1.45-4.52,1.76-6.96,1.89c-2.44,0.13-4.96,0.16-7.17,1.17s-4.05,3.36-3.59,5.76
				L140.17,151.53z"/>
		</g>
	</g>
</g>
<rect class="st6" width="500" height="500"/>
<g id="Background_Simple">
	<g>
		<path class="st7" d="M384.48,92.18l-1.79-2.95c-15.07-24.84-42.33-39.82-71.07-38c-3.69,0.23-7.37,0.73-11,1.51
			c-26.13,5.59-48.86,25.35-58.28,50.65c-5.54,14.88-7.09,32.01-17.61,43.83c-13.69,15.37-36.92,15.85-57.35,15.22
			s-43.68-0.09-57.3,15.34c-8.53,9.66-11.24,23.41-10.55,36.35c1.82,34.27,25.7,64.91,56.07,80.14
			c30.37,15.23,66.13,16.6,99.36,9.89c46.56-9.39,90.84-35.16,117.46-74.98C399.04,189.4,405.77,135.16,384.48,92.18z"/>
	</g>
	<g>
		<ellipse class="st7" cx="394.39" cy="288.07" rx="25.01" ry="25.01"/>
	</g>
</g>
<g id="Floor">
	<g>
		<g>
			<path class="st8" d="M484.81,409.58c0,0.14-105.13,0.26-234.79,0.26c-129.71,0-234.82-0.12-234.82-0.26s105.11-0.26,234.82-0.26
				C379.67,409.32,484.81,409.44,484.81,409.58z"/>
		</g>
	</g>
</g>
<g id="Plants">
	<g>
		<g>
			<g>
				<path class="st8" d="M108.55,393.82c0.04-0.05,0.9,0.61,2.13,1.86c1.23,1.24,2.81,3.09,4.25,5.34c1.44,2.25,2.46,4.46,3.07,6.1
					c0.61,1.64,0.85,2.7,0.79,2.71c-0.08,0.02-0.44-0.99-1.13-2.57c-0.69-1.59-1.75-3.73-3.17-5.96c-1.42-2.22-2.93-4.08-4.08-5.37
					C109.27,394.64,108.5,393.88,108.55,393.82z"/>
			</g>
		</g>
		<g>
			<g>
				<path class="st8" d="M121.3,392.69c0.08,0,0.11,0.95,0.17,2.48c0.06,1.53,0.16,3.64,0.37,5.96c0.21,2.32,0.48,4.42,0.7,5.93
					c0.21,1.52,0.35,2.45,0.28,2.47c-0.07,0.01-0.33-0.9-0.64-2.41c-0.31-1.51-0.64-3.61-0.85-5.95c-0.21-2.34-0.25-4.47-0.22-6
					C121.13,393.63,121.23,392.68,121.3,392.69z"/>
			</g>
		</g>
		<g>
			<g>
				<path class="st8" d="M134.72,395.38c0.13,0.11-2.65,2.8-4.86,6.93c-2.25,4.11-2.98,7.9-3.15,7.86
					c-0.06-0.01,0.04-0.97,0.44-2.47c0.39-1.5,1.12-3.54,2.25-5.63c1.13-2.09,2.44-3.81,3.49-4.96
					C133.93,395.95,134.68,395.34,134.72,395.38z"/>
			</g>
		</g>
	</g>
	<g>
		<g>
			<g>
				<path class="st8" d="M71.89,449.07c0.04-0.05,0.9,0.61,2.13,1.86c1.23,1.24,2.81,3.09,4.25,5.34c1.44,2.25,2.46,4.46,3.07,6.1
					c0.61,1.64,0.85,2.7,0.79,2.71c-0.08,0.02-0.44-0.99-1.13-2.57c-0.69-1.59-1.75-3.73-3.17-5.96c-1.42-2.22-2.93-4.08-4.08-5.37
					C72.6,449.89,71.83,449.13,71.89,449.07z"/>
			</g>
		</g>
		<g>
			<g>
				<path class="st8" d="M84.63,447.94c0.08,0,0.11,0.95,0.17,2.48c0.06,1.53,0.16,3.64,0.37,5.96c0.21,2.32,0.48,4.42,0.69,5.93
					s0.35,2.45,0.28,2.47c-0.07,0.01-0.33-0.9-0.64-2.41s-0.64-3.61-0.85-5.95c-0.21-2.34-0.25-4.47-0.22-6.01
					C84.47,448.88,84.57,447.93,84.63,447.94z"/>
			</g>
		</g>
		<g>
			<g>
				<path class="st8" d="M98.06,450.63c0.13,0.11-2.65,2.8-4.86,6.93c-2.25,4.11-2.98,7.9-3.15,7.86c-0.06-0.01,0.04-0.97,0.44-2.47
					c0.39-1.5,1.12-3.54,2.25-5.63c1.14-2.09,2.44-3.81,3.49-4.96C97.27,451.2,98.01,450.59,98.06,450.63z"/>
			</g>
		</g>
	</g>
	<g>
		<g>
			<g>
				<path class="st8" d="M395.98,450.42c0.04-0.05,0.9,0.61,2.13,1.86c1.23,1.24,2.81,3.09,4.25,5.34c1.44,2.25,2.46,4.46,3.07,6.1
					c0.61,1.64,0.85,2.7,0.79,2.71c-0.08,0.02-0.44-0.99-1.13-2.57c-0.69-1.59-1.75-3.73-3.17-5.96c-1.42-2.22-2.93-4.08-4.08-5.37
					C396.69,451.24,395.92,450.48,395.98,450.42z"/>
			</g>
		</g>
		<g>
			<g>
				<path class="st8" d="M408.72,449.29c0.08,0,0.11,0.95,0.17,2.48c0.06,1.53,0.16,3.64,0.37,5.96c0.21,2.32,0.48,4.42,0.7,5.93
					c0.21,1.52,0.35,2.45,0.27,2.47c-0.07,0.01-0.33-0.9-0.64-2.41c-0.31-1.51-0.64-3.61-0.85-5.95c-0.21-2.34-0.25-4.47-0.22-6.01
					C408.56,450.23,408.66,449.28,408.72,449.29z"/>
			</g>
		</g>
		<g>
			<g>
				<path class="st8" d="M422.15,451.98c0.13,0.11-2.65,2.8-4.86,6.93c-2.25,4.11-2.98,7.9-3.15,7.86
					c-0.06-0.01,0.04-0.97,0.44-2.47c0.39-1.5,1.12-3.54,2.25-5.63c1.14-2.09,2.44-3.81,3.49-4.96
					C421.36,452.55,422.1,451.94,422.15,451.98z"/>
			</g>
		</g>
	</g>
	<g>
		<g>
			<g>
				<path class="st8" d="M246.23,443.67c0.04-0.05,0.9,0.61,2.13,1.86c1.23,1.24,2.81,3.09,4.25,5.34c1.44,2.25,2.46,4.46,3.07,6.1
					c0.61,1.64,0.85,2.7,0.79,2.71c-0.08,0.02-0.44-0.99-1.13-2.57c-0.69-1.59-1.75-3.73-3.17-5.96c-1.42-2.22-2.93-4.08-4.08-5.37
					C246.94,444.48,246.17,443.73,246.23,443.67z"/>
			</g>
		</g>
		<g>
			<g>
				<path class="st8" d="M258.97,442.53c0.08,0,0.11,0.95,0.17,2.48c0.06,1.53,0.16,3.64,0.37,5.96c0.21,2.32,0.48,4.42,0.7,5.93
					s0.35,2.45,0.27,2.47c-0.07,0.01-0.33-0.9-0.64-2.41c-0.31-1.51-0.64-3.61-0.85-5.95c-0.21-2.34-0.25-4.47-0.22-6.01
					C258.81,443.48,258.9,442.53,258.97,442.53z"/>
			</g>
		</g>
		<g>
			<g>
				<path class="st8" d="M272.39,445.23c0.13,0.11-2.65,2.8-4.86,6.93c-2.25,4.11-2.98,7.9-3.15,7.86
					c-0.06-0.01,0.04-0.97,0.44-2.47c0.39-1.5,1.12-3.54,2.25-5.63c1.14-2.09,2.44-3.81,3.49-4.96
					C271.61,445.79,272.35,445.18,272.39,445.23z"/>
			</g>
		</g>
	</g>
	<g>
		<g>
			<g>
				<g>
					<path class="st9" d="M64.36,369.42c1.88,0.82,3.26,2.55,3.95,4.48s0.76,4.03,0.53,6.07c-0.45,3.94-2.68,7.91-5.09,11.06
						c-3.32-2.89-4.08-7.94-4.31-10.53C59.09,376.42,60.92,368.81,64.36,369.42"/>
				</g>
			</g>
		</g>
		<g>
			<g>
				<g>
					<path class="st9" d="M67.61,397.53c-0.53-2.23,0.39-4.67,2.1-6.19c1.71-1.52,4.1-2.17,6.38-1.99c1.06,0.08,2.19,0.39,2.8,1.26
						c0.57,0.81,0.5,1.95,0.04,2.82c-0.46,0.88-1.25,1.53-2.09,2.06C73.97,397.28,70.85,398.5,67.61,397.53"/>
				</g>
			</g>
		</g>
		<g>
			<g>
				<g>
					<g>
						<path class="st8" d="M63.35,409.6c-0.02-0.01,0.03-0.29,0.12-0.81c0.1-0.57,0.24-1.3,0.4-2.19c0.37-1.83,0.84-4.45,2.26-6.99
							c1.4-2.54,3.36-4.4,5.01-5.33c0.82-0.48,1.54-0.76,2.04-0.9c0.25-0.08,0.45-0.12,0.59-0.15c0.14-0.03,0.21-0.04,0.21-0.03
							c0.02,0.06-1.15,0.27-2.74,1.26c-1.59,0.95-3.49,2.8-4.87,5.29c-1.39,2.49-1.89,5.07-2.31,6.89c-0.2,0.92-0.36,1.66-0.49,2.17
							C63.46,409.33,63.37,409.6,63.35,409.6z"/>
					</g>
				</g>
			</g>
		</g>
		<g>
			<g>
				<g>
					<g>
						<path class="st8" d="M63.48,375.33c0.01,0,0.02,0.12,0.04,0.35c0.02,0.26,0.04,0.6,0.06,1.02c0.05,0.88,0.1,2.16,0.15,3.73
							c0.1,3.15,0.18,7.52,0.16,12.33c-0.02,4.82-0.14,9.18-0.27,12.33c-0.06,1.58-0.13,2.85-0.18,3.73
							c-0.03,0.42-0.05,0.75-0.07,1.01c-0.02,0.23-0.03,0.35-0.04,0.35c-0.01,0-0.01-0.12-0.01-0.36c0-0.26,0.01-0.6,0.01-1.02
							c0.02-0.92,0.05-2.18,0.09-3.74c0.08-3.15,0.16-7.51,0.19-12.33c0.02-4.81-0.03-9.17-0.08-12.33
							c-0.02-1.55-0.04-2.82-0.06-3.74c0-0.42-0.01-0.75-0.01-1.02C63.46,375.46,63.47,375.33,63.48,375.33z"/>
					</g>
				</g>
			</g>
		</g>
		<g>
			<g>
				<g>
					<path class="st9" d="M61.87,399.92c-0.76-4.76-3.97-9.07-8.32-11.15c-1.11-0.53-2.56-0.88-3.47-0.05
						c-0.91,0.83-0.71,2.31-0.26,3.45c1.86,4.77,6.85,8.14,11.96,8.08"/>
				</g>
			</g>
		</g>
		<g>
			<g>
				<g>
					<g>
						<path class="st8" d="M54.09,392.5c0.01-0.02,0.26,0.09,0.7,0.31c0.22,0.11,0.5,0.24,0.79,0.42c0.3,0.19,0.66,0.37,1.01,0.64
							c0.36,0.26,0.76,0.53,1.16,0.87c0.41,0.32,0.81,0.71,1.23,1.12c0.82,0.84,1.64,1.85,2.34,3.01c0.69,1.17,1.19,2.37,1.54,3.49
							c0.16,0.57,0.31,1.1,0.39,1.62c0.11,0.51,0.15,0.99,0.2,1.44c0.06,0.44,0.04,0.84,0.06,1.19c0.02,0.35-0.01,0.65-0.03,0.9
							c-0.04,0.49-0.06,0.76-0.08,0.76c-0.06,0,0.05-1.1-0.15-2.84c-0.06-0.43-0.11-0.91-0.23-1.41c-0.09-0.51-0.25-1.03-0.41-1.59
							c-0.36-1.1-0.86-2.27-1.54-3.42c-0.69-1.14-1.49-2.13-2.28-2.97c-0.41-0.41-0.8-0.8-1.2-1.12c-0.38-0.35-0.77-0.62-1.12-0.89
							C55.06,393.01,54.06,392.56,54.09,392.5z"/>
					</g>
				</g>
			</g>
		</g>
	</g>
</g>
<g id="Sun">
	<g>
		<g>
			<g>
				
					<ellipse transform="matrix(0.2286 -0.9735 0.9735 0.2286 229.1511 465.7975)" class="st9" cx="408.5" cy="88.3" rx="11.46" ry="11.46"/>
			</g>
		</g>
		<g>
			<g>
				<g>
					<path class="st9" d="M406.88,113.93c-0.07,0-0.12-2.12-0.12-4.73c0-2.61,0.05-4.73,0.12-4.73c0.07,0,0.12,2.12,0.12,4.73
						C407,111.81,406.95,113.93,406.88,113.93z"/>
				</g>
			</g>
		</g>
		<g>
			<g>
				<g>
					<path class="st9" d="M400.27,101.81c0.06,0.03-1.02,2.01-2.41,4.41c-1.39,2.4-2.56,4.32-2.62,4.29s1.02-2.01,2.41-4.41
						C399.04,103.7,400.22,101.78,400.27,101.81z"/>
				</g>
			</g>
		</g>
		<g>
			<g>
				<g>
					<path class="st9" d="M393.49,97.59c0.04,0.05-1.16,1.07-2.68,2.28s-2.79,2.14-2.83,2.09c-0.04-0.05,1.16-1.07,2.68-2.28
						C392.19,98.47,393.45,97.54,393.49,97.59z"/>
				</g>
			</g>
		</g>
		<g>
			<g>
				<g>
					<path class="st9" d="M418.32,109.27c-0.03,0.01-0.14-0.44-0.3-1.16c-0.17-0.72-0.4-1.72-0.69-2.81
						c-0.29-1.09-0.59-2.07-0.81-2.78c-0.22-0.71-0.36-1.15-0.32-1.16c0.03-0.01,0.22,0.41,0.48,1.1c0.26,0.7,0.59,1.67,0.88,2.77
						c0.29,1.1,0.5,2.1,0.62,2.83C418.3,108.81,418.35,109.27,418.32,109.27z"/>
				</g>
			</g>
		</g>
		<g>
			<g>
				<g>
					<path class="st9" d="M429.94,101.02c-0.04,0.05-1.56-1.2-3.39-2.8c-1.83-1.6-3.27-2.93-3.23-2.98c0.04-0.05,1.56,1.2,3.39,2.8
						C428.54,99.64,429.99,100.97,429.94,101.02z"/>
				</g>
			</g>
		</g>
		<g>
			<g>
				<g>
					<path class="st9" d="M434.39,89.68c-0.01,0.04-0.53-0.06-1.38-0.2c-0.85-0.14-2.02-0.32-3.33-0.47
						c-1.3-0.15-2.49-0.24-3.35-0.29c-0.86-0.06-1.39-0.08-1.39-0.12c0-0.03,0.53-0.06,1.4-0.05c0.86,0.01,2.06,0.07,3.37,0.22
						c1.31,0.15,2.49,0.36,3.33,0.55C433.89,89.5,434.4,89.65,434.39,89.68z"/>
				</g>
			</g>
		</g>
		<g>
			<g>
				<g>
					<path class="st9" d="M434.41,78.54c0.02,0.07-2.47,0.72-5.54,1.47c-3.08,0.75-5.58,1.31-5.6,1.24s2.46-0.72,5.54-1.47
						C431.89,79.03,434.39,78.47,434.41,78.54z"/>
				</g>
			</g>
		</g>
		<g>
			<g>
				<g>
					<path class="st9" d="M421.46,65.54c0.06,0.04-1.13,1.93-2.65,4.23c-1.52,2.3-2.8,4.13-2.85,4.1c-0.05-0.04,1.13-1.93,2.65-4.23
						C420.12,67.34,421.4,65.51,421.46,65.54z"/>
				</g>
			</g>
		</g>
		<g>
			<g>
				<g>
					<path class="st9" d="M408.6,62.83c0.03,0,0.03,0.6,0.02,1.57c-0.01,0.97-0.03,2.31-0.03,3.79c0,1.48,0.02,2.82,0.04,3.79
						c0.02,0.97,0.02,1.57-0.01,1.57c-0.03,0-0.1-0.6-0.16-1.57c-0.06-0.97-0.11-2.31-0.11-3.8c0-1.48,0.05-2.83,0.1-3.8
						C408.51,63.43,408.57,62.83,408.6,62.83z"/>
				</g>
			</g>
		</g>
		<g>
			<g>
				<g>
					<path class="st9" d="M398.87,74.96c-0.06,0.04-1.26-1.84-2.7-4.18c-1.43-2.35-2.55-4.27-2.49-4.31
						c0.06-0.04,1.26,1.84,2.7,4.18C397.81,72.99,398.92,74.92,398.87,74.96z"/>
				</g>
			</g>
		</g>
		<g>
			<g>
				<g>
					<path class="st9" d="M393.05,79.9c-0.01,0.03-0.47-0.04-1.22-0.19s-1.77-0.41-2.88-0.74s-2.11-0.67-2.82-0.95
						c-0.71-0.27-1.14-0.47-1.13-0.5c0.01-0.03,0.46,0.11,1.18,0.34c0.72,0.23,1.72,0.55,2.83,0.88c1.11,0.33,2.12,0.6,2.86,0.8
						C392.61,79.74,393.06,79.86,393.05,79.9z"/>
				</g>
			</g>
		</g>
		<g>
			<g>
				<g>
					<path class="st9" d="M390.51,88.71c0.01,0.07-1.63,0.28-3.66,0.47c-2.03,0.19-3.67,0.3-3.68,0.23s1.63-0.28,3.66-0.47
						C388.86,88.74,390.51,88.64,390.51,88.71z"/>
				</g>
			</g>
		</g>
	</g>
</g>
<g id="Birds">
	<g>
		<g>
			<g>
				<path class="st8" d="M113.23,90.98c-0.01,0.03-0.56-0.19-1.59-0.42c-1.03-0.23-2.57-0.43-4.45-0.17c-1.86,0.25-4.06,1-5.99,2.58
					c-1.92,1.56-3.57,3.92-4.23,6.71c-0.01,0.03-0.01,0.05-0.02,0.07l-0.12,0.48l-0.18-0.46c-1.08-2.66-2.99-4.77-5.06-6.11
					c-2.08-1.37-4.32-1.93-6.18-2.06c-1.88-0.13-3.4,0.14-4.42,0.4c-1.02,0.27-1.56,0.51-1.57,0.47c0-0.01,0.13-0.07,0.38-0.18
					c0.26-0.11,0.64-0.26,1.15-0.41c1.01-0.31,2.55-0.61,4.47-0.51c1.9,0.1,4.19,0.65,6.33,2.04c2.13,1.36,4.1,3.51,5.2,6.24
					l-0.31,0.03c0.01-0.02,0.01-0.05,0.02-0.08c0.68-2.88,2.37-5.29,4.36-6.87c1.99-1.61,4.25-2.36,6.15-2.58
					c1.91-0.23,3.47,0.01,4.5,0.28c0.52,0.13,0.91,0.26,1.17,0.37C113.1,90.91,113.24,90.97,113.23,90.98z"/>
			</g>
		</g>
	</g>
	<g>
		<g>
			<g>
				<path class="st8" d="M142.68,100.79c-0.01,0.03-0.31-0.09-0.88-0.21c-0.57-0.11-1.41-0.22-2.43-0.07
					c-1.01,0.14-2.21,0.56-3.26,1.42c-1.05,0.85-1.94,2.14-2.3,3.66l-0.01,0.04l-0.12,0.48l-0.18-0.46
					c-0.59-1.45-1.62-2.6-2.75-3.33c-1.13-0.75-2.35-1.06-3.37-1.14c-1.03-0.08-1.86,0.06-2.42,0.2c-0.56,0.14-0.86,0.26-0.87,0.23
					c0-0.01,0.07-0.05,0.21-0.12c0.14-0.07,0.35-0.15,0.63-0.24c0.56-0.18,1.41-0.36,2.47-0.31c1.05,0.05,2.33,0.35,3.52,1.12
					c1.18,0.75,2.28,1.95,2.89,3.46l-0.31,0.03l0.01-0.04c0.38-1.6,1.32-2.94,2.43-3.82c1.11-0.89,2.37-1.3,3.42-1.42
					c1.06-0.12,1.92,0.02,2.49,0.18c0.29,0.08,0.5,0.15,0.64,0.22C142.62,100.74,142.69,100.78,142.68,100.79z"/>
			</g>
		</g>
	</g>
	<g>
		<g>
			<g>
				<path class="st8" d="M126.29,51.31c0.02,0.02-0.3,0.35-0.86,0.97c-0.55,0.62-1.3,1.56-2.09,2.82c-1.58,2.48-3.15,6.43-3.1,10.96
					c0,0.05,0,0.1,0,0.14l-0.32,0.03c-0.33-2.21-1.07-4.24-2-5.94c-0.93-1.7-2.02-3.08-3.05-4.12c-1.03-1.04-1.97-1.78-2.65-2.24
					c-0.68-0.47-1.07-0.7-1.05-0.73c0-0.01,0.11,0.04,0.3,0.14c0.19,0.11,0.48,0.25,0.82,0.48c0.7,0.44,1.67,1.15,2.74,2.19
					c1.07,1.03,2.19,2.42,3.15,4.14c0.96,1.72,1.72,3.78,2.06,6.03l-0.32,0.03c0-0.04,0-0.09,0-0.14
					c-0.06-4.61,1.58-8.61,3.23-11.09c0.82-1.25,1.6-2.18,2.19-2.78c0.28-0.31,0.53-0.52,0.69-0.67
					C126.19,51.38,126.28,51.3,126.29,51.31z"/>
			</g>
		</g>
	</g>
</g>
<g id="Ball">
	<g>
		<g>
			<g>
				<circle class="st5" cx="55.78" cy="244.04" r="11.74"/>
			</g>
			<g>
				<g>
					<path class="st8" d="M67.52,244.04c-0.07,0.01,0-1.05-0.47-2.84c-0.46-1.76-1.64-4.35-4.28-6.35c-1.31-0.98-2.96-1.8-4.87-2.13
						c-1.89-0.32-4.02-0.26-6.05,0.52c-1.02,0.36-2,0.89-2.91,1.57c-0.91,0.66-1.74,1.49-2.43,2.44c-1.41,1.88-2.21,4.3-2.23,6.79
						c0.02,2.49,0.82,4.91,2.23,6.79c0.68,0.96,1.51,1.78,2.43,2.44c0.9,0.68,1.89,1.21,2.91,1.57c2.03,0.77,4.16,0.84,6.05,0.52
						c1.9-0.33,3.55-1.16,4.87-2.13c2.65-2,3.83-4.59,4.28-6.35C67.52,245.09,67.45,244.03,67.52,244.04c0.02,0,0.02,0.26,0.01,0.75
						c0,0.25-0.01,0.55-0.07,0.91c-0.05,0.36-0.09,0.77-0.22,1.23c-0.4,1.8-1.55,4.49-4.26,6.59c-1.34,1.03-3.04,1.9-5.01,2.27
						c-1.96,0.35-4.17,0.3-6.29-0.49c-1.06-0.37-2.09-0.92-3.04-1.62c-0.96-0.69-1.83-1.55-2.54-2.54
						c-1.48-1.96-2.32-4.49-2.34-7.09c0.02-2.6,0.86-5.13,2.34-7.09c0.72-0.99,1.59-1.85,2.54-2.54c0.94-0.7,1.97-1.26,3.04-1.62
						c2.12-0.79,4.33-0.84,6.29-0.49c1.97,0.36,3.67,1.24,5.01,2.27c2.7,2.1,3.85,4.78,4.26,6.59c0.13,0.45,0.17,0.87,0.22,1.23
						c0.06,0.36,0.07,0.66,0.07,0.91C67.54,243.78,67.54,244.04,67.52,244.04z"/>
				</g>
			</g>
		</g>
		<g>
			<g>
				<path class="st8" d="M66.3,239.2c0.02,0.02-0.18,0.29-0.6,0.74c-0.42,0.45-1.07,1.05-1.95,1.71c-1.74,1.33-4.49,2.82-7.81,3.45
					c-3.32,0.63-6.43,0.25-8.53-0.35c-1.06-0.3-1.89-0.62-2.44-0.88c-0.56-0.26-0.85-0.44-0.83-0.46c0.04-0.09,1.26,0.5,3.37,0.99
					c2.09,0.5,5.11,0.81,8.34,0.2c3.23-0.61,5.93-2.01,7.69-3.23C65.31,240.13,66.23,239.13,66.3,239.2z"/>
			</g>
		</g>
		<g>
			<g>
				<path class="st8" d="M67.32,242.61c0.02,0.02-0.19,0.3-0.63,0.74c-0.44,0.45-1.12,1.06-2.03,1.72c-1.8,1.33-4.64,2.82-8.04,3.43
					c-3.41,0.62-6.58,0.24-8.74-0.36c-1.09-0.3-1.94-0.62-2.51-0.88c-0.57-0.26-0.87-0.44-0.86-0.47c0.04-0.09,1.3,0.5,3.45,0.99
					c2.15,0.5,5.24,0.81,8.56,0.2c3.32-0.6,6.1-1.99,7.92-3.22C66.29,243.54,67.26,242.54,67.32,242.61z"/>
			</g>
		</g>
	</g>
</g>
<g id="Character">
	<g>
		<g>
			<g>
				<g>
					<g>
						<g>
							<g>
								<g>
									<g>
										<g>
											<g>
												<g>
													<g>
														<g>
															<g>
																<g>
																	<path class="st8" d="M391.42,409.08l29.1-7.87c0,0,17.77,26.94,23.29,26.01l-13.23-56.97l-45.85,10.4
																		L391.42,409.08z"/>
																</g>
															</g>
														</g>
													</g>
												</g>
											</g>
										</g>
									</g>
								</g>
							</g>
						</g>
					</g>
				</g>
				<g>
					<g>
						<g>
							<g>
								<g>
									<g>
										<g>
											<g>
												<g>
													<g>
														<g>
															<g>
																<g>
																	<g>
																		<path class="st5" d="M413.96,384.17c0.05-1.17,1.11-2.22,2.28-2.23c1.17,0,2.25,1.07,2.23,2.24
																			s-1.26,2.47-2.43,2.34c-1.17-0.13-2.36-1.46-2.06-2.59"/>
																	</g>
																</g>
															</g>
														</g>
													</g>
												</g>
											</g>
										</g>
									</g>
								</g>
							</g>
						</g>
					</g>
				</g>
				<g>
					<g>
						<g>
							<g>
								<g>
									<g>
										<g>
											<g>
												<g>
													<g>
														<g>
															<g>
																<g>
																	<path class="st10" d="M430.58,370.24l-4.58,1.23l14.39,54.17c0,0,1.69,2.28,3.41,1.58L430.58,370.24z"/>
																</g>
															</g>
														</g>
													</g>
												</g>
											</g>
										</g>
									</g>
								</g>
							</g>
						</g>
					</g>
				</g>
				<g>
					<g>
						<g>
							<g>
								<g>
									<g>
										<g>
											<g>
												<g>
													<g>
														<g>
															<g>
																<g>
																	<g>
																		<path class="st11" d="M420.44,402.2c0.28-0.07,0.08-1.49,0.66-3.07c0.54-1.59,1.58-2.58,1.41-2.81
																			c-0.11-0.24-1.68,0.56-2.35,2.48C419.48,400.72,420.2,402.32,420.44,402.2z"/>
																	</g>
																</g>
															</g>
														</g>
													</g>
												</g>
											</g>
										</g>
									</g>
								</g>
							</g>
						</g>
					</g>
				</g>
				<g>
					<g>
						<g>
							<g>
								<g>
									<g>
										<g>
											<g>
												<g>
													<g>
														<g>
															<g>
																<g>
																	<g>
																		<path class="st11" d="M424.3,407.6c0.28,0,0.48-1.31,1.43-2.53c0.92-1.25,2.14-1.78,2.06-2.05
																			c-0.02-0.27-1.69-0.09-2.85,1.45C423.77,405.99,424.04,407.66,424.3,407.6z"/>
																	</g>
																</g>
															</g>
														</g>
													</g>
												</g>
											</g>
										</g>
									</g>
								</g>
							</g>
						</g>
					</g>
				</g>
				<g>
					<g>
						<g>
							<g>
								<g>
									<g>
										<g>
											<g>
												<g>
													<g>
														<g>
															<g>
																<g>
																	<g>
																		<path class="st11" d="M432.24,409.34c0-0.27-1.48-0.33-2.84,0.74c-1.37,1.06-1.66,2.51-1.4,2.57
																			c0.27,0.1,0.89-0.93,2.02-1.79C431.12,409.97,432.28,409.62,432.24,409.34z"/>
																	</g>
																</g>
															</g>
														</g>
													</g>
												</g>
											</g>
										</g>
									</g>
								</g>
							</g>
						</g>
					</g>
				</g>
				<g>
					<g>
						<g>
							<g>
								<g>
									<g>
										<g>
											<g>
												<g>
													<g>
														<g>
															<g>
																<g>
																	<g>
																		<path class="st11" d="M413.61,403.26c0.23-0.18-0.45-1.36-0.71-2.96c-0.29-1.59-0.05-2.94-0.32-3.03
																			c-0.24-0.11-0.99,1.32-0.66,3.2C412.24,402.35,413.43,403.45,413.61,403.26z"/>
																	</g>
																</g>
															</g>
														</g>
													</g>
												</g>
											</g>
										</g>
									</g>
								</g>
							</g>
						</g>
					</g>
				</g>
			</g>
		</g>
		<g>
			<g>
				<path class="st8" d="M271.42,313.39c-0.01,0.94,8.15,46.76,12,59.3c3.85,12.54,9.23,35.23,18.82,41.23
					c9.59,6.01,102.14-12.38,102.14-12.38l-3.68-26.67l-71.02,1.61l-2.62-36.28l2.32-7.17c0,0,7.13-23.7,7.24-31.8
					c0.11-8.1-39.56-3.08-39.56-3.08L271.42,313.39z"/>
			</g>
			<g>
				<g>
					<path class="st10" d="M303.21,332.19c0.01,0.14-5.53,0.62-12.36,1.06c-6.84,0.44-12.39,0.69-12.4,0.54
						c-0.01-0.14,5.53-0.62,12.37-1.06C297.65,332.29,303.2,332.04,303.21,332.19z"/>
				</g>
			</g>
		</g>
		<g>
			<path class="st12" d="M327.82,202.79c0,0,12.1,12.76,16.68,18.05c4.58,5.29,4.99,20.71-0.3,24.24s-25.52-5.93-25.52-5.93
				l-11.66-20.71L327.82,202.79z"/>
		</g>
		<g>
			<g>
				<path class="st13" d="M331.31,244.03c-0.01,0.04-0.49-0.06-1.37-0.27c-0.44-0.09-0.97-0.24-1.58-0.45
					c-0.31-0.1-0.64-0.2-0.98-0.31c-0.34-0.13-0.7-0.28-1.07-0.42c-1.48-0.62-3.24-1.5-4.86-2.93c-1.64-1.4-2.98-3.52-3.59-5.93
					c-0.34-1.17-0.6-2.39-0.67-3.55c-0.09-1.16-0.11-2.28-0.17-3.33c-0.09-2.1-0.58-3.94-1.27-5.37c-1.38-2.88-3.05-4.11-2.95-4.19
					c0.02-0.02,0.43,0.26,1.07,0.91c0.64,0.64,1.48,1.67,2.22,3.12c0.75,1.44,1.3,3.36,1.42,5.5c0.15,2.13,0.11,4.45,0.87,6.77
					c0.6,2.35,1.84,4.34,3.41,5.72c1.55,1.4,3.24,2.29,4.69,2.95C329.39,243.51,331.34,243.92,331.31,244.03z"/>
			</g>
		</g>
		<g>
			<g>
				<path class="st13" d="M343.87,224.45c-0.09,0.11-5.09-4.04-11.17-9.27c-6.08-5.23-10.92-9.56-10.83-9.67s5.09,4.04,11.17,9.27
					C339.11,220.01,343.96,224.34,343.87,224.45z"/>
			</g>
		</g>
		<g>
			<g>
				<path class="st9" d="M280.14,162.62c0,0,5.3-2.77,12.9,1.03c7.6,3.8,38.31,32.73,38.31,32.73l-23.73,23.1l-21.35-22.05
					L280.14,162.62z"/>
			</g>
			<g>
				<polygon class="st9" points="227.99,173.4 224.52,183.88 212.59,192.4 226.67,236.78 266.2,288.07 334.94,272.44 326.94,253.8 
					295.84,198.56 280.14,162.62 267.14,165.93 255.68,162.34 				"/>
			</g>
			<g>
				<path class="st9" d="M215.71,191.51c0,0-13.18,1.58-9.43,19.99s32.13,31.92,32.13,31.92l15.09-15.7l-4.66-25.13L215.71,191.51z"
					/>
			</g>
			<g>
				<g>
					<path class="st8" d="M243.06,201.29c-0.03,0.07-1.08-0.28-2.77-0.91c-1.84-0.69-4.08-1.54-6.56-2.48
						c-2.57-0.96-4.9-1.78-6.6-2.35c-1.7-0.57-2.76-0.93-2.73-1c0.02-0.07,1.11,0.16,2.84,0.65c1.73,0.49,4.1,1.25,6.68,2.22
						c2.57,0.96,4.87,1.92,6.52,2.63C242.07,200.75,243.08,201.22,243.06,201.29z"/>
				</g>
			</g>
			<g>
				<g>
					<path class="st8" d="M253.83,188.87c-0.01,0.03-0.43-0.1-1.17-0.37c-0.83-0.31-1.89-0.72-3.17-1.2l0.23-0.19
						c0.27,1.56,0.41,3.53,0.17,5.72l-0.03,0.29l-0.28-0.1c-2.31-0.79-4.93-1.7-7.7-2.65c-4.81-1.67-9.15-3.21-12.29-4.35
						c-1.49-0.55-2.74-1.02-3.7-1.38c-0.87-0.34-1.35-0.54-1.34-0.57c0.01-0.03,0.51,0.1,1.4,0.38c0.98,0.32,2.24,0.73,3.76,1.22
						c3.17,1.05,7.53,2.54,12.34,4.21c2.76,0.97,5.37,1.89,7.68,2.7l-0.31,0.19c0.27-2.14,0.17-4.07-0.05-5.61l-0.04-0.31l0.28,0.12
						c1.25,0.54,2.29,0.99,3.11,1.35C253.45,188.65,253.84,188.84,253.83,188.87z"/>
				</g>
			</g>
			<g>
				<g>
					<path class="st8" d="M264.82,167.29c0.04,0,0.11,0.44,0.22,1.24c0.1,0.81,0.23,1.98,0.32,3.43c0.18,2.9,0.22,6.93-0.23,11.35
						c-0.1,1.02-0.23,2.01-0.36,2.97l-0.04,0.32l-0.3-0.11c-2.99-1.1-5.49-2.49-7.33-3.71l0.29-0.15c-0.11,1.53-0.57,2.71-0.95,3.46
						c-0.39,0.75-0.71,1.11-0.73,1.09c-0.04-0.02,0.21-0.42,0.54-1.18c0.32-0.76,0.71-1.92,0.77-3.39l0.01-0.32l0.27,0.17
						c1.86,1.16,4.35,2.49,7.3,3.55l-0.34,0.21c0.12-0.95,0.25-1.94,0.35-2.95c0.44-4.39,0.47-8.39,0.38-11.28
						c-0.04-1.45-0.11-2.62-0.15-3.42C264.79,167.74,264.78,167.29,264.82,167.29z"/>
				</g>
			</g>
			<g>
				<g>
					<path class="st8" d="M308.14,230.89c0.02,0.01-0.02,0.18-0.1,0.52c-0.1,0.39-0.23,0.88-0.39,1.46
						c-0.17,0.64-0.39,1.41-0.7,2.29c-0.3,0.88-0.61,1.9-1.07,2.99c-0.43,1.1-0.9,2.29-1.5,3.54c-0.55,1.27-1.25,2.57-1.96,3.95
						c-1.5,2.72-3.31,5.63-5.46,8.51c-2.17,2.86-4.47,5.4-6.68,7.6c-1.13,1.07-2.19,2.1-3.26,2.98c-1.04,0.92-2.05,1.7-2.99,2.42
						c-0.92,0.74-1.81,1.31-2.58,1.85c-0.76,0.54-1.44,0.97-2.01,1.3c-0.52,0.31-0.95,0.57-1.3,0.77c-0.3,0.17-0.46,0.25-0.47,0.24
						c-0.01-0.02,0.13-0.13,0.42-0.33c0.33-0.23,0.74-0.51,1.24-0.85c0.55-0.36,1.21-0.81,1.95-1.37c0.74-0.56,1.62-1.15,2.52-1.9
						c0.92-0.73,1.92-1.52,2.93-2.45c1.05-0.89,2.09-1.92,3.21-2.99c2.17-2.2,4.44-4.73,6.6-7.57c2.13-2.86,3.95-5.73,5.46-8.43
						c0.72-1.37,1.43-2.65,1.99-3.91c0.61-1.23,1.1-2.41,1.55-3.49c0.47-1.07,0.81-2.07,1.14-2.94c0.34-0.87,0.58-1.63,0.78-2.25
						c0.19-0.57,0.35-1.05,0.48-1.43C308.05,231.06,308.12,230.89,308.14,230.89z"/>
				</g>
			</g>
			<g>
				<g>
					<path class="st8" d="M297.65,233.07c0.02,0.01-0.03,0.17-0.13,0.46c-0.13,0.35-0.28,0.78-0.46,1.3
						c-0.4,1.13-1.05,2.73-1.92,4.69c-1.72,3.92-4.42,9.21-8.02,14.67c-3.6,5.46-7.39,10.03-10.32,13.16
						c-1.46,1.57-2.68,2.8-3.56,3.61c-0.4,0.37-0.74,0.68-1.01,0.94c-0.23,0.21-0.36,0.31-0.38,0.3c-0.01-0.01,0.09-0.14,0.3-0.38
						c0.26-0.27,0.57-0.61,0.94-1c0.83-0.86,2.01-2.12,3.43-3.72c2.84-3.18,6.57-7.77,10.15-13.2c3.58-5.44,6.32-10.67,8.12-14.54
						c0.9-1.93,1.6-3.51,2.06-4.62c0.22-0.5,0.4-0.92,0.55-1.26C297.55,233.22,297.63,233.07,297.65,233.07z"/>
				</g>
			</g>
			<g>
				<g>
					<path class="st8" d="M293,192.33c0.03-0.01,0.25,0.38,0.62,1.11c0.41,0.83,0.92,1.87,1.54,3.1c1.3,2.62,3.12,6.21,5.26,10.12
						c2.14,3.91,4.18,7.39,5.68,9.89c0.71,1.18,1.3,2.18,1.78,2.97c0.42,0.7,0.63,1.1,0.6,1.12s-0.3-0.34-0.77-1.01
						c-0.47-0.67-1.13-1.65-1.92-2.88c-1.58-2.46-3.68-5.92-5.82-9.84c-2.14-3.92-3.92-7.55-5.13-10.21
						c-0.61-1.33-1.08-2.42-1.39-3.17C293.12,192.77,292.97,192.34,293,192.33z"/>
				</g>
			</g>
		</g>
		<g>
			<g>
				<path class="st12" d="M236.02,205.86c0.71-0.47,1.6-0.59,2.42-0.34l0,0c0,0,7.18-7.77,21.57-13.85
					c14.39-6.08,28.92-16.1,28.92-16.1l6.17,11.26c0,0-21.18,26.29-28.47,30.74s-20.39,13.44-27.33,13.94
					c-6.94,0.51-9.89-0.12-9.89-0.12s-3.44-8.46,0.2-16.24C231.49,211.41,233.35,207.62,236.02,205.86z"/>
			</g>
			<g>
				<g>
					<path class="st8" d="M238.43,205.52c-0.01,0.05-0.47-0.12-1.25,0.11c-0.78,0.22-1.81,0.86-2.79,1.95
						c-1.84,2.26-4.06,5.82-5.35,10.12c-0.63,2.16-0.93,4.3-0.92,6.24c0.01,1.95,0.29,3.69,0.68,5.11c0.79,2.85,1.9,4.38,1.8,4.43
						c-0.01,0.01-0.09-0.08-0.22-0.26c-0.13-0.18-0.32-0.45-0.52-0.81c-0.42-0.72-0.97-1.82-1.41-3.26
						c-0.44-1.44-0.77-3.22-0.8-5.21c-0.03-1.99,0.25-4.19,0.9-6.39c0.64-2.21,1.57-4.2,2.55-5.92c1.01-1.71,1.99-3.2,3.03-4.31
						c1.05-1.09,2.17-1.72,3.01-1.89c0.42-0.09,0.76-0.07,0.98-0.03C238.33,205.46,238.44,205.51,238.43,205.52z"/>
				</g>
			</g>
		</g>
		<g>
			<g>
				<g>
					<path class="st5" d="M271.92,409.41c0,0,26.7,11.83,34.36,11.32c0,0,1.21,4.7,7.72,1.17c0,0,4.18,7.06,9.15,1.27
						c0,0,3.6,2.3,7.66-2.92l90.73-9.37c3.06-0.32,5.29-3.05,4.99-6.11l0,0c-0.29-2.95-2.82-5.16-5.78-5.04
						c-21.59,0.87-102.58,4.02-111,2.35c-9.72-1.93-30.18,1.76-34.6,3.4C275.14,405.48,269.8,407.03,271.92,409.41z"/>
				</g>
				<g>
					<g>
						<path class="st8" d="M271.92,409.41c0,0-0.08-0.09-0.23-0.29c-0.15-0.19-0.34-0.56-0.26-1.08c0.09-0.52,0.55-1.04,1.2-1.48
							c0.65-0.44,1.49-0.83,2.5-1.15l-0.01,0c2.14-0.74,5.04-1.39,8.59-2.05c3.55-0.64,7.76-1.29,12.59-1.69
							c2.41-0.21,4.98-0.32,7.68-0.29c1.35,0.02,2.74,0.1,4.15,0.27c1.42,0.23,2.84,0.4,4.3,0.51c5.91,0.28,12.35,0.2,19.24,0.11
							c13.77-0.19,29.34-0.66,46.17-1.21c8.42-0.3,17.15-0.62,26.13-0.94c4.49-0.18,9.05-0.35,13.66-0.53
							c1.16-0.04,2.29-0.11,3.48-0.12c1.21,0.02,2.42,0.45,3.39,1.19c0.98,0.73,1.7,1.8,2.06,2.97c0.34,1.18,0.33,2.47-0.09,3.63
							c-0.39,1.14-1.16,2.13-2.13,2.82c-0.49,0.34-1.03,0.62-1.59,0.8c-0.57,0.18-1.18,0.26-1.73,0.31
							c-2.26,0.23-4.51,0.46-6.74,0.7c-4.47,0.46-8.89,0.92-13.24,1.36c-8.71,0.9-17.19,1.77-25.36,2.61
							c-16.34,1.67-31.46,3.22-44.85,4.59l0.14-0.08c-0.96,1.24-2.13,2.33-3.52,2.98c-1.39,0.64-3.05,0.73-4.41-0.02l0.26-0.04
							c-0.36,0.35-0.69,0.73-1.07,1.05c-0.41,0.29-0.78,0.63-1.25,0.81c-0.88,0.45-1.94,0.62-2.89,0.34
							c-0.95-0.25-1.77-0.79-2.47-1.4c-0.7-0.63-1.28-1.33-1.77-2.11l0.24,0.07c-1.44,0.77-2.97,1.38-4.55,1.31
							c-0.78-0.04-1.55-0.29-2.15-0.76c-0.61-0.47-1.03-1.11-1.26-1.83l0.17,0.12c-1.46,0.01-2.86-0.18-4.2-0.46
							c-0.67-0.15-1.32-0.3-1.97-0.44c-0.64-0.17-1.27-0.35-1.89-0.51c-2.47-0.7-4.75-1.46-6.87-2.21
							c-4.23-1.49-7.79-2.91-10.67-4.08c-2.88-1.18-5.07-2.12-6.55-2.77c-0.73-0.33-1.28-0.57-1.67-0.75
							C272.1,409.51,271.92,409.41,271.92,409.41s0.2,0.07,0.58,0.23c0.39,0.16,0.95,0.4,1.69,0.7c1.49,0.62,3.7,1.54,6.58,2.69
							c2.89,1.14,6.45,2.53,10.68,4c2.12,0.73,4.4,1.48,6.86,2.17c0.62,0.17,1.24,0.33,1.88,0.5c0.64,0.14,1.29,0.29,1.95,0.43
							c1.33,0.27,2.7,0.45,4.11,0.43l0.13,0l0.04,0.12c0.38,1.3,1.65,2.32,3.11,2.34c1.46,0.06,2.95-0.52,4.36-1.28l0.14-0.08
							l0.1,0.14c0.94,1.43,2.27,2.85,4.02,3.33c0.87,0.25,1.82,0.09,2.63-0.32c0.43-0.17,0.79-0.49,1.17-0.77
							c0.36-0.3,0.68-0.67,1.02-1.01l0.12-0.11l0.14,0.08c1.18,0.65,2.74,0.59,4.03-0.02c1.31-0.61,2.43-1.65,3.36-2.87l0.05-0.07
							l0.09-0.01c13.39-1.39,28.51-2.97,44.85-4.67c8.17-0.85,16.64-1.73,25.36-2.63c4.36-0.45,8.77-0.91,13.24-1.37
							c2.23-0.23,4.48-0.46,6.74-0.7c0.58-0.05,1.1-0.12,1.62-0.28c0.52-0.17,1-0.42,1.45-0.73c0.88-0.63,1.59-1.54,1.94-2.57
							c0.38-1.06,0.39-2.23,0.08-3.31c-0.33-1.06-0.98-2.04-1.88-2.7c-0.88-0.68-1.98-1.07-3.09-1.08
							c-1.13,0.01-2.31,0.08-3.45,0.12c-4.61,0.18-9.17,0.35-13.66,0.53c-8.99,0.32-17.72,0.62-26.14,0.92
							c-16.83,0.54-32.4,0.98-46.18,1.14c-6.89,0.07-13.33,0.13-19.26-0.17c-1.49-0.12-2.95-0.3-4.32-0.53
							c-1.4-0.17-2.77-0.26-4.12-0.28c-2.69-0.04-5.25,0.06-7.65,0.26c-4.81,0.38-9.02,1-12.57,1.61c-3.55,0.63-6.45,1.25-8.58,1.96
							l0,0h0c-1.97,0.62-3.44,1.51-3.67,2.51c-0.08,0.48,0.09,0.85,0.23,1.04C271.85,409.3,271.92,409.41,271.92,409.41z"/>
					</g>
				</g>
			</g>
			<g>
				<polygon class="st5" points="362.16,402.15 362.77,373.67 371.1,373.72 372.25,401.45 				"/>
			</g>
			<g>
				<polygon class="st5" points="394.39,373.64 397.98,401.57 409.06,400.44 402.69,373.55 				"/>
			</g>
			<g>
				<polygon class="st5" points="329.71,375.9 306.57,403.81 323.93,409.63 324.06,408.29 333.49,375.35 				"/>
			</g>
			<g>
				<g>
					<path class="st8" d="M307.5,402.19c0.08,0.02-0.09,1.07-0.31,2.77c-0.22,1.7-0.48,4.06-0.62,6.68
						c-0.13,2.62-0.11,4.99-0.06,6.71c0.05,1.72,0.11,2.78,0.03,2.79c-0.07,0.01-0.25-1.05-0.4-2.77c-0.15-1.72-0.23-4.12-0.1-6.76
						c0.13-2.64,0.45-5.01,0.77-6.71C307.14,403.21,307.44,402.17,307.5,402.19z"/>
				</g>
			</g>
			<g>
				<g>
					<path class="st8" d="M315.17,401.82c0.08,0.01-0.02,1.15-0.18,2.99c-0.16,1.84-0.36,4.38-0.49,7.19
						c-0.13,2.81-0.18,5.36-0.2,7.21c-0.02,1.85-0.03,2.99-0.11,2.99c-0.07,0-0.19-1.14-0.26-2.99c-0.07-1.85-0.09-4.41,0.05-7.24
						c0.14-2.82,0.39-5.37,0.64-7.21C314.87,402.93,315.1,401.81,315.17,401.82z"/>
				</g>
			</g>
			<g>
				<g>
					<path class="st8" d="M322.59,402.91c0.08,0.01,0.06,1.12,0.05,2.93c-0.01,1.8,0,4.3,0.11,7.05c0.11,2.75,0.3,5.23,0.45,7.03
						c0.15,1.8,0.26,2.91,0.18,2.92c-0.07,0.01-0.3-1.09-0.55-2.88c-0.25-1.79-0.5-4.29-0.61-7.05c-0.11-2.76-0.06-5.27,0.04-7.08
						C322.38,404.02,322.52,402.91,322.59,402.91z"/>
				</g>
			</g>
			<g>
				<g>
					<path class="st8" d="M330.18,402.03c0.08,0.01,0.06,1.04,0.05,2.7c-0.02,1.67-0.02,3.97,0.08,6.5c0.1,2.54,0.27,4.83,0.41,6.49
						c0.14,1.66,0.23,2.69,0.16,2.7c-0.07,0.01-0.29-1-0.52-2.66c-0.24-1.66-0.47-3.96-0.57-6.51c-0.1-2.55-0.04-4.87,0.07-6.54
						C329.97,403.05,330.11,402.02,330.18,402.03z"/>
				</g>
			</g>
			<g>
				<g>
					<path class="st8" d="M419.34,399.43c0,0.01-0.1,0.02-0.29,0.04c-0.22,0.02-0.5,0.03-0.85,0.06c-0.79,0.04-1.89,0.1-3.28,0.17
						c-2.89,0.12-7.01,0.3-12.08,0.51c-10.23,0.38-24.31,0.91-39.85,1.49c-7.78,0.27-15.2,0.53-21.94,0.76
						c-3.37,0.11-6.58,0.28-9.59,0.13c-3-0.1-5.79-0.25-8.34-0.38c-5.1-0.27-9.22-0.41-12.07-0.41c-1.43-0.01-2.53,0.01-3.28,0.02
						c-0.35,0-0.63,0.01-0.86,0.01c-0.19,0-0.29-0.01-0.29-0.02s0.1-0.02,0.29-0.04c0.22-0.02,0.5-0.04,0.85-0.06
						c0.75-0.05,1.86-0.1,3.29-0.12c2.86-0.06,6.99,0.02,12.09,0.25c2.55,0.11,5.34,0.24,8.34,0.32c2.99,0.13,6.19-0.06,9.57-0.18
						c6.75-0.25,14.16-0.52,21.94-0.8c15.55-0.52,29.62-1,39.85-1.34c5.07-0.15,9.19-0.26,12.08-0.35c1.4-0.03,2.5-0.05,3.29-0.07
						c0.35,0,0.63,0,0.86-0.01C419.24,399.41,419.34,399.42,419.34,399.43z"/>
				</g>
			</g>
			<g>
				<g>
					<path class="st8" d="M418.99,404.38c0.01,0.14-19.77,2.21-44.18,4.61c-24.42,2.4-44.22,4.23-44.24,4.09s19.76-2.21,44.19-4.61
						C399.17,406.06,418.98,404.23,418.99,404.38z"/>
				</g>
			</g>
			<g>
				<g>
					<path class="st8" d="M420.21,408.3c0.02,0.14-19.88,2.32-44.43,4.86c-24.56,2.54-44.48,4.48-44.49,4.34
						c-0.02-0.14,19.88-2.32,44.44-4.86C400.28,410.1,420.2,408.15,420.21,408.3z"/>
				</g>
			</g>
		</g>
		<g>
			<g>
				<g>
					<g>
						<g>
							<g>
								<g>
									<g>
										<g>
											<g>
												<g>
													<g>
														<g>
															<g>
																<g>
																	<g>
																		<path class="st8" d="M179.5,379.57l0.38,30.14c0,0-30.51,10.51-30.98,16.09l58.47,1.36l1.34-46.99L179.5,379.57z"
																			/>
																	</g>
																</g>
															</g>
														</g>
													</g>
												</g>
											</g>
										</g>
									</g>
								</g>
							</g>
						</g>
					</g>
					<g>
						<g>
							<g>
								<g>
									<g>
										<g>
											<g>
												<g>
													<g>
														<g>
															<g>
																<g>
																	<g>
																		<g>
																			<path class="st5" d="M198.01,407.6c1.12,0.34,1.88,1.63,1.59,2.76s-1.6,1.91-2.73,1.6s-2.08-1.84-1.67-2.93
																				c0.41-1.1,2-1.92,3.02-1.35"/>
																		</g>
																	</g>
																</g>
															</g>
														</g>
													</g>
												</g>
											</g>
										</g>
									</g>
								</g>
							</g>
						</g>
					</g>
					<g>
						<g>
							<g>
								<g>
									<g>
										<g>
											<g>
												<g>
													<g>
														<g>
															<g>
																<g>
																	<g>
																		<path class="st10" d="M207.36,427.16l-0.05-4.74l-56.04,0.47c0,0-2.63,1.07-2.38,2.91L207.36,427.16z"/>
																	</g>
																</g>
															</g>
														</g>
													</g>
												</g>
											</g>
										</g>
									</g>
								</g>
							</g>
						</g>
					</g>
					<g>
						<g>
							<g>
								<g>
									<g>
										<g>
											<g>
												<g>
													<g>
														<g>
															<g>
																<g>
																	<g>
																		<g>
																			<path class="st11" d="M178.93,409.39c0,0.29,1.43,0.45,2.81,1.4c1.41,0.92,2.1,2.17,2.37,2.06
																				c0.26-0.05-0.12-1.77-1.82-2.89C180.61,408.82,178.88,409.12,178.93,409.39z"/>
																		</g>
																	</g>
																</g>
															</g>
														</g>
													</g>
												</g>
											</g>
										</g>
									</g>
								</g>
							</g>
						</g>
					</g>
					<g>
						<g>
							<g>
								<g>
									<g>
										<g>
											<g>
												<g>
													<g>
														<g>
															<g>
																<g>
																	<g>
																		<g>
																			<path class="st11" d="M172.74,411.78c-0.07,0.27,1.15,0.79,2.1,2.02c0.98,1.2,1.19,2.51,1.48,2.51
																				c0.27,0.05,0.5-1.62-0.7-3.12C174.43,411.67,172.76,411.51,172.74,411.78z"/>
																		</g>
																	</g>
																</g>
															</g>
														</g>
													</g>
												</g>
											</g>
										</g>
									</g>
								</g>
							</g>
						</g>
					</g>
					<g>
						<g>
							<g>
								<g>
									<g>
										<g>
											<g>
												<g>
													<g>
														<g>
															<g>
																<g>
																	<g>
																		<g>
																			<path class="st11" d="M169.09,419.04c0.26,0.07,0.69-1.35-0.01-2.93c-0.69-1.59-2.02-2.23-2.14-2
																				c-0.17,0.23,0.68,1.09,1.23,2.4C168.75,417.8,168.8,419.01,169.09,419.04z"/>
																		</g>
																	</g>
																</g>
															</g>
														</g>
													</g>
												</g>
											</g>
										</g>
									</g>
								</g>
							</g>
						</g>
					</g>
					<g>
						<g>
							<g>
								<g>
									<g>
										<g>
											<g>
												<g>
													<g>
														<g>
															<g>
																<g>
																	<g>
																		<g>
																			<path class="st11" d="M179.61,402.51c0.11,0.26,1.43-0.1,3.04,0.05c1.61,0.11,2.86,0.68,3.01,0.44
																				c0.17-0.2-1.03-1.29-2.93-1.43C180.84,401.4,179.48,402.28,179.61,402.51z"/>
																		</g>
																	</g>
																</g>
															</g>
														</g>
													</g>
												</g>
											</g>
										</g>
									</g>
								</g>
							</g>
						</g>
					</g>
				</g>
			</g>
			<g>
				<g>
					<path class="st8" d="M300.43,269.84c0,0-90.89,9.05-98.72,11.41c-7.82,2.37-14.97,16.64-18.34,23.57s-8.61,100.01-8.61,100.01
						l33.25,1.92c0,0,5.65-57.43,6.94-66.84c1.29-9.41,0.26-21.21,0.26-21.21s91.31,10.3,100.04,9.47
						c8.73-0.84,18.85-10.56,21.72-20.26c3.69-12.48-5.1-34.97-5.1-34.97s-7-3.44-12.61-3.78
						C309.75,268.59,300.43,269.84,300.43,269.84z"/>
				</g>
				<g>
					<g>
						<path class="st10" d="M298.46,297.74c0,0.01-0.09,0.02-0.26,0.04c-0.2,0.02-0.45,0.04-0.76,0.07
							c-0.71,0.05-1.68,0.12-2.92,0.21c-2.54,0.18-6.21,0.39-10.74,0.63c-9.08,0.47-21.62,0.98-35.49,1.24
							c-13.87,0.26-26.43,0.22-35.52,0.09c-4.54-0.07-8.22-0.15-10.76-0.23c-1.24-0.04-2.21-0.08-2.92-0.1
							c-0.31-0.02-0.56-0.03-0.76-0.04c-0.17-0.01-0.26-0.02-0.26-0.03s0.09-0.02,0.26-0.02c0.2,0,0.45-0.01,0.76-0.01
							c0.71,0,1.69,0,2.93,0c2.58,0.02,6.25,0.04,10.76,0.06c9.09,0.04,21.64,0.02,35.5-0.24c13.86-0.26,26.4-0.7,35.48-1.08
							c4.51-0.19,8.17-0.35,10.75-0.46c1.24-0.05,2.21-0.09,2.92-0.11c0.31-0.01,0.56-0.01,0.76-0.02
							C298.37,297.73,298.46,297.73,298.46,297.74z"/>
					</g>
				</g>
			</g>
			<g>
				<g>
					<g>
						<path class="st5" d="M188.26,257.75c0,0-14.7,25.24-15.03,32.91c0,0-4.8,0.68-2.01,7.54c0,0-7.47,3.37-2.27,8.95
							c0,0-2.68,3.32,2.06,7.94l0.01,91.97c0,3.06,2.46,5.55,5.52,5.59l0,0c2.98,0.04,5.46-2.26,5.65-5.23
							c1.36-21.71,6.6-103.07,9.19-111.26c2.99-9.45,1.57-30.19,0.42-34.76C191.82,261.39,190.86,255.91,188.26,257.75z"/>
					</g>
					<g>
						<g>
							<path class="st8" d="M188.26,257.75c0,0,0.1-0.07,0.31-0.2c0.2-0.13,0.6-0.28,1.1-0.14c0.51,0.15,0.97,0.67,1.33,1.35
								c0.37,0.69,0.66,1.57,0.87,2.61l0-0.01c0.5,2.21,0.83,5.18,1.09,8.79c0.24,3.61,0.43,7.89,0.29,12.75
								c-0.06,2.43-0.23,5-0.57,7.7c-0.17,1.35-0.41,2.72-0.74,4.11c-0.39,1.39-0.7,2.79-0.96,4.24c-0.9,5.87-1.49,12.32-2.12,19.2
								c-1.24,13.78-2.38,29.38-3.57,46.26c-0.57,8.44-1.16,17.2-1.76,26.21c-0.29,4.51-0.58,9.08-0.88,13.7
								c-0.08,1.16-0.12,2.3-0.24,3.5c-0.15,1.21-0.71,2.37-1.56,3.25c-0.84,0.9-1.98,1.49-3.19,1.73c-1.21,0.21-2.5,0.05-3.61-0.5
								c-1.1-0.52-1.99-1.41-2.58-2.46c-0.28-0.53-0.49-1.1-0.6-1.69c-0.12-0.59-0.1-1.2-0.11-1.76c0-2.29,0-4.57,0-6.83
								c0-4.53,0-9,0-13.41c0-8.83,0.01-17.41,0.01-25.68c0.01-16.54,0.02-31.84,0.03-45.38l0.06,0.15
								c-1.13-1.1-2.08-2.37-2.57-3.83c-0.48-1.45-0.39-3.11,0.51-4.38l0.01,0.26c-0.31-0.4-0.65-0.76-0.93-1.18
								c-0.24-0.44-0.54-0.85-0.67-1.33c-0.35-0.92-0.4-2-0.02-2.91c0.35-0.92,0.98-1.67,1.67-2.3c0.7-0.62,1.46-1.13,2.29-1.53
								l-0.09,0.23c-0.6-1.52-1.04-3.11-0.8-4.67c0.12-0.77,0.45-1.51,0.99-2.05c0.54-0.55,1.22-0.9,1.96-1.05l-0.14,0.15
								c0.15-1.46,0.49-2.82,0.91-4.12c0.22-0.64,0.44-1.28,0.66-1.91c0.24-0.61,0.48-1.22,0.72-1.82c0.97-2.38,1.98-4.56,2.95-6.58
								c1.95-4.04,3.74-7.42,5.22-10.15c1.49-2.73,2.67-4.81,3.47-6.21c0.4-0.69,0.71-1.21,0.93-1.58
								C188.14,257.93,188.26,257.75,188.26,257.75s-0.09,0.19-0.29,0.55c-0.21,0.37-0.5,0.9-0.89,1.6
								c-0.78,1.41-1.93,3.51-3.4,6.25c-1.45,2.74-3.22,6.14-5.15,10.18c-0.96,2.02-1.96,4.21-2.91,6.58
								c-0.23,0.6-0.47,1.2-0.71,1.81c-0.21,0.62-0.43,1.26-0.64,1.9c-0.41,1.29-0.75,2.64-0.88,4.04l-0.01,0.13l-0.13,0.02
								c-1.33,0.23-2.49,1.38-2.66,2.84c-0.22,1.45,0.2,2.99,0.8,4.48l0.06,0.15l-0.15,0.08c-1.52,0.77-3.08,1.95-3.75,3.63
								c-0.34,0.84-0.29,1.8,0.03,2.65c0.12,0.45,0.4,0.84,0.63,1.25c0.26,0.39,0.6,0.75,0.89,1.12l0.1,0.13l-0.09,0.13
								c-0.77,1.1-0.88,2.66-0.43,4.01c0.47,1.37,1.38,2.6,2.48,3.66l0.06,0.06v0.09c0.01,13.54,0.03,28.84,0.04,45.38
								c0,8.27,0.01,16.85,0.01,25.68c0,4.41,0,8.89,0,13.42c0,2.26,0,4.54,0,6.83c0,0.58-0.01,1.13,0.1,1.66
								c0.11,0.54,0.29,1.06,0.55,1.54c0.53,0.96,1.35,1.77,2.35,2.24c1.01,0.51,2.18,0.65,3.29,0.46c1.1-0.21,2.15-0.75,2.91-1.57
								c0.77-0.81,1.28-1.86,1.42-2.96c0.11-1.12,0.16-2.31,0.24-3.46c0.3-4.62,0.59-9.2,0.88-13.7c0.61-9.01,1.21-17.77,1.79-26.21
								c1.21-16.88,2.38-32.48,3.65-46.26c0.65-6.89,1.26-13.33,2.18-19.23c0.27-1.47,0.6-2.92,0.98-4.27
								c0.33-1.37,0.58-2.74,0.75-4.08c0.35-2.68,0.53-5.24,0.6-7.66c0.16-4.84,0-9.11-0.21-12.72c-0.23-3.61-0.54-6.57-1.01-8.77
								l0,0v0c-0.4-2.03-1.12-3.58-2.1-3.92c-0.47-0.14-0.86-0.01-1.06,0.11C188.38,257.7,188.26,257.75,188.26,257.75z"/>
						</g>
					</g>
				</g>
				<g>
					<polygon class="st5" points="185.55,348.25 213.78,351.99 212.82,360.26 185.13,358.36 					"/>
				</g>
				<g>
					<polygon class="st5" points="210.34,383.42 182.18,383.92 182.09,395.05 209.51,391.68 					"/>
				</g>
				<g>
					<polygon class="st5" points="215.21,318.89 190.01,292.81 182.32,309.43 182.86,313.43 215.59,326.85 					"/>
				</g>
				<g>
					<g>
						<path class="st8" d="M191.52,293.92c-0.02,0.07-1.05-0.2-2.72-0.61c-1.67-0.41-3.99-0.93-6.57-1.35
							c-2.59-0.42-4.95-0.66-6.66-0.79c-1.71-0.14-2.78-0.2-2.78-0.28c0-0.07,1.07-0.14,2.8-0.09c1.73,0.04,4.12,0.23,6.73,0.65
							c2.61,0.42,4.93,1,6.59,1.51C190.55,293.45,191.54,293.85,191.52,293.92z"/>
					</g>
				</g>
				<g>
					<g>
						<path class="st8" d="M191.05,301.58c-0.02,0.07-1.14-0.15-2.95-0.51c-1.81-0.36-4.32-0.83-7.1-1.28
							c-2.78-0.44-5.31-0.77-7.14-0.99c-1.83-0.22-2.97-0.36-2.96-0.44c0.01-0.07,1.15-0.06,3,0.07c1.85,0.13,4.4,0.4,7.19,0.84
							c2.79,0.45,5.3,0.98,7.09,1.43C189.97,301.16,191.07,301.51,191.05,301.58z"/>
					</g>
				</g>
				<g>
					<g>
						<path class="st8" d="M189.14,308.84c-0.01,0.08-1.12-0.06-2.92-0.27c-1.79-0.21-4.27-0.47-7.01-0.67
							c-2.74-0.19-5.24-0.28-7.04-0.32c-1.8-0.05-2.92-0.07-2.93-0.14c0-0.07,1.11-0.18,2.93-0.23c1.81-0.05,4.32-0.02,7.08,0.17
							c2.76,0.2,5.24,0.52,7.03,0.82C188.06,308.51,189.15,308.77,189.14,308.84z"/>
					</g>
				</g>
				<g>
					<g>
						<path class="st8" d="M189.19,316.48c-0.01,0.08-1.04-0.05-2.69-0.25c-1.65-0.2-3.94-0.45-6.47-0.64
							c-2.53-0.18-4.83-0.26-6.5-0.3c-1.67-0.04-2.7-0.06-2.7-0.14c0-0.07,1.03-0.18,2.7-0.23c1.67-0.05,3.99-0.03,6.54,0.15
							c2.55,0.19,4.84,0.5,6.49,0.79C188.2,316.15,189.2,316.41,189.19,316.48z"/>
					</g>
				</g>
				<g>
					<g>
						<path class="st8" d="M181.96,405.38c-0.01,0-0.01-0.1-0.01-0.29c0.01-0.22,0.02-0.5,0.04-0.85c0.05-0.79,0.11-1.89,0.2-3.28
							c0.2-2.89,0.48-7,0.82-12.06c0.74-10.21,1.77-24.26,2.9-39.77c0.59-7.77,1.15-15.16,1.66-21.89c0.26-3.36,0.45-6.57,0.92-9.54
							c0.43-2.97,0.89-5.73,1.3-8.25c0.83-5.03,1.42-9.12,1.74-11.95c0.16-1.42,0.27-2.52,0.34-3.27c0.04-0.35,0.06-0.63,0.09-0.85
							c0.02-0.19,0.04-0.29,0.05-0.29c0.01,0,0.01,0.1,0.01,0.29c-0.01,0.22-0.02,0.5-0.03,0.85c-0.03,0.75-0.11,1.86-0.24,3.28
							c-0.25,2.85-0.79,6.95-1.57,11.99c-0.39,2.52-0.82,5.28-1.23,8.25c-0.46,2.96-0.62,6.16-0.87,9.53
							c-0.5,6.73-1.04,14.13-1.62,21.89c-1.19,15.51-2.27,29.55-3.05,39.76c-0.41,5.06-0.75,9.16-0.98,12.05
							c-0.12,1.39-0.22,2.49-0.29,3.27c-0.04,0.35-0.07,0.63-0.09,0.85C181.99,405.28,181.97,405.38,181.96,405.38z"/>
					</g>
				</g>
				<g>
					<g>
						<path class="st8" d="M177.08,404.49c-0.14,0-0.02-19.89,0.28-44.42c0.3-24.54,0.66-44.42,0.8-44.42
							c0.14,0,0.02,19.89-0.28,44.42C177.58,384.6,177.23,404.49,177.08,404.49z"/>
					</g>
				</g>
				<g>
					<g>
						<path class="st8" d="M173.05,405.27c-0.14,0-0.12-20.02,0.06-44.7c0.18-24.69,0.44-44.7,0.58-44.7s0.12,20.01-0.06,44.7
							C173.45,385.26,173.19,405.27,173.05,405.27z"/>
					</g>
				</g>
			</g>
			<g>
				<g>
					<path class="st10" d="M337.54,305.11c0.02,0-0.02,0.29-0.11,0.83c-0.08,0.54-0.26,1.33-0.54,2.33
						c-0.57,1.99-1.6,4.85-3.55,8.03c-0.98,1.58-2.2,3.24-3.75,4.8c-1.56,1.56-3.55,2.87-5.77,3.94c-4.45,2.17-9.91,3.18-15.57,3.22
						c-5.68,0.05-11.04-0.66-15.9-1.14c-4.86-0.52-9.23-0.98-12.93-1.38c-3.64-0.41-6.6-0.74-8.71-0.97
						c-0.99-0.12-1.78-0.22-2.37-0.29c-0.54-0.07-0.82-0.12-0.82-0.14c0-0.02,0.29-0.01,0.83,0.03c0.59,0.05,1.38,0.11,2.38,0.19
						c2.11,0.2,5.08,0.47,8.73,0.81c3.7,0.36,8.08,0.79,12.94,1.27c4.87,0.46,10.22,1.15,15.85,1.1c5.61-0.04,10.99-1.02,15.37-3.13
						c2.19-1.04,4.14-2.31,5.68-3.82c1.53-1.52,2.75-3.14,3.74-4.69c1.97-3.12,3.05-5.93,3.67-7.89c0.31-0.98,0.51-1.76,0.63-2.29
						C337.44,305.38,337.52,305.1,337.54,305.11z"/>
				</g>
			</g>
		</g>
		<g>
			<g>
				<path class="st10" d="M315.38,155.66c-2.93,11.72-7.65,30.15-9.07,35.71c-0.39,1.51-0.29,3.13,0.4,4.54
					c0.78,1.59,2.3,3.35,5.24,3.96c2.19,0.46,4.48-0.3,6.05-1.9c0.98-0.99,1.89-2.16,1.9-3.07c0.02-1.56,6.15-25.76,8.73-35.89
					c0.68-2.67-0.31-5.49-2.51-7.15l0,0C322.23,148.91,316.57,150.91,315.38,155.66z"/>
			</g>
			<g>
				<g>
					<path class="st8" d="M318.69,195.33c-0.04-0.01,0.02-0.21,0-0.56c-0.02-0.34-0.17-0.85-0.57-1.32
						c-0.78-0.98-2.64-1.4-4.54-1.85c-1.93-0.42-3.74-0.29-4.94,0.16c-1.21,0.43-1.81,1.01-1.86,0.94
						c-0.05-0.03,0.48-0.74,1.73-1.28c1.23-0.57,3.18-0.77,5.17-0.33c1,0.21,1.92,0.48,2.75,0.79c0.83,0.31,1.56,0.76,1.98,1.35
						c0.42,0.57,0.52,1.16,0.48,1.55C318.85,195.16,318.71,195.34,318.69,195.33z"/>
				</g>
			</g>
		</g>
		<g>
			<g>
				<path class="st5" d="M333.19,181.63c-0.5-2.97-1.43-4.47-1.43-4.47s0.04-2.96-1.55-5.68c-1.33-2.28-7.79-7.94-14.31-8.39
					c-3.36-0.24-6.19,2.63-5.82,5.99c0.01,0.04,0.01,0.09,0.02,0.13c0,0-5.63,0.88-5.68,4.92l-0.02,1.63c0,0-3.7,4.8,1.68,6.08
					c0,0-1.25,6.68,3.78,7.1c5.03,0.42,9.49,0.12,9.49,0.12l1.27,2.31l-0.48,2.38c0,0-1.04,4.15-3.68,5.36
					c-3.72,1.7-5.33,1.09-6.69,3.23c-2.49,3.9-0.16,7.6-0.16,7.6l2.6,4.79c0.58,3.86,1.91,5.39,1.91,5.39l15.02-6.7
					c0.8-0.35,0.97-1.41,0.33-2l-2.66-2.46c0,0,1.63-0.68,2.96-3.93l0.92-2.24c0,0,2.35-3.88,2.89-6.71
					C334.13,193.24,333.7,184.61,333.19,181.63z"/>
			</g>
			<g>
				<g>
					<path class="st8" d="M329.35,189.67c-0.11,0.05-0.43-1.54-1.97-3.5c-1.5-1.95-4.38-4.11-8.08-4.96
						c-3.71-0.84-7.21-0.41-9.65,0.04c-2.46,0.46-3.95,0.92-3.97,0.84c-0.01-0.03,0.35-0.18,1.02-0.41
						c0.67-0.23,1.65-0.51,2.88-0.79c2.44-0.55,6.02-1.05,9.84-0.19c3.83,0.88,6.79,3.17,8.26,5.24c0.75,1.04,1.19,1.98,1.42,2.65
						C329.32,189.27,329.38,189.66,329.35,189.67z"/>
				</g>
			</g>
			<g>
				<g>
					<path class="st8" d="M330.25,179.55c-0.07,0.08-1.05-1.1-3.11-2.37c-2.03-1.28-5.22-2.48-8.89-2.76
						c-3.68-0.28-7.02,0.25-9.39,0.7c-2.38,0.46-3.85,0.83-3.87,0.75c-0.01-0.03,0.35-0.17,1-0.37s1.6-0.47,2.79-0.74
						c2.37-0.54,5.75-1.14,9.51-0.86c3.76,0.29,7.02,1.58,9.05,2.97c1.02,0.69,1.77,1.35,2.24,1.85
						C330.05,179.23,330.27,179.53,330.25,179.55z"/>
				</g>
			</g>
			<g>
				<g>
					<path class="st8" d="M327.83,172.14c-0.05,0.07-0.96-0.48-2.52-1.17c-1.56-0.7-3.8-1.48-6.37-1.9
						c-2.57-0.41-4.95-0.38-6.65-0.21c-1.7,0.16-2.74,0.4-2.77,0.31c-0.01-0.04,0.24-0.12,0.71-0.26c0.46-0.14,1.15-0.29,2.01-0.42
						c1.71-0.27,4.14-0.36,6.77,0.06c2.63,0.43,4.9,1.29,6.45,2.08c0.77,0.4,1.38,0.75,1.78,1.03
						C327.64,171.94,327.85,172.11,327.83,172.14z"/>
				</g>
			</g>
			<g>
				<g>
					<path class="st8" d="M314.9,212.63c-0.03-0.15,2.64-0.84,5.89-1.85c3.25-1.01,5.84-1.95,5.9-1.81
						c0.05,0.13-2.47,1.29-5.74,2.31C317.67,212.3,314.93,212.77,314.9,212.63z"/>
				</g>
			</g>
		</g>
		<g>
			<g>
				<path class="st9" d="M313.37,138.14c5.63,3.18,17.91,10.3,17.91,10.3c1.22-0.57,23.8-78.31,28.04-92.94
					c0.44-1.51,0.13-3.14-0.83-4.38c-2.96-3.81-9.51-11.61-12.94-10.84c-4.05,0.91-28.73,77.19-33.93,93.37
					C311.07,135.38,311.8,137.25,313.37,138.14z"/>
			</g>
			<g>
				<g>
					<path class="st8" d="M333.18,142.93c-0.05,0.07-1.09-0.71-2.85-1.84c-1.76-1.12-4.27-2.55-7.22-3.71
						c-2.96-1.16-5.77-1.82-7.82-2.17c-2.05-0.35-3.35-0.46-3.34-0.55c0-0.04,0.33-0.04,0.92-0.02c0.59,0.01,1.44,0.08,2.48,0.21
						c2.09,0.26,4.96,0.88,7.96,2.05c3,1.18,5.52,2.68,7.24,3.89c0.86,0.61,1.54,1.13,1.98,1.51
						C332.97,142.68,333.21,142.91,333.18,142.93z"/>
				</g>
			</g>
			<g>
				<g>
					<path class="st8" d="M348.08,41.38c0.01,0-0.02,0.09-0.07,0.25c-0.07,0.19-0.15,0.42-0.26,0.71c-0.26,0.66-0.61,1.56-1.05,2.7
						c-0.93,2.38-2.25,5.76-3.88,9.92c-3.24,8.39-7.59,20.03-12.03,33.01c-4.44,12.99-8.14,24.85-10.71,33.47
						c-1.26,4.28-2.29,7.76-3.02,10.22c-0.35,1.18-0.62,2.1-0.82,2.78c-0.09,0.29-0.17,0.53-0.23,0.72
						c-0.05,0.16-0.09,0.24-0.1,0.24s0.01-0.09,0.04-0.25c0.05-0.2,0.11-0.44,0.18-0.73c0.18-0.68,0.42-1.62,0.73-2.8
						c0.64-2.43,1.61-5.94,2.86-10.26c2.48-8.65,6.13-20.54,10.57-33.53c4.45-12.99,8.85-24.62,12.18-32.98
						c1.67-4.18,3.05-7.55,4.03-9.86c0.48-1.13,0.86-2.02,1.14-2.66c0.12-0.28,0.23-0.51,0.31-0.69
						C348.03,41.45,348.07,41.37,348.08,41.38z"/>
				</g>
			</g>
		</g>
		<g>
			<g>
				<path class="st5" d="M288.15,174.16l5.64-4.59c0,0,1.06-5.1,2.72-8.98c0,0,0.11-6.56,6.5-10.76c1.21-2.8,3.46-4.56,6.39-5.62
					c0,0,1.69-5,7.67-5.26c9.9-0.43,17.8,5.99,19.07,8.98s-1.74,5.19-1.74,5.19l0.64,3.64c0.26,1.49-0.07,3.03-0.92,4.28l0,0
					c0,0,0.68,4.93-2.48,5.07c-3.17,0.15-3.59-2.09-3.59-2.09s-2.73,1.27-4.02,0.88c-1.3-0.39-3.15-0.97-3.15-0.97l-5.39-0.44
					l-4.06,2.8c0,0-2.05,9.29-3.76,12.06s-11.49,10.41-11.49,10.41L288.15,174.16z"/>
			</g>
			<g>
				<g>
					<path class="st8" d="M301.72,155.26c-0.01-0.04,0.41-0.17,1.18-0.39c0.77-0.21,1.91-0.45,3.33-0.65
						c2.83-0.37,6.87-0.43,11.15,0.58c2.14,0.49,4.12,1.19,5.85,1.98c1.7,0.81,3.29,1.55,4.3,2.67c0.5,0.55,0.81,1.18,0.9,1.77
						c0.1,0.59,0.02,1.11-0.12,1.49c-0.15,0.39-0.36,0.65-0.52,0.79c-0.16,0.14-0.27,0.19-0.28,0.18c-0.05-0.04,0.38-0.28,0.61-1.03
						c0.22-0.72,0.14-1.97-0.85-2.95c-0.95-1-2.53-1.7-4.22-2.48c-1.71-0.75-3.67-1.42-5.77-1.91c-4.21-0.99-8.17-0.99-10.99-0.72
						C303.45,154.88,301.74,155.35,301.72,155.26z"/>
				</g>
			</g>
			<g>
				<g>
					<path class="st8" d="M310.52,148.47c-0.01-0.03,0.39-0.15,1.13-0.29c0.74-0.14,1.82-0.26,3.16-0.27
						c2.67-0.03,6.47,0.59,10.09,2.61c3.62,2.02,6.13,4.94,7.5,7.23c0.7,1.15,1.16,2.14,1.42,2.84c0.27,0.7,0.38,1.1,0.35,1.11
						c-0.09,0.04-0.63-1.54-2.08-3.75c-1.43-2.21-3.92-5-7.45-6.97c-3.52-1.97-7.21-2.63-9.84-2.7
						C312.16,148.2,310.53,148.57,310.52,148.47z"/>
				</g>
			</g>
			<g>
				<g>
					<path class="st8" d="M314.21,143.77c0-0.04,0.32-0.09,0.9-0.15c0.29-0.04,0.65-0.05,1.08-0.05c0.42-0.01,0.9,0,1.42,0.06
						c1.06,0.07,2.3,0.3,3.66,0.63c1.35,0.36,2.81,0.86,4.28,1.51c1.47,0.68,2.81,1.43,3.97,2.21c1.14,0.8,2.14,1.59,2.87,2.35
						c0.39,0.36,0.71,0.72,0.97,1.05c0.27,0.32,0.5,0.6,0.65,0.85c0.33,0.49,0.49,0.77,0.46,0.79c-0.08,0.06-0.79-1.04-2.33-2.43
						c-0.75-0.71-1.75-1.45-2.89-2.22c-1.15-0.74-2.48-1.47-3.92-2.14c-1.45-0.64-2.88-1.14-4.19-1.53
						c-1.33-0.35-2.54-0.62-3.57-0.73C315.52,143.73,314.22,143.87,314.21,143.77z"/>
				</g>
			</g>
			<g>
				<g>
					<path class="st8" d="M313.72,163.3c0.01,0.15-2.19,0.39-4.79,1.21c-2.6,0.82-4.74,1.5-4.79,1.34c-0.04-0.12,2-1,4.64-1.84
						C311.43,163.17,313.72,163.16,313.72,163.3z"/>
				</g>
			</g>
		</g>
		<g>
			<g>
				<path class="st8" d="M309.86,188.94c0,0.02-0.21-0.01-0.62-0.06c-0.41-0.05-1.01-0.24-1.67-0.71c-1.37-0.97-2.08-3.5-1.65-6.37
					l0.12,0.19c-0.28-0.08-0.56-0.17-0.85-0.26c-0.28-0.11-0.57-0.26-0.85-0.4c-0.54-0.35-1.05-0.88-1.25-1.57
					c-0.21-0.69-0.11-1.45,0.11-2.14c0.23-0.7,0.57-1.36,1.03-1.99l-0.05,0.13c0.02-0.75-0.03-1.48,0.08-2.32
					c0.14-0.82,0.55-1.6,1.14-2.23c1.2-1.25,2.86-1.98,4.64-2.37l-0.2,0.27c-0.11-0.9,0.05-2.02,0.48-2.96
					c0.44-0.96,1.17-1.79,2.07-2.39c0.91-0.58,2-0.95,3.12-0.93c0.57-0.02,1.09,0.1,1.64,0.15c0.53,0.12,1.08,0.2,1.61,0.37
					c3.62,1.04,6.74,3.04,9.27,5.32c0.64,0.57,1.22,1.18,1.76,1.82c0.55,0.65,0.94,1.4,1.25,2.14c0.61,1.5,0.92,3.04,0.94,4.54
					l-0.03-0.12c1.38,2.66,1.59,5.38,1.77,7.7c0.17,2.34,0.23,4.38,0.23,6.06c0.01,1.68-0.05,3-0.14,3.9
					c-0.05,0.45-0.09,0.79-0.14,1.02c-0.05,0.23-0.08,0.35-0.09,0.34c-0.03-0.01,0.05-0.48,0.1-1.37c0.05-0.9,0.06-2.21,0.02-3.89
					c-0.04-1.68-0.14-3.71-0.34-6.04c-0.21-2.3-0.47-5.01-1.79-7.5l-0.03-0.06l0-0.06c-0.04-1.41-0.34-2.92-0.94-4.35
					c-0.55-1.47-1.65-2.65-2.9-3.78c-2.49-2.22-5.57-4.18-9.08-5.19c-0.51-0.16-1.04-0.24-1.56-0.35c-0.52-0.04-1.05-0.17-1.56-0.15
					c-1.02-0.02-2.01,0.32-2.84,0.85c-0.82,0.55-1.49,1.31-1.89,2.17c-0.4,0.85-0.55,1.87-0.45,2.68l0.03,0.22l-0.23,0.05
					c-1.67,0.36-3.3,1.07-4.38,2.2c-0.54,0.57-0.9,1.26-1.04,1.99c-0.11,0.72-0.06,1.52-0.09,2.25l0,0.07l-0.04,0.06
					c-0.82,1.15-1.44,2.56-1.11,3.77c0.17,0.59,0.59,1.05,1.07,1.38c0.26,0.14,0.52,0.28,0.78,0.38c0.27,0.09,0.54,0.17,0.81,0.26
					l0.15,0.05l-0.02,0.15c-0.46,2.78,0.17,5.21,1.43,6.17c0.61,0.46,1.18,0.68,1.58,0.76
					C309.65,188.88,309.86,188.93,309.86,188.94z"/>
			</g>
		</g>
		<g>
			<g>
				<path class="st9" d="M252.48,135.35c0,0,0.82-5.44-0.34-10.35c-0.13-0.55-2.25-11.95-9.96-19.56
					c-5.5-5.43-14.73-8.18-22.15-6.43s-16,6.31-19.21,14.86c-3.21,8.55-1.82,12.71-1.82,12.71s-0.51,7.3,0.03,9.21
					c0.91,3.24,5.94,10.25,5.94,10.25l2.84,2.74l40.17-6.94L252.48,135.35z"/>
			</g>
			<g>
				<g>
					<g>
						<g>
							<g>
								<g>
									<g>
										<g>
											<g>
												<g>
													<path class="st8" d="M250.29,141.2c0.2-5.38,0.37-10.79-0.35-16.12c-0.73-5.33-2.4-10.63-5.58-14.97
														c-0.48-0.66-4.21-4.93-4.98-4.63c-0.54,0.21,2.2,4.41,2.06,4.97c-1.38,5.39-0.53,11.16,1.41,16.38
														C244.8,132.04,247.28,136.52,250.29,141.2"/>
												</g>
											</g>
										</g>
									</g>
								</g>
							</g>
						</g>
					</g>
				</g>
				<g>
					<g>
						<path class="st12" d="M201.85,132.01c-3.11-12.18,3.66-24.71,15.56-28.79l1.18-0.4c13-3.63,23.34,5.39,26.61,18.49
							l11.14,41.74l-2.84,23.17l-24.62-9.85c-1.08-3.65-1.41-4.74-1.44-4.73c0,0-12.91,2.3-17.26-9.9
							C208.08,155.83,204.74,143.35,201.85,132.01z"/>
					</g>
				</g>
				<g>
					<g>
						<g>
							<g>
								<g>
									<g>
										<g>
											<g>
												<g>
													<g>
														<g>
															<path class="st13" d="M227.44,171.63c0,0,7.88-2.2,14.33-10.19c0,0-0.68,10.53-13.28,13.62L227.44,171.63z"/>
														</g>
													</g>
												</g>
											</g>
										</g>
									</g>
								</g>
							</g>
						</g>
					</g>
				</g>
				<g>
					<g>
						<g>
							<g>
								<g>
									<g>
										<g>
											<g>
												<g>
													<g>
														<g>
															<g>
																<g>
																	<g>
																		<g>
																			<g>
																				<g>
																					<path class="st8" d="M208.5,141.9c0.28,0.93,1.31,1.47,2.29,1.19c0.98-0.28,1.55-1.26,1.26-2.2
																						c-0.28-0.93-1.31-1.47-2.29-1.19C208.78,139.98,208.21,140.96,208.5,141.9z"/>
																				</g>
																			</g>
																		</g>
																	</g>
																</g>
															</g>
														</g>
													</g>
												</g>
											</g>
										</g>
									</g>
								</g>
							</g>
						</g>
					</g>
				</g>
				<g>
					<g>
						<g>
							<g>
								<g>
									<g>
										<g>
											<g>
												<g>
													<g>
														<g>
															<g>
																<g>
																	<g>
																		<g>
																			<g>
																				<g>
																					<g>
																						<path class="st8" d="M206.3,136.53c0.29,0.15,1.28-1.28,3.17-1.92c1.87-0.67,3.59-0.17,3.71-0.47
																							c0.07-0.14-0.3-0.47-1.05-0.7c-0.74-0.23-1.9-0.31-3.07,0.1c-1.17,0.41-2.01,1.18-2.42,1.82
																							C206.22,135.98,206.16,136.46,206.3,136.53z"/>
																					</g>
																				</g>
																			</g>
																		</g>
																	</g>
																</g>
															</g>
														</g>
													</g>
												</g>
											</g>
										</g>
									</g>
								</g>
							</g>
						</g>
					</g>
				</g>
				<g>
					<g>
						<g>
							<g>
								<g>
									<g>
										<g>
											<g>
												<g>
													<g>
														<g>
															<g>
																<g>
																	<g>
																		<g>
																			<g>
																				<g>
																					<path class="st8" d="M225.49,136.85c0.28,0.93,1.31,1.46,2.29,1.19c0.98-0.28,1.55-1.26,1.26-2.2
																						c-0.28-0.93-1.31-1.47-2.29-1.19C225.77,134.93,225.21,135.91,225.49,136.85z"/>
																				</g>
																			</g>
																		</g>
																	</g>
																</g>
															</g>
														</g>
													</g>
												</g>
											</g>
										</g>
									</g>
								</g>
							</g>
						</g>
					</g>
				</g>
				<g>
					<g>
						<g>
							<g>
								<g>
									<g>
										<g>
											<g>
												<g>
													<g>
														<g>
															<g>
																<g>
																	<g>
																		<g>
																			<g>
																				<g>
																					<g>
																						<path class="st8" d="M224.6,131.09c0.3,0.15,1.29-1.28,3.17-1.92c1.87-0.67,3.59-0.17,3.71-0.47
																							c0.07-0.14-0.29-0.47-1.05-0.7c-0.74-0.23-1.9-0.31-3.07,0.1c-1.17,0.41-2.01,1.18-2.43,1.82
																							C224.51,130.54,224.46,131.02,224.6,131.09z"/>
																					</g>
																				</g>
																			</g>
																		</g>
																	</g>
																</g>
															</g>
														</g>
													</g>
												</g>
											</g>
										</g>
									</g>
								</g>
							</g>
						</g>
					</g>
				</g>
				<g>
					<g>
						<g>
							<g>
								<g>
									<g>
										<g>
											<g>
												<g>
													<g>
														<g>
															<g>
																<g>
																	<g>
																		<g>
																			<g>
																				<g>
																					<path class="st8" d="M223.12,147.42c-0.03-0.11-1.27,0.09-3.25,0.5c-0.5,0.12-0.99,0.18-1.18-0.12
																						c-0.23-0.31-0.21-0.9-0.17-1.54c0.05-1.32,0.11-2.7,0.17-4.15c0.19-5.89,0.15-10.66-0.09-10.67
																						c-0.24-0.01-0.58,4.76-0.77,10.65c-0.03,1.45-0.07,2.83-0.1,4.15c0.01,0.61-0.1,1.34,0.4,1.97
																						c0.25,0.32,0.7,0.46,1.03,0.43c0.34-0.01,0.61-0.1,0.86-0.17C221.96,147.92,223.15,147.53,223.12,147.42z"/>
																				</g>
																			</g>
																		</g>
																	</g>
																</g>
															</g>
														</g>
													</g>
												</g>
											</g>
										</g>
									</g>
								</g>
							</g>
						</g>
					</g>
				</g>
				<g>
					<g>
						<g>
							<g>
								<g>
									<g>
										<g>
											<g>
												<g>
													<g>
														<g>
															<g>
																<g>
																	<path class="st8" d="M223.36,126.9c0.4,0.4,1.86-0.63,3.83-1.32c1.96-0.74,3.76-0.89,3.78-1.44
																		c0-0.26-0.49-0.58-1.33-0.74c-0.84-0.16-2.01-0.12-3.19,0.31c-1.18,0.43-2.09,1.15-2.61,1.8
																		C223.32,126.15,223.17,126.7,223.36,126.9z"/>
																</g>
															</g>
														</g>
													</g>
												</g>
											</g>
										</g>
									</g>
								</g>
							</g>
						</g>
					</g>
				</g>
				<g>
					<g>
						<g>
							<g>
								<g>
									<g>
										<g>
											<g>
												<g>
													<g>
														<g>
															<g>
																<g>
																	<path class="st8" d="M203.85,129.43c0.53,0.3,1.93-0.65,3.77-1.27c1.83-0.68,3.51-0.83,3.73-1.39
																		c0.09-0.27-0.3-0.62-1.12-0.8c-0.81-0.18-2.05-0.15-3.31,0.3c-1.26,0.45-2.24,1.2-2.74,1.85
																		C203.68,128.76,203.6,129.27,203.85,129.43z"/>
																</g>
															</g>
														</g>
													</g>
												</g>
											</g>
										</g>
									</g>
								</g>
							</g>
						</g>
					</g>
				</g>
				<g>
					<g>
						<g>
							<g>
								<g>
									<g>
										<g>
											<g>
												<g>
													<path class="st12" d="M247.3,130.72c0.18-0.16,7.56-5.38,10.17,3.09s-6.43,9.34-6.52,9.1
														C250.86,142.67,247.3,130.72,247.3,130.72z"/>
												</g>
											</g>
										</g>
									</g>
								</g>
							</g>
						</g>
					</g>
				</g>
				<g>
					<g>
						<g>
							<g>
								<g>
									<g>
										<g>
											<g>
												<g>
													<g>
														<path class="st13" d="M252.55,138.9c0.03-0.04,0.18,0.06,0.46,0.1c0.28,0.04,0.72-0.01,1.11-0.32
															c0.79-0.6,1.11-2.26,0.68-3.79c-0.21-0.78-0.6-1.46-1.06-1.99c-0.45-0.54-0.98-0.85-1.46-0.79
															c-0.48,0.03-0.72,0.4-0.75,0.67c-0.04,0.27,0.07,0.42,0.02,0.45c-0.02,0.03-0.23-0.09-0.26-0.46
															c-0.02-0.18,0.02-0.41,0.17-0.63c0.15-0.23,0.43-0.4,0.75-0.47c0.67-0.16,1.44,0.26,1.95,0.84
															c0.54,0.57,0.99,1.33,1.24,2.2c0.47,1.72,0.09,3.59-1.03,4.32c-0.55,0.34-1.1,0.31-1.42,0.19
															C252.63,139.1,252.52,138.93,252.55,138.9z"/>
													</g>
												</g>
											</g>
										</g>
									</g>
								</g>
							</g>
						</g>
					</g>
				</g>
				<g>
					<g>
						<g>
							<g>
								<g>
									<g>
										<g>
											<g>
												<g>
													<path class="st8" d="M203.15,116.31c-1.6-0.35,1.2-6.03,4.12-8.57c4.41-3.84,11.78-7.58,16.88-7.65
														c6.14-0.08,11.69,1.33,16.07,5.64c4.38,4.31,7.24,10,8.83,15.93c0.49,1.81,0.86,3.74,0.35,5.54
														c-0.63,2.23-2.55,4.09-1.68,6.65c0.32,0.93,0.33,1.97-0.11,2.85c-1.06,2.12-3.42,1.13-4.76-0.17
														c-2.86-2.77-4.25-6.68-5.55-10.44c-0.92-2.67-1.86-5.41-1.87-8.23c-0.01-1.54,0.26-3.07,0.17-4.61
														c-0.09-1.54-0.62-3.15-1.87-4.06c-0.2-0.15-0.51-0.32-0.9-0.49c-3.03-1.39-6.59-1.02-9.28,0.94
														c-4.28,3.12-11.69,8.07-14.3,7.09c-3.76-1.42-4.95-2.72-4.95-2.72L203.15,116.31z"/>
												</g>
											</g>
										</g>
									</g>
								</g>
							</g>
						</g>
					</g>
				</g>
				<g>
					<g>
						<g>
							<g>
								<g>
									<g>
										<g>
											<g>
												<g>
													<g>
														<g>
															<path class="st8" d="M229.46,146.82c-0.3,0.07,0.27,2.02-1,3.9c-1.26,1.88-3.41,2.27-3.34,2.54
																c0.01,0.13,0.57,0.24,1.46,0.01c0.87-0.22,2.05-0.87,2.82-2.01c0.77-1.15,0.88-2.41,0.71-3.23
																C229.94,147.19,229.59,146.76,229.46,146.82z"/>
														</g>
													</g>
												</g>
											</g>
										</g>
									</g>
								</g>
							</g>
						</g>
					</g>
				</g>
			</g>
			<g>
				<g>
					<path class="st8" d="M247.61,136.71c0,0,1.06,20.22-8.89,27.4l-1.3-0.41c0,0,9.13-8.96,8.55-26.47L247.61,136.71z"/>
				</g>
				<g>
					<path class="st8" d="M214.04,167.87c0,0,9.11-8.18,25.44-4.51c0,0-3.27,6.38-12.46,8.33
						C219.92,173.19,213.99,168.01,214.04,167.87z"/>
				</g>
			</g>
			<g>
				<g>
					<path class="st5" d="M220.31,172.8c-4.73,0-7.75-1.01-9.63-1.63l-0.53-0.17c-2.78-0.89-11.15-16.56-11.58-18.63
						c-0.49-2.36,1.78-12.64,2.04-13.8l0.98,0.22c-0.69,3.1-2.41,11.56-2.04,13.38c0.51,2.49,8.87,17.23,10.9,17.88l0.54,0.18
						c2.58,0.85,7.38,2.45,15.94,0.98c8.98-1.54,17.72-9.86,19.31-12.92c1.24-2.38,3.91-20.24,5.16-29.35l0.99,0.13
						c-0.15,1.08-3.63,26.55-5.26,29.68c-1.71,3.28-10.59,11.82-20.03,13.44C224.52,172.62,222.27,172.8,220.31,172.8z"/>
				</g>
				<g>
					<path class="st5" d="M199.44,152.58l-0.77-0.64c0.28-0.33,6.98-8.2,26.14-9.81c19.23-1.62,24.1,4.71,24.29,4.98l-0.8,0.59
						c-0.05-0.06-4.83-6.14-23.41-4.57C206.2,144.7,199.51,152.5,199.44,152.58z"/>
				</g>
				<g>
					<path class="st5" d="M204.47,162.84l-0.5-0.87c0.09-0.05,9.01-5.11,21.23-6.53c12.28-1.43,20.58,3.26,20.93,3.46l-0.5,0.87
						c-0.08-0.05-8.38-4.73-20.31-3.34C213.32,157.83,204.56,162.79,204.47,162.84z"/>
				</g>
				<g>
					<path class="st5" d="M231.57,169.96c-0.17-0.5-4.18-12.17-4.51-13.27c-0.34-1.13-0.95-12.67-1.02-13.98l1-0.05
						c0.26,5.1,0.74,12.98,0.97,13.74c0.33,1.08,4.46,13.11,4.5,13.24L231.57,169.96z"/>
				</g>
				<g>
					<path class="st5" d="M222.61,172.43c0,0-7.07-12.48-8.01-14.14c-0.96-1.71-3.59-12.48-3.7-12.94l0.97-0.24
						c0.75,3.08,2.86,11.37,3.6,12.68c0.94,1.66,8.01,14.14,8.01,14.14L222.61,172.43z"/>
				</g>
				<g>
					<path class="st5" d="M214.65,172.11c-0.25-0.37-6.16-9.08-7.42-11.11c-0.48-0.77-5.41-10.63-5.62-11.05l0.9-0.45
						c1.77,3.54,5.22,10.39,5.58,10.98c1.25,2.02,7.34,10.99,7.4,11.08L214.65,172.11z"/>
				</g>
				<g>
					<path class="st5" d="M240.14,165.55l-0.99-0.09c0.02-0.24,0.56-5.89,1.19-8.36c0.61-2.39,1.5-12.69,1.51-12.8
						c0.15-1.77,0.49-5.93,0.55-6.19l0.98,0.22l-0.49-0.11l0.49,0.1c-0.05,0.27-0.35,3.87-0.53,6.07
						c-0.04,0.43-0.9,10.49-1.53,12.96C240.7,159.74,240.15,165.49,240.14,165.55z"/>
				</g>
			</g>
			<g>
				<g>
					<path class="st9" d="M220.37,97.57l9.12,0.54c0.3,0.02,0.59,0.09,0.86,0.22c2.04,0.94,9.83,1.87,12.87,6.96
						c2.16,3.62,5.57,8.94,6.94,13.2c0.6,1.88-1.18,3.67-3.04,3.02c-2.39-0.84-5.61-1.6-8.94-1.28
						c-11.73,1.11-27.76,3.66-34.72,5.17c-1.64,0.36-3.3-0.23-3.05-1.89c0.57-3.71,1.48-9.31,2.01-11.12
						c0.72-2.46,5.79-7.89,7.01-9.17c0.17-0.18,0.37-0.33,0.59-0.45l9.06-4.91C219.48,97.64,219.92,97.54,220.37,97.57z"/>
				</g>
				<g>
					<path class="st9" d="M205.79,117.51c4.84-1.38,16.13-2.33,21.77-1.53c5.64,0.8,10.72,4.05,10.72,4.05l-38.17,6.58l-7.67,1.78
						C195.46,123.52,200.95,118.89,205.79,117.51z"/>
				</g>
				<g>
					<g>
						<path class="st8" d="M198.89,121.17c-0.02-0.03,0.48-0.33,1.39-0.84c0.91-0.51,2.26-1.19,3.97-1.95
							c1.72-0.74,3.81-1.53,6.21-2.14c2.41-0.6,5.13-0.97,7.99-0.97c5.71-0.1,10.88,0.71,14.46,1.83c1.79,0.57,3.17,1.22,4.08,1.73
							c0.46,0.25,0.8,0.47,1.03,0.63c0.23,0.16,0.34,0.25,0.33,0.26c-0.02,0.04-0.52-0.26-1.45-0.71c-0.93-0.45-2.32-1.04-4.09-1.56
							c-3.55-1.01-8.68-1.76-14.34-1.66c-2.83,0-5.5,0.35-7.88,0.91c-2.38,0.57-4.46,1.32-6.19,2.01c-1.71,0.71-3.08,1.34-4.02,1.79
							C199.43,120.96,198.91,121.2,198.89,121.17z"/>
					</g>
				</g>
				<g>
					<path class="st9" d="M250.84,123.45l0.51,5.53l-4.31,1.91c0,0,0.05,6.24-2.31,7.12c-2.36,0.88-4.59-0.94-4.59-0.94l-0.74-17.23
						c0,0,7.67-2.19,7.63-1.89C246.99,118.25,250.84,123.45,250.84,123.45z"/>
				</g>
				<g>
					<g>
						<path class="st8" d="M215.13,111.64c-0.13-0.01,0.06-3.01,0.98-6.58c0.9-3.58,2.17-6.3,2.29-6.25
							c0.14,0.06-0.89,2.84-1.78,6.38C215.71,108.72,215.29,111.65,215.13,111.64z"/>
					</g>
				</g>
				<g>
					<g>
						<path class="st8" d="M200.22,116.99c-0.06-0.04,0.36-0.87,1.11-2.17s1.84-3.07,3.12-4.98c1.27-1.91,2.49-3.6,3.4-4.79
							s1.52-1.9,1.58-1.86c0.06,0.04-0.44,0.83-1.28,2.08c-0.94,1.41-2.05,3.05-3.27,4.87c-1.21,1.82-2.3,3.48-3.24,4.89
							C200.81,116.27,200.28,117.03,200.22,116.99z"/>
					</g>
				</g>
				<g>
					<g>
						<path class="st8" d="M238.39,109.41c-0.15,0.07-1.41-2.72-3.6-5.77c-2.17-3.06-4.4-5.16-4.29-5.28
							c0.04-0.05,0.66,0.42,1.56,1.28c0.9,0.86,2.05,2.15,3.16,3.7c1.1,1.55,1.95,3.06,2.47,4.19
							C238.21,108.65,238.46,109.38,238.39,109.41z"/>
					</g>
				</g>
				<g>
					<g>
						<path class="st8" d="M252.68,128.76c-0.15,0.14-2.03-3.22-5.89-5.65c-3.86-2.43-7.71-2.66-7.65-2.86
							c0.01-0.06,0.94-0.05,2.43,0.24c1.48,0.29,3.51,0.94,5.49,2.18c1.97,1.25,3.44,2.8,4.35,4
							C252.32,127.88,252.73,128.73,252.68,128.76z"/>
					</g>
				</g>
			</g>
		</g>
	</g>
</g>
<g id="Lines">
	<g>
		<g>
			<g>
				<path class="st8" d="M319.67,222.25c0,0-0.18,0.1-0.54,0.28c-0.38,0.18-0.92,0.44-1.61,0.77c-1.44,0.68-3.54,1.66-6.23,2.93
					c-5.51,2.32-13.47,5.75-23.7,8.91c-10.19,3.23-22.55,6.42-36.51,8.76c-0.87,0.15-1.75,0.31-2.63,0.46
					c-0.89,0.13-1.78,0.25-2.67,0.38c-1.79,0.25-3.61,0.5-5.44,0.76c-3.67,0.5-7.44,0.81-11.26,1.24
					c-7.67,0.58-15.63,1.08-23.79,1.04c-16.32,0.03-31.89-1.2-45.82-3.71c-6.95-1.29-13.51-2.96-19.38-5.24
					c-5.89-2.24-11.09-5.11-15.27-8.49c-2.05-1.74-3.82-3.6-5.3-5.51c-1.43-1.95-2.58-3.94-3.42-5.9
					c-1.63-3.96-1.91-7.77-1.39-10.72c0.5-2.99,1.74-5.03,2.53-6.38c0.47-0.62,0.83-1.09,1.09-1.42c0.25-0.32,0.39-0.47,0.39-0.47
					s-0.11,0.18-0.34,0.51c-0.25,0.34-0.59,0.82-1.04,1.45c-0.76,1.36-1.96,3.4-2.42,6.36c-0.48,2.92-0.18,6.68,1.46,10.58
					c0.84,1.94,1.99,3.89,3.41,5.82c1.48,1.88,3.23,3.72,5.27,5.43c4.15,3.33,9.33,6.16,15.19,8.37c5.85,2.25,12.38,3.89,19.32,5.17
					c13.9,2.47,29.44,3.68,45.73,3.66c8.15,0.03,16.09-0.46,23.75-1.03c3.82-0.42,7.58-0.73,11.24-1.22
					c1.83-0.25,3.64-0.5,5.43-0.75c0.9-0.12,1.79-0.25,2.67-0.37c0.88-0.15,1.76-0.3,2.62-0.46c13.93-2.31,26.28-5.46,36.47-8.64
					c10.22-3.12,18.2-6.49,23.73-8.75c2.71-1.23,4.82-2.18,6.27-2.84c0.71-0.32,1.25-0.56,1.64-0.73
					C319.48,222.32,319.67,222.25,319.67,222.25z"/>
			</g>
		</g>
		<g>
			<g>
				<path class="st8" d="M175.65,253.29c0,0.02-0.23,0.02-0.68,0.02c-0.5-0.01-1.15-0.02-1.95-0.04c-1.69-0.03-4.14-0.16-7.15-0.39
					c-6.03-0.48-14.35-1.51-23.35-3.58c-4.5-1.04-8.74-2.21-12.56-3.41c-3.8-1.24-7.21-2.44-10-3.59c-1.41-0.55-2.66-1.1-3.76-1.58
					c-1.11-0.47-2.05-0.9-2.81-1.27c-0.72-0.35-1.3-0.63-1.75-0.85c-0.4-0.2-0.6-0.31-0.6-0.33c0.01-0.02,0.23,0.07,0.64,0.23
					c0.46,0.2,1.05,0.45,1.79,0.76c0.77,0.35,1.72,0.75,2.84,1.19c1.11,0.46,2.37,0.98,3.79,1.5c2.81,1.11,6.21,2.26,10.01,3.48
					c3.81,1.17,8.05,2.33,12.53,3.36c8.98,2.06,17.26,3.15,23.27,3.72c3.01,0.28,5.44,0.46,7.13,0.56c0.8,0.05,1.44,0.1,1.94,0.13
					C175.42,253.24,175.65,253.27,175.65,253.29z"/>
			</g>
		</g>
	</g>
</g>
</svg>
