<?xml version="1.0" encoding="UTF-8"?>
<svg id="Layer_1" data-name="Layer 1" xmlns="http://www.w3.org/2000/svg" viewBox="0 0 128 128">
  <defs>
    <style>
      .cls-1 {
        fill: none;
      }

      .cls-1, .cls-2 {
        stroke-width: 2.82px;
      }

      .cls-1, .cls-2, .cls-3, .cls-4 {
        stroke: #0ea293;
        stroke-miterlimit: 10;
      }

      .cls-2, .cls-3, .cls-4, .cls-5 {
        fill: #f4f2de;
      }

      .cls-6, .cls-7 {
        fill: blue;
      }

      .cls-3 {
        stroke-width: 2.95px;
      }

      .cls-4 {
        stroke-width: 2.9px;
      }

      .cls-7 {
        font-family: ArialRoundedMTBold, 'Arial Rounded MT Bold';
        font-size: 14.39px;
      }
    </style>
  </defs>
  <rect class="cls-5" width="128" height="128"/>
  <g>
    <rect class="cls-1" x="1.73" y="22.92" width="114.27" height="78.44" rx="11.57" ry="11.57"/>
    <ellipse class="cls-5" cx="36.76" cy="22.08" rx="27.98" ry="20.08"/>
    <line class="cls-1" x1="1.73" y1="84.07" x2="116" y2="84.07"/>
    <rect class="cls-4" x="14.99" y="3.52" width="18.34" height="79.79"/>
    <polygon class="cls-3" points="58.72 28.23 58.72 83.31 43.49 83.31 43.49 28.23 51.1 10.08 58.72 28.23"/>
    <rect class="cls-1" x="76.78" y="31.38" width="33.86" height="17.21"/>
    <rect class="cls-1" x="76.78" y="54.8" width="12.27" height="9.31"/>
    <rect class="cls-1" x="95.82" y="54.8" width="14.82" height="9.31"/>
    <line class="cls-1" x1="75.08" y1="70.18" x2="100.76" y2="70.46"/>
    <line class="cls-1" x1="75.02" y1="75.54" x2="100.7" y2="75.82"/>
    <rect class="cls-6" x="99.42" y="90.88" width="4.46" height="4.46"/>
    <rect class="cls-1" x="43.77" y="101.36" width="30.19" height="14.67"/>
    <path class="cls-1" d="m40.81,116.03h36.12c2.96,0,5.36,2.4,5.36,5.36v5.25h-46.84v-5.25c0-2.96,2.4-5.36,5.36-5.36Z"/>
    <line class="cls-1" x1="44.1" y1="69.77" x2="58.44" y2="69.77"/>
    <line class="cls-1" x1="16.05" y1="74.82" x2="27.11" y2="74.82"/>
    <line class="cls-1" x1="16.05" y1="67.85" x2="21.58" y2="67.85"/>
    <line class="cls-1" x1="16.05" y1="61.47" x2="27.11" y2="61.47"/>
    <line class="cls-1" x1="16.05" y1="54.5" x2="21.58" y2="54.5"/>
    <line class="cls-1" x1="16.05" y1="47.53" x2="27.11" y2="47.53"/>
    <line class="cls-1" x1="16.05" y1="40.56" x2="21.58" y2="40.56"/>
    <line class="cls-1" x1="16.05" y1="34.19" x2="27.11" y2="34.19"/>
    <line class="cls-1" x1="16.05" y1="27.22" x2="21.58" y2="27.22"/>
    <line class="cls-1" x1="16.05" y1="20.24" x2="27.11" y2="20.24"/>
    <line class="cls-1" x1="16.05" y1="13.27" x2="21.58" y2="13.27"/>
    <line class="cls-1" x1="51.1" y1="37.17" x2="58.72" y2="31.38"/>
    <line class="cls-1" x1="43.49" y1="31.38" x2="52.6" y2="37.27"/>
    <line class="cls-1" x1="103.87" y1="70.32" x2="110.64" y2="70.32"/>
    <line class="cls-1" x1="103.87" y1="75.68" x2="110.64" y2="75.68"/>
    <ellipse class="cls-2" cx="67.75" cy="40.39" rx="3.68" ry="8.2"/>
    <line class="cls-1" x1="63.41" y1="76.31" x2="67.01" y2="54.25"/>
    <line class="cls-1" x1="67.84" y1="76.5" x2="71.5" y2="54.06"/>
    <text class="cls-7" transform="translate(80.45 44.86)"><tspan x="0" y="0">&lt; /&gt;</tspan></text>
    <polygon class="cls-6" points="51.27 58.19 48.2 60.7 49.37 64.76 53.17 64.76 54.34 60.7 51.27 58.19"/>
    <polygon class="cls-6" points="51.27 43.1 48.2 45.61 49.37 49.67 53.17 49.67 54.34 45.61 51.27 43.1"/>
  </g>
</svg>