<?xml version="1.0" encoding="UTF-8"?>
<svg id="Layer_1" data-name="Layer 1" xmlns="http://www.w3.org/2000/svg" viewBox="0 0 256 256">
  <defs>
    <style>
      .cls-1 {
        letter-spacing: .2em;
      }

      .cls-2 {
        letter-spacing: .2em;
      }

      .cls-2, .cls-3, .cls-4, .cls-5, .cls-6, .cls-7, .cls-8, .cls-9 {
        fill: #0ea293;
      }

      .cls-2, .cls-3, .cls-5, .cls-6, .cls-7, .cls-8, .cls-9 {
        font-weight: 700;
      }

      .cls-2, .cls-3, .cls-5, .cls-6, .cls-8, .cls-9 {
        font-family: Rockwell-ExtraBold, 'Rockwell Extra Bold';
        font-size: 10.73px;
      }

      .cls-3 {
        letter-spacing: .2em;
      }

      .cls-10 {
        letter-spacing: .08em;
      }

      .cls-5 {
        letter-spacing: .2em;
      }

      .cls-11 {
        fill: #f4f2de;
      }

      .cls-6 {
        letter-spacing: .2em;
      }

      .cls-7 {
        font-family: PalatinoLinotype-Bold, 'Palatino Linotype';
        font-size: 34.32px;
        letter-spacing: .1em;
      }

      .cls-9 {
        letter-spacing: .2em;
      }
    </style>
  </defs>
  <rect class="cls-11" width="256" height="256"/>
  <g>
    <g>
      <text class="cls-7" transform="translate(11.02 234.9) rotate(.11)"><tspan x="0" y="0">DESIGNER</tspan></text>
      <text class="cls-6" transform="translate(35.75 254.46) rotate(.11)"><tspan x="0" y="0">I</tspan></text>
      <text class="cls-2" transform="translate(42.81 254.47) rotate(.11) scale(.7)"><tspan x="0" y="0">DEAS</tspan></text>
      <text class="cls-6" transform="translate(71.41 254.53) rotate(.11)"><tspan x="0" y="0" xml:space="preserve"> F</tspan></text>
      <text class="cls-5" transform="translate(85.97 254.56) rotate(.11) scale(.7)"><tspan x="0" y="0">OR</tspan></text>
      <text class="cls-8" transform="translate(101.88 254.59) rotate(.11)"><tspan class="cls-10" x="0" y="0"> </tspan><tspan class="cls-1" x="3.49" y="0">Y</tspan></text>
      <text class="cls-9" transform="translate(115.33 254.62) rotate(.11) scale(.7)"><tspan x="0" y="0">OUR</tspan></text>
      <text class="cls-3" transform="translate(138.22 254.66) rotate(.11)"><tspan x="0" y="0" xml:space="preserve"> B</tspan></text>
      <text class="cls-9" transform="translate(154.35 254.69) rotate(.11) scale(.7)"><tspan x="0" y="0">USINESS</tspan></text>
    </g>
    <g>
      <path class="cls-4" d="m117.6,30.86c-46.62,0-84.42,37.79-84.42,84.41s37.79,84.41,84.42,84.41,84.41-37.79,84.41-84.41S164.22,30.86,117.6,30.86Zm24,158.51l11.03-31.97-27.74-10.78-11.25,23.66-7.81-21.19-28.6,8.23,7.21,29.26c-27.17-12.26-46.09-39.57-46.09-71.31,0-43.2,35.02-78.21,78.21-78.21s78.21,35.02,78.21,78.21c0,34.44-22.27,63.65-53.18,74.1Z"/>
      <path class="cls-4" d="m173.42,107.96c-2.58-20.6,4.51-38.83,4.51-38.83l-4.5-1.75-14.73,37.91c4.22,2.33,5.54,6.29,4.13,9.91-1.57,4.05-5.27,6.39-9.31,4.82-4.05-1.57-5.92-6.08-4.34-10.13,1.34-3.44,5.62-5.08,8.6-4.84l14.78-38.02-1.89-.73s-8.92,17.52-24.74,30.97c-7.22,6.14-15.29,8.55-19.69,9.66,7.41,6.1,9.74,18.77,5.06,30.81-.74,1.9-1.67,3.82-2.66,5.48l12.44,4.83,1.51.59,12.56,4.88c.4-1.9.97-3.86,1.71-5.76,4.68-12.04,14.92-19.73,24.51-19.23-2.49-3.79-6.75-11.18-7.93-20.58Z"/>
      <path class="cls-4" d="m70.99,65.12s-7.31-4.62-8.56-3.11c-3.93,4.78,7.51,6.49,3.07,26.77-2.03,9.25-11.29,16.8-6.94,32.16,2.62,9.24,15.23,14.16,18.8,26.57.56,1.96.96,3.97,1.18,5.89l12.95-3.73,1.56-.45,12.82-3.69c-.83-1.75-1.59-3.74-2.15-5.7-3.57-12.41,3.45-20.26,3.3-30.89-.32-22.29-36.04-43.82-36.04-43.82Zm-1.16,61.78c-3.32-4.9-2.12-8.99-1.98-14.4.19-7.37.19-9.89.19-9.89,0,0,3.74,3.13,5.42,21.1.7,7.45,7.7,14.22,7.7,14.22,0,0-8-6.14-11.32-11.04Zm10.49-1.87c-3.25-6.8-1.96-11.93-1.71-18.9.33-9.52.39-12.78.39-12.78,0,0,3.71,4.57,5.05,28.06.56,9.74,7.49,19.47,7.49,19.47,0,0-7.95-9.05-11.2-15.85Zm17,.57c-.53,3.92-3.03,10.31-3.03,10.31,0,0-.6-.94-.39-5.01.21-4.07.07-8.78-.48-16.41-.55-7.63-3.42-11.12-3.98-11.59,0,0,3.77.87,6.16,8.28,1.53,4.75,2.26,10.5,1.73,14.42Z"/>
      <path class="cls-4" d="m160.64,86.61c-.85,0-1.7-.36-2.3-1.06-11.65-13.76-26.21-21.33-41.01-21.33h-.09c-13.32.03-25.7,6.05-34.85,16.95-1.07,1.27-2.97,1.44-4.24.37-1.27-1.07-1.44-2.97-.37-4.24,10.31-12.28,24.32-19.07,39.45-19.1h.11c16.59,0,32.78,8.33,45.6,23.46,1.07,1.27.92,3.17-.35,4.24-.56.48-1.26.71-1.94.71Z"/>
      <path class="cls-4" d="m151.2,99.97c-.85,0-1.7-.36-2.3-1.06-8.69-10.26-19.52-15.9-30.51-15.9h-.07c-9.87.02-19.05,4.49-25.85,12.58-1.07,1.27-2.97,1.44-4.24.37-1.27-1.07-1.44-2.97-.37-4.24,7.96-9.48,18.77-14.71,30.45-14.73h.08c12.79,0,25.25,6.4,35.1,18.03,1.07,1.27.92,3.17-.35,4.24-.57.48-1.26.71-1.94.71Z"/>
      <path class="cls-4" d="m182.84,189.75c-.82,0-1.63-.33-2.22-.98-1.12-1.23-1.03-3.13.19-4.25,38.18-34.85,40.89-94.27,6.04-132.45C151.99,13.88,92.58,11.18,54.39,46.03c-38.18,34.85-40.89,94.27-6.04,132.45,1.12,1.23,1.03,3.13-.19,4.25-1.23,1.12-3.13,1.04-4.25-.19C6.82,141.91,9.7,78.67,50.34,41.59,90.97,4.5,154.2,7.38,191.29,48.01c37.09,40.63,34.2,103.87-6.43,140.95-.58.53-1.3.79-2.03.79Z"/>
      <path class="cls-4" d="m193.97,203.3c-.82,0-1.63-.33-2.22-.98-1.12-1.23-1.03-3.13.19-4.25,44.76-40.86,47.94-110.52,7.08-155.29C158.16-1.99,88.5-5.16,43.73,35.7-1.03,76.56-4.21,146.22,36.65,190.99c1.12,1.23,1.03,3.13-.19,4.25-1.23,1.12-3.13,1.03-4.25-.19C-10.89,147.83-7.54,74.35,39.68,31.26c47.22-43.1,120.69-39.75,163.79,7.47,43.1,47.22,39.75,120.69-7.47,163.79-.58.53-1.3.79-2.03.79Z"/>
    </g>
  </g>
</svg>