<?xml version="1.0" encoding="UTF-8"?>
<svg xmlns="http://www.w3.org/2000/svg" xmlns:xlink="http://www.w3.org/1999/xlink" viewBox="0 0 256 256">
  <defs>
    <style>
      .cls-1 {
        fill: #009245;
      }

      .cls-2 {
        fill: url(#linear-gradient-2);
      }

      .cls-3 {
        fill: #b9e9fc;
      }

      .cls-4 {
        fill: url(#linear-gradient-14);
      }

      .cls-5 {
        fill: url(#linear-gradient-6);
      }

      .cls-6 {
        isolation: isolate;
      }

      .cls-7 {
        stroke: #000;
        stroke-miterlimit: 10;
        stroke-width: 4px;
      }

      .cls-7, .cls-8 {
        mix-blend-mode: soft-light;
      }

      .cls-7, .cls-8, .cls-9 {
        fill: #fff;
      }

      .cls-10 {
        fill: url(#linear-gradient-11);
      }

      .cls-11 {
        fill: #0ea293;
      }

      .cls-12 {
        fill: blue;
      }

      .cls-13 {
        fill: #0d039c;
      }

      .cls-14 {
        fill: url(#linear-gradient-10);
      }

      .cls-15 {
        fill: #91b3fa;
      }

      .cls-9 {
        opacity: .7;
      }

      .cls-16 {
        fill: #3fa9f5;
      }

      .cls-17 {
        opacity: .3;
      }

      .cls-18 {
        fill: #7d97f4;
      }

      .cls-19 {
        fill: #22b573;
      }

      .cls-20 {
        fill: url(#linear-gradient-5);
      }

      .cls-21 {
        clip-path: url(#clippath);
      }

      .cls-22 {
        fill: #f4f2de;
      }

      .cls-23 {
        fill: none;
      }

      .cls-24 {
        fill: url(#linear-gradient-7);
      }

      .cls-25 {
        fill: url(#linear-gradient-9);
      }

      .cls-26 {
        fill: url(#linear-gradient-3);
      }

      .cls-27 {
        fill: url(#linear-gradient);
      }

      .cls-28 {
        fill: #bdd0fb;
      }

      .cls-29 {
        fill: url(#linear-gradient-4);
      }

      .cls-30 {
        fill: url(#linear-gradient-8);
      }

      .cls-31 {
        fill: url(#linear-gradient-12);
      }

      .cls-32 {
        fill: url(#linear-gradient-13);
      }
    </style>
    <clipPath id="clippath">
      <path class="cls-23" d="m195.26,151.98c-1.42-.82-5.03-4.51-10.2-15.2-4.99-10.33-9.97-24.14-14.03-38.88-4.05-14.74-6.83-29.16-7.81-40.59-1.02-11.83.2-16.85,1-18.28,1.42.82,5.03,4.51,10.2,15.2,4.99,10.33,24.68,20.1,28.73,34.84,4.05,14.74-7.88,33.2-6.89,44.63,1.02,11.83-.2,16.85-1,18.28Z"/>
    </clipPath>
    <linearGradient id="linear-gradient" x1="54.66" y1="147.26" x2="-4.75" y2="371.47" gradientUnits="userSpaceOnUse">
      <stop offset="0" stop-color="#cb236d"/>
      <stop offset="1" stop-color="#4c246d"/>
    </linearGradient>
    <linearGradient id="linear-gradient-2" x1="124.41" y1="156.78" x2="116" y2="165.56" gradientUnits="userSpaceOnUse">
      <stop offset="0" stop-color="#febbba"/>
      <stop offset="1" stop-color="#ff928e"/>
    </linearGradient>
    <linearGradient id="linear-gradient-3" x1="125.24" y1="163.89" x2="68.21" y2="192.26" xlink:href="#linear-gradient-2"/>
    <linearGradient id="linear-gradient-4" x1="125.52" y1="163.56" x2="68.48" y2="191.93" xlink:href="#linear-gradient-2"/>
    <linearGradient id="linear-gradient-5" x1="51.59" y1="172.75" x2="59.17" y2="152.06" xlink:href="#linear-gradient-2"/>
    <linearGradient id="linear-gradient-6" x1="88.19" y1="199.53" x2="61.76" y2="218.97" xlink:href="#linear-gradient-2"/>
    <linearGradient id="linear-gradient-7" x1="68.43" y1="143.34" x2="46.21" y2="160.34" xlink:href="#linear-gradient-2"/>
    <linearGradient id="linear-gradient-8" x1="65.67" y1="139.74" x2="43.45" y2="156.74" xlink:href="#linear-gradient-2"/>
    <linearGradient id="linear-gradient-9" x1="102.68" y1="198.72" x2="139.04" y2="198.72" xlink:href="#linear-gradient-2"/>
    <linearGradient id="linear-gradient-10" x1="184.02" y1="162.36" x2="178.2" y2="144.87" xlink:href="#linear-gradient-2"/>
    <linearGradient id="linear-gradient-11" x1="219.42" y1="213.3" x2="200.47" y2="249.73" xlink:href="#linear-gradient-2"/>
    <linearGradient id="linear-gradient-12" x1="2393.61" y1="3446.14" x2="2372.66" y2="3473.86" gradientTransform="translate(4329.16 -481.96) rotate(-133.27) scale(1 -1)" xlink:href="#linear-gradient-2"/>
    <linearGradient id="linear-gradient-13" x1="2377.61" y1="3452.8" x2="2402.64" y2="3452.8" gradientTransform="translate(4329.16 -481.96) rotate(-133.27) scale(1 -1)" gradientUnits="userSpaceOnUse">
      <stop offset="0" stop-color="#09005d"/>
      <stop offset="1" stop-color="#1a0f91"/>
    </linearGradient>
    <linearGradient id="linear-gradient-14" x1="2362.93" y1="3468.09" x2="2379.73" y2="3450.85" gradientTransform="translate(4329.16 -481.96) rotate(-133.27) scale(1 -1)" xlink:href="#linear-gradient-2"/>
  </defs>
  <g class="cls-6">
    <g id="Layer_1" data-name="Layer 1">
      <rect class="cls-22" width="256" height="256"/>
      <g>
        <path class="cls-16" d="m216.37,214.12c-4.73,4.98-9.22,8.2-12.75,10.74-41.61,29.85-90.84,21.15-101.31,19.03-15.45-3.14-45.32-9.2-66.91-34.6C2.73,170.87,7.82,110.34,33.16,70.39c4.64-7.31,29.12-47.87,78.88-54.38,30.12-3.94,65.22,4,90.65,25.3,53.37,44.71,49.57,135.03,13.68,172.81Z"/>
        <g>
          <path class="cls-1" d="m17.49,21.13c-.26-1.1,1.29-1.84,2.25-1.07,9.66,7.84,32.88,31.3,27.09,72.31-7.26,51.45,5.15,70.22,20.6,81.67,0,0-21.22-5.39-34.57-24.43C.09,102.84,22.11,40.77,17.49,21.13Z"/>
          <path class="cls-8" d="m24.85,37.2c1.21,5.73,2.29,11.47,3.12,17.24.87,5.77,1.53,11.55,1.99,17.35.43,5.8.73,11.6.75,17.4.05,5.8-.19,11.61-.46,17.43-.23,5.82-.5,11.68-.07,17.59.42,5.89,1.66,11.84,4.12,17.41.62,1.39,1.26,2.77,2,4.11.71,1.35,1.48,2.67,2.29,3.98,1.62,2.62,3.45,5.14,5.48,7.54,4.08,4.79,9.01,9.04,14.43,12.63.57.38,1.39.29,1.83-.21.43-.48.33-1.17-.21-1.56h0c-1.29-.91-2.57-1.83-3.79-2.79-.62-.47-1.22-.97-1.82-1.46-.58-.51-1.19-.99-1.76-1.51-2.3-2.05-4.44-4.24-6.37-6.55-3.89-4.6-7.01-9.74-9.37-15.05-1.15-2.67-2.06-5.41-2.73-8.2-.67-2.79-1.09-5.63-1.32-8.5-.46-5.73-.25-11.54-.08-17.36.17-5.82.3-11.68.14-17.52-.07-2.92-.2-5.85-.39-8.77-.08-1.46-.2-2.92-.32-4.38-.13-1.46-.27-2.91-.42-4.37-.63-5.82-1.46-11.62-2.5-17.39-1.08-5.77-2.33-11.5-3.83-17.19-.04-.16-.23-.26-.42-.23-.18.04-.3.19-.27.35Z"/>
        </g>
        <g>
          <path class="cls-19" d="m42.52,144.28c-1.18,1.26-3.27.9-3.98-.68-3.93-8.68-12.83-34.24,1.87-63.68,12.41-24.86,16.78-39.52,18.3-46.31.32-1.44,2.29-1.63,2.88-.28,6.55,14.86,23.86,65.39-19.07,110.95Z"/>
          <path class="cls-7" d="m40.37,143.36s-.09.01-.13.01c-.37,0-.67-.31-.66-.68,0-.42.83-42.62,16.52-77.97.15-.34.55-.49.89-.34.34.15.49.55.34.89-15.58,35.09-16.4,77.02-16.41,77.44,0,.33-.24.6-.55.65Z"/>
        </g>
        <g>
          <path class="cls-13" d="m32.96,160.92s34.68,47.5,44.06,56.79c10.89,10.78,30.19-3.3,26.17-13.72-4.02-10.42-41.35-47.8-41.35-47.8l-28.88,4.74Z"/>
          <polygon class="cls-3" points="49.52 114.83 162.58 37.16 193.49 154.78 58.63 161.34 49.52 114.83"/>
          <ellipse class="cls-18" cx="178.91" cy="96.09" rx="12.73" ry="62.49" transform="translate(-19.07 50.84) rotate(-15.37)"/>
          <path class="cls-3" d="m195.26,151.98c-1.42-.82-5.03-4.51-10.2-15.2-4.99-10.33-9.97-24.14-14.03-38.88-4.05-14.74-6.83-29.16-7.81-40.59-1.02-11.83.2-16.85,1-18.28,1.42.82,5.03,4.51,10.2,15.2,4.99,10.33,9.97,24.14,14.03,38.88,4.05,14.74,6.83,29.16,7.81,40.59,1.02,11.83-.2,16.85-1,18.28Z"/>
          <g class="cls-21">
            <path class="cls-13" d="m195.36,90.72c2.81,10.24-.42,20.05-11.34,23.05-10.92,3-22.05-2.87-24.86-13.11-2.81-10.24,3.76-20.97,14.67-23.97,10.92-3,18.71,3.78,21.53,14.02Z"/>
          </g>
          <path class="cls-13" d="m28.67,117.85c5.69-2.3,14.05-4.86,23.74-5.28,1.31,16.51,6.25,32.74,14.38,48.71l-25.71,7.06c-4.1,1.13-8.41-.89-10.16-4.76-3.51-7.76-8.83-20.97-10.17-32.39-.67-5.73,2.57-11.19,7.92-13.35Z"/>
          <path class="cls-18" d="m47.4,125.62l-20.03,5.5c-.68.19-1.38,0-1.87-.51-.49-.51-.65-1.21-.44-1.88.09-.28.39-.44.67-.35.28.09.44.39.35.67-.09.29-.02.6.19.82.21.22.52.3.81.22l20.03-5.5c.44-.12.7-.58.58-1.02l-.39-1.43c-.12-.44-.58-.7-1.02-.58l-20.18,5.55c-.28.08-.58-.09-.66-.37-.08-.28.09-.58.37-.66l20.18-5.55c1.01-.28,2.05.32,2.33,1.32l.39,1.43c.28,1.01-.32,2.05-1.32,2.33Z"/>
          <path class="cls-18" d="m48.05,134.98l-20.03,5.5c-.68.19-1.38,0-1.87-.51-.49-.51-.65-1.21-.44-1.88.09-.28.39-.44.67-.35.28.09.44.39.35.67-.09.29-.02.6.19.82.21.22.52.3.81.22l20.03-5.5c.44-.12.7-.58.58-1.02l-.39-1.43c-.12-.44-.58-.7-1.02-.58l-20.18,5.55c-.28.08-.58-.09-.66-.37-.08-.28.09-.58.37-.66l20.18-5.55c1.01-.28,2.05.32,2.33,1.32l.39,1.43c.28,1.01-.32,2.05-1.32,2.33Z"/>
          <path class="cls-18" d="m52.69,144.88l-20.03,5.5c-.68.19-1.38,0-1.87-.51-.49-.51-.65-1.21-.44-1.88.09-.28.39-.44.67-.35.28.09.44.39.35.67-.09.29-.02.6.19.82.21.22.52.31.81.22l20.03-5.5c.44-.12.7-.58.58-1.02l-.39-1.43c-.12-.44-.58-.7-1.02-.58l-20.18,5.55c-.28.08-.58-.09-.66-.37-.08-.28.09-.58.37-.66l20.18-5.55c1.01-.28,2.05.32,2.33,1.32l.39,1.43c.28,1.01-.32,2.05-1.32,2.33Z"/>
          <path class="cls-18" d="m57.74,155.9l-20.03,5.5c-.68.19-1.38,0-1.87-.51-.49-.51-.65-1.21-.44-1.88.09-.28.39-.44.67-.35.28.09.44.39.35.67-.09.29-.02.6.19.82.21.22.52.31.81.22l20.03-5.5c.44-.12.7-.58.58-1.02l-.39-1.43c-.12-.44-.58-.7-1.02-.58l-20.18,5.55c-.28.08-.58-.09-.66-.37-.08-.28.09-.58.37-.66l20.18-5.55c1.01-.28,2.05.32,2.33,1.32l.39,1.43c.28,1.01-.32,2.05-1.32,2.33Z"/>
          <path class="cls-18" d="m92.86,213.68c-.92.25-1.88.41-2.87.46-4.32.23-8.37-1.54-11.12-4.87l-25.77-31.15c-.19-.23-.16-.56.07-.75.23-.19.56-.16.75.07l25.77,31.15c2.53,3.06,6.27,4.7,10.24,4.48,3.91-.21,7.37-2.19,9.51-5.43.11-.17.23-.35.34-.53.16-.25.49-.32.74-.17.25.16.32.49.17.74-.12.19-.24.37-.36.55-1.79,2.71-4.43,4.6-7.48,5.44Z"/>
          <path class="cls-27" d="m49.84,173.69c-.2.05-.42,0-.55-.17l-2.88-3.48c-.19-.23-.16-.56.07-.75.23-.19.56-.16.75.07l2.88,3.48c.19.23.16.56-.07.75-.06.05-.13.08-.2.1Z"/>
          <path class="cls-15" d="m192.29,90.99c-.27.07-.55-.07-.64-.34-1.73-4.92-4.5-8.18-8.22-9.7-6.44-2.62-13.63.87-13.71.9-.27.13-.58.02-.72-.24-.13-.26-.02-.59.24-.72.31-.15,7.71-3.73,14.58-.93,4.02,1.64,6.99,5.11,8.83,10.33.1.28-.05.58-.33.68-.01,0-.02,0-.04.01Z"/>
        </g>
        <g>
          <path class="cls-2" d="m110.51,164.41s1.52-1.63,4.33-1.12c2.81.51,5.31,1.49,7.07,0,1.75-1.49,2.37.51,2.37.51l-5.25,3.99-8.52-3.38Z"/>
          <g>
            <path class="cls-11" d="m59.83,166.34l.9,24.2c2.56.88,5,1.57,7.32,2.08,1.45-4.67,4.65-10.41,7.26-14.67-9.61-3.4-15.48-11.61-15.48-11.61Z"/>
            <path class="cls-26" d="m107.83,165.93c-13.19,14.24-23.86,15.08-32.52,12.02-2.62,4.26-5.81,10-7.26,14.67,35.22,7.76,43.51-24.61,43.51-24.61l-3.73-2.08Z"/>
            <path class="cls-29" d="m107.37,167.2s1.04-4.35,4.18-3.76c3.14.6,10.26,4.47,12.09,3.76,1.84-.71,4.18-2.42,5.39-1.82l-2.12,2.64s5.45-3.15,6.39-1.21l-9.07,5.11s-13.27-1.33-16.86-4.71Z"/>
            <path class="cls-11" d="m14.17,246.1s-4.5-64.25,28.31-84.22c0,0,9.17-6.06,20.6,5.67,11.43,11.73,7.75,23.91-1.84,35.33-9.59,11.42-19.36,31.81-17.03,43.23H14.17Z"/>
            <path class="cls-20" d="m59.01,144.37c0,.77-10.93,16.28-10.93,16.28,0,0,1.96,3.86,11.32,7l8.08-16.61-8.47-6.67Z"/>
            <path class="cls-5" d="m54.72,197.65s20.73,17.36,43.11,9.78c1.39-.47,2.91-.37,4.2.32l6.43,3.4c2.7,1.43,6.05.49,7.61-2.13.89-1.5,1.66-3.2,1.81-4.84l-12.59-5.1.93-1.54s-6.15-.52-7.76,3.88c0,0-11.71,4.87-31.45-16.85,0,0-8.96,7.62-12.29,13.08Z"/>
            <path class="cls-11" d="m53.6,197.57c-.09,0-.18-.03-.26-.08-8.75-5.91-12.87-15.46-12.91-15.55-.1-.23.01-.5.24-.6.23-.1.5.01.6.24.04.09,4.06,9.4,12.58,15.15.21.14.27.43.12.64-.09.13-.23.2-.38.2Z"/>
            <path class="cls-11" d="m66.6,184.38c-.15,0-.3-.07-.39-.21-.03-.04-2.69-4.19-7.77-13.29-1.55-2.77-3.58-4.52-6.04-5.21-4.08-1.14-8.01,1.05-8.05,1.07-.22.12-.5.05-.62-.17-.13-.22-.05-.5.17-.62.17-.1,4.29-2.4,8.74-1.16,2.71.75,4.92,2.66,6.6,5.65,5.06,9.07,7.72,13.2,7.74,13.24.14.21.08.5-.14.63-.08.05-.16.07-.25.07Z"/>
            <g>
              <path class="cls-24" d="m67.61,135.48s3.89,8.93,4.15,13.62c.26,4.69,1.27,7.73-4.15,8.67-5.42.94-9.98-1.76-12.46-6.42,0,0-3.87-7.19-3.01-10.14.87-2.95,15.46-5.72,15.46-5.72Z"/>
              <path class="cls-11" d="m57.01,147.99l.31-.14c.39-.17.56-.64.36-1.02-.76-1.48-2.25-4.86-.33-5.65,2.48-1.02,12.3-3.02,14.42-6.51,2.04-3.35.23-7.68-2.48-8.91-.18-.08-.4-.02-.49.16l-.23.43c-.15.29-.59.25-.68-.07h0c-.09-.31-.49-.36-.66-.1-.65,1.04-2.41,2.73-7.11,3.6-6.69,1.23-11.11,3.94-11.22,8.56,0,.29-.32.46-.57.3-.49-.3-1.28-.44-2.34.45-1.84,1.54-1.08,5.55,2.94,8.84.19.16.19.46-.02.59-.73.47-1.82,1.61,1,3.11,2.92,1.56,5.09,1.43,5.93,1.29.21-.03.34-.24.3-.44l-.89-4.06c-.05-.23.12-.45.36-.45h1.39Z"/>
              <path class="cls-30" d="m57.18,148.84s-1.48-5.7-4.04-4.1c-2.56,1.6,1.33,6.39,3.38,6.6l.66-2.5Z"/>
            </g>
          </g>
          <g>
            <g>
              <path class="cls-25" d="m114.91,199.89s-1.88-4.96-4.08-4.51c-2.2.45-4.61,2.14-4.61,2.14l-3.54,4.78s9.92,3.91,13.42,1.67c0,0,10.14,1.75,22.94-.35-1.85-3.91-2.96-7.83-3.61-10.87-6.48,3.67-13.47,6.41-20.52,7.13Z"/>
              <path class="cls-12" d="m168.61,163.92s-14.51,18.28-33.18,28.85c.65,3.04,1.75,6.96,3.61,10.87,9.68-1.59,20.89-5.38,30.39-13.81l-.82-25.91Z"/>
            </g>
            <path class="cls-12" d="m185.02,245.15s-.04-23.15-13.49-47.05c-4.21-7.48-5.71-16.18-4.39-24.66l1.47-9.52s18.47-6.25,38.94-.26c0,0,28.39,23.43,9.42,83.36l-31.95-1.87Z"/>
            <path class="cls-14" d="m171.75,151.77l4.79,11.51c.3.73.96,1.24,1.73,1.38,2.76.47,9.44,1.21,13.83-1.67.52-.34.66-1.05.3-1.57l-8.85-12.7-11.8,3.06Z"/>
            <g>
              <path class="cls-11" d="m183.57,205.84c-.66.17-.99.92-.67,1.52l13.86,26.57c.23.45.75.67,1.24.53l45.32-13.09c.56-.16.89-.75.73-1.32l-7.81-27.03c-.16-.55-.73-.88-1.29-.73l-51.37,13.54Z"/>
              <path class="cls-28" d="m186.49,202.72c-.65.15-1.02.84-.79,1.47l11.09,30.13c.2.55.79.85,1.35.68l45.19-13.05c.56-.16.9-.73.78-1.3l-6.26-29c-.13-.61-.74-.99-1.35-.85l-50.01,11.91Z"/>
              <path class="cls-11" d="m190.42,199.67c-.79.12-1.31.89-1.13,1.67l7.53,32.52c.18.77.96,1.23,1.72,1.01l44.5-12.85c.72-.21,1.14-.94.95-1.67l-6.84-26.55c-.18-.68-.84-1.12-1.54-1.02l-45.19,6.87Z"/>
            </g>
            <path class="cls-12" d="m226.45,212.08c3.45-26.09-16.65-46.15-16.65-46.15l-11.96,13.95c9.08,11.32,13.4,21.69,15.37,29.84,2.62-.76,8.91-1.97,13.24,2.36Z"/>
            <path class="cls-12" d="m213.2,210.02c-.14,0-.26-.09-.3-.23-2.45-10.11-7.6-20.11-15.31-29.72-.11-.13-.08-.32.05-.43.13-.11.32-.08.43.05,7.77,9.69,12.96,19.77,15.43,29.96.04.16-.06.33-.23.37-.02,0-.05,0-.07,0Z"/>
            <path class="cls-10" d="m213.2,209.71c1.83,7.57,1.64,13.22,1.36,15.92-.11,1.02-.92,1.81-1.94,1.88-1.16.08-2.74.19-4.14.27-1.55.09-3.27-.89-4.42-1.71-.59-.42-1.35.23-1.02.87.86,1.68,3.04,3.17,4.54,4.05.55.32.44,1.14-.17,1.31l-6.42,1.82c10.55,9.94,17.51-1.18,17.51-1.18,4.66-7.19,7.06-14.23,7.94-20.87-4.33-4.33-10.63-3.13-13.24-2.36Z"/>
            <g>
              <path class="cls-31" d="m176.71,134.16c-.2.19-8.49,16.46-8.49,16.46l9.39,4.53,10.15-14.26s-7.68-9.91-11.05-6.74Z"/>
              <path class="cls-32" d="m183.49,142.61l-4.68,7.81c-.07.12-.16.23-.26.32-.56.52-2.47,2.03-3.94-.03-1.26-1.75-2.44-3.34-3.7-4-.74-.38-1.65-.08-2.02.67-.77,1.53-2.27,4.65-3.21,7.61-.24.74.15,1.54.87,1.83,1.9.77,5.66,2.16,9,2.62.55.08,1.09-.16,1.42-.6,1.44-1.97,5.48-7.46,6.86-8.84,1.28-1.28,3.65-.8,4.72-.49.4.12.84.06,1.2-.16,1.08-.65,2.97-2.28,1.24-5.02-.43-.68-.21-1.59.46-2.04,1.21-.79,2.52-2.29,1.27-4.7-1.26-2.45-3.52-2.67-5.06-2.48-.68.08-1.37-.27-1.63-.91-.12-.28-.35-.52-.77-.61-.81-.16-1.34-.9-1.18-1.71.27-1.38.07-3.18-2.14-4.4-4.05-2.23-7.6,1.4-8.51,4.47-.9,3.07,3.63,5.23,6.48,5.59,2.09.27,3.24,2.55,3.7,3.75.17.43.13.92-.11,1.32Z"/>
              <path class="cls-4" d="m182.06,152.87s1.8-5.27,4.11-5.08c2.31.19,4.12,2.49,1.26,5.08-3.56,3.21-5.37,0-5.37,0Z"/>
            </g>
          </g>
        </g>
        <g>
          <g>
            <g class="cls-17">
              <path class="cls-11" d="m81.74,74.73c-.48.05-.93-.28-1.02-.76-.21-1.05-.38-2.13-.5-3.21-.06-.52.32-.99.84-1.05,0,0,.01,0,.02,0,.52-.05.98.32,1.04.84.12,1.02.28,2.05.48,3.05.1.52-.23,1.02-.75,1.12-.03,0-.07.01-.1.01Zm-.72-8.26s-.07,0-.11,0c-.53-.01-.94-.45-.93-.97.03-1.08.1-2.17.21-3.24.06-.52.52-.9,1.05-.84.52.06.9.53.84,1.05-.11,1.02-.18,2.05-.2,3.08-.01.49-.39.88-.86.93Zm1.12-8.22c-.11,0-.21,0-.32-.03-.51-.13-.82-.65-.69-1.16.26-1.05.58-2.09.93-3.11.17-.5.72-.76,1.21-.59.5.17.76.71.59,1.21-.34.97-.63,1.96-.88,2.95-.1.4-.44.68-.83.71Zm2.93-7.76c-.17.02-.36-.01-.52-.1-.47-.24-.65-.81-.41-1.28.49-.96,1.03-1.91,1.6-2.83.28-.45.87-.58,1.31-.3.45.28.58.87.3,1.31-.54.87-1.06,1.77-1.52,2.68-.15.3-.45.48-.76.51Zm4.58-6.92c-.24.02-.5-.05-.7-.22-.4-.34-.46-.94-.12-1.34.69-.83,1.43-1.63,2.19-2.4.37-.37.97-.38,1.35,0,.37.37.38.97,0,1.35-.72.73-1.42,1.5-2.08,2.28-.17.2-.4.31-.64.34Zm6-5.73c-.32.03-.64-.1-.85-.37-.32-.42-.24-1.02.18-1.33.86-.65,1.75-1.28,2.66-1.86.44-.28,1.03-.15,1.31.29.28.44.15,1.03-.29,1.31-.86.55-1.72,1.14-2.53,1.76-.15.11-.32.17-.49.19Zm34.53-5.55c-.13.01-.27,0-.4-.05-.97-.33-1.96-.63-2.96-.88-.51-.13-.82-.65-.69-1.16.13-.51.65-.82,1.16-.69,1.05.26,2.1.57,3.11.93.5.17.76.71.59,1.21-.13.36-.45.6-.81.64Zm-27.41,1.29c-.39.04-.78-.17-.96-.55-.22-.48,0-1.04.47-1.26.98-.45,1.99-.85,3.01-1.21.5-.17,1.04.08,1.22.58.18.5-.08,1.04-.58,1.22-.96.34-1.93.73-2.86,1.15-.1.04-.2.07-.3.08Zm19.31-3.1c-.06,0-.13,0-.19,0-1.02-.11-2.05-.17-3.08-.2-.53-.01-.94-.45-.93-.97.01-.53.45-.95.97-.93,1.08.02,2.17.09,3.24.21.52.06.9.53.85,1.05-.05.46-.41.81-.86.85Zm-11.43.54c-.48.05-.92-.28-1.02-.76-.1-.52.23-1.02.74-1.12,1.06-.21,2.13-.39,3.21-.51,0,0,.01,0,.02,0,.51-.05.98.32,1.04.84.06.52-.31,1-.84,1.06-1.02.12-2.04.28-3.05.49-.03,0-.07.01-.1.01Z"/>
              <path class="cls-11" d="m136.27,35.03c-.19.02-.38-.02-.56-.12-.43-.24-.87-.48-1.31-.7-.47-.24-.65-.81-.41-1.28.24-.47.81-.65,1.28-.41.46.24.93.48,1.38.74.46.26.62.84.36,1.3-.16.28-.44.45-.74.48Z"/>
            </g>
            <g class="cls-17">
              <path class="cls-11" d="m153.99,58.03c-.46.04-.89-.25-1.01-.71-.12-.48-.26-.96-.4-1.43-.15-.5.13-1.04.63-1.19.51-.15,1.04.13,1.19.63.15.5.29,1,.42,1.5.13.51-.17,1.03-.68,1.16-.05.01-.1.02-.15.03Z"/>
              <path class="cls-11" d="m121.63,104.27c-.44.04-.87.08-1.32.1-.52.03-.98-.37-1.01-.89-.03-.52.37-.98.89-1.01,1.02-.06,2.03-.17,3.02-.31.52-.07,1,.29,1.08.81.08.52-.29,1-.81,1.08-.61.09-1.24.16-1.86.22Zm-6.34.06c-.05,0-.11,0-.16,0-1.06-.08-2.13-.2-3.17-.37-.52-.08-.87-.57-.79-1.09.08-.52.57-.87,1.09-.79.99.16,2.01.28,3.02.35.52.04.92.5.88,1.02-.04.47-.41.83-.86.88Zm13.1-1.35c-.45.04-.87-.24-1-.68-.15-.51.15-1.03.65-1.18.97-.28,1.93-.6,2.88-.96.49-.19,1.04.06,1.23.55.19.49-.06,1.04-.55,1.23-.99.38-2.01.72-3.03,1.01-.06.02-.12.03-.17.03Zm-21.13-.16c-.12.01-.24,0-.37-.04-1.02-.31-2.03-.67-3.01-1.06-.49-.2-.73-.75-.53-1.24.2-.49.75-.73,1.24-.53.94.37,1.9.71,2.86,1.01.5.15.79.69.63,1.19-.12.38-.45.64-.82.67Zm28.67-2.96c-.37.03-.74-.15-.92-.49-.25-.46-.08-1.04.38-1.29.88-.48,1.75-1.01,2.6-1.57.44-.29,1.03-.17,1.32.27.29.44.17,1.03-.27,1.32-.88.59-1.8,1.15-2.73,1.65-.12.06-.24.1-.37.11Zm6.68-4.69c-.29.03-.59-.08-.8-.32-.35-.39-.31-1,.08-1.34.76-.67,1.49-1.37,2.19-2.1.36-.38.97-.39,1.35-.03.38.36.39.97.03,1.35-.73.76-1.51,1.51-2.31,2.21-.16.14-.35.22-.54.23Zm5.49-6.04c-.22.02-.45-.04-.65-.18-.43-.31-.52-.9-.21-1.33.59-.82,1.16-1.67,1.68-2.53.27-.45.86-.59,1.31-.32.45.27.59.86.32,1.31-.55.91-1.14,1.8-1.77,2.66-.17.23-.42.36-.68.39Zm4.05-7.09c-.15.01-.31,0-.47-.07-.48-.21-.7-.77-.5-1.25.4-.93.77-1.88,1.09-2.83.17-.5.71-.77,1.21-.6.5.17.77.71.6,1.21-.34,1.01-.72,2.01-1.14,2.98-.14.33-.45.54-.79.57Zm2.39-7.81c-.09,0-.18,0-.27-.01-.52-.1-.86-.6-.76-1.11.19-.99.33-2,.43-3,.05-.52.52-.9,1.04-.85.52.05.9.52.85,1.04-.11,1.06-.26,2.12-.46,3.16-.08.43-.43.73-.85.77Zm.62-8.14s-.04,0-.06,0c-.53.02-.97-.39-.98-.92-.02-.74-.07-1.49-.14-2.23-.03-.27-.05-.53-.08-.8-.06-.52.31-1,.84-1.06.53-.07,1,.31,1.06.84.03.28.06.56.09.84.07.78.12,1.57.15,2.35.02.51-.36.93-.86.98Z"/>
              <path class="cls-11" d="m99.74,99.59c-.19.02-.38-.02-.56-.12-.45-.26-.9-.52-1.34-.8-.45-.28-.58-.87-.3-1.31.28-.45.87-.58,1.31-.3.42.26.85.52,1.27.76.46.26.62.84.36,1.3-.16.28-.44.45-.74.48Z"/>
            </g>
            <g>
              <path class="cls-11" d="m99.98,88.47c.13.14.34.17.51.09l4.89-2.34c2.14,1.35,4.51,2.36,7.04,2.97l1.73,5.13c.06.18.23.3.42.3l6.5.04c.19,0,.36-.12.42-.3l1.8-5.11c2.54-.58,4.92-1.56,7.08-2.88l4.85,2.4c.17.08.38.05.51-.08l4.62-4.56c.14-.13.17-.34.09-.51l-2.34-4.89c1.35-2.14,2.36-4.51,2.97-7.04l5.13-1.73c.18-.06.3-.23.3-.42l.04-6.5c0-.19-.12-.36-.3-.42l-5.11-1.8c-.58-2.54-1.56-4.92-2.88-7.08l2.4-4.85c.08-.17.05-.38-.08-.51l-4.56-4.62c-.13-.14-.34-.17-.51-.09l-4.89,2.34c-2.14-1.35-4.51-2.36-7.04-2.97l-1.73-5.13c-.06-.18-.23-.3-.42-.3l-6.5-.04c-.19,0-.36.12-.42.3l-1.8,5.11c-2.54.58-4.92,1.56-7.08,2.88l-4.85-2.4c-.17-.08-.38-.05-.51.08l-4.62,4.56c-.14.13-.17.34-.09.51l2.34,4.89c-1.35,2.14-2.36,4.51-2.97,7.04l-5.13,1.73c-.18.06-.3.23-.3.42l-.04,6.5c0,.19.12.36.3.42l5.11,1.8c.58,2.54,1.56,4.92,2.88,7.08l-2.4,4.85c-.08.17-.05.37.08.51l4.56,4.62Z"/>
              <path class="cls-9" d="m118.61,72.62c-3.17.3-6.17-1.76-6.95-4.95-.86-3.5,1.29-7.04,4.79-7.9,1.69-.42,3.45-.15,4.94.76,1.49.9,2.54,2.33,2.96,4.03.86,3.5-1.29,7.04-4.79,7.9-.32.08-.63.13-.95.16Zm-1.07-11.49c-.24.02-.49.06-.73.12-2.68.66-4.33,3.38-3.67,6.06.66,2.68,3.38,4.33,6.06,3.67,2.68-.66,4.33-3.38,3.67-6.06-.32-1.3-1.12-2.4-2.27-3.09-.93-.56-1.99-.8-3.06-.7Z"/>
              <path class="cls-9" d="m119.64,82c-.54.05-1.09.08-1.65.07h0c-.17,0-.35,0-.52-.01-.86-.03-1.72-.13-2.55-.3-.01,0-.02,0-.03,0-.03,0-.06-.01-.1-.02-.06-.01-.13-.03-.19-.04-.17-.04-.28-.18-.3-.34,0-.04,0-.08,0-.12.05-.21.25-.33.45-.29,1.06.24,2.15.36,3.24.36,5.42.04,10.21-2.77,12.96-7.01,1.53-2.36,2.42-5.17,2.44-8.18,0-.53-.02-1.05-.07-1.57-.33-3.49-1.84-6.74-4.34-9.27-2.87-2.91-6.7-4.52-10.79-4.55-8.44-.05-15.34,6.76-15.4,15.2,0,.52.02,1.04.07,1.55.21,2.23.91,4.39,2.05,6.32.03.05.05.1.05.16.01.14-.05.29-.19.36-.18.11-.41.05-.52-.13-1.2-2.03-1.93-4.29-2.15-6.63-.05-.54-.08-1.08-.07-1.63.06-8.86,7.31-16.01,16.16-15.96,4.29.03,8.31,1.72,11.33,4.78,2.62,2.66,4.21,6.07,4.56,9.73.05.55.08,1.1.07,1.65-.03,4.29-1.72,8.31-4.78,11.33-2.66,2.62-6.07,4.21-9.74,4.56Z"/>
            </g>
          </g>
          <g>
            <g class="cls-17">
              <path class="cls-11" d="m51.76,102.78c-.25.02-.5-.12-.6-.37-.19-.46-.36-.94-.52-1.41-.1-.31.06-.64.37-.74.31-.1.64.07.74.37.15.45.32.91.49,1.35.12.3-.03.64-.33.76-.05.02-.11.03-.16.04Z"/>
              <path class="cls-11" d="m50.47,98.44c-.3.03-.57-.17-.63-.47-.17-.84-.29-1.7-.37-2.56-.02-.18-.03-.36-.05-.54-.02-.32.24-.6.54-.63.32-.02.61.22.63.54.01.17.03.35.04.52.08.82.2,1.64.36,2.44.06.32-.14.63-.46.69-.02,0-.04,0-.06,0Zm-.45-6.09s-.06,0-.08,0c-.32-.02-.57-.29-.56-.62.05-1.04.17-2.09.34-3.11.06-.32.36-.53.68-.48.32.06.53.36.48.68-.17.98-.28,1.98-.33,2.97-.01.3-.24.53-.53.56Zm1.04-6.02c-.07,0-.15,0-.23-.02-.31-.09-.49-.42-.39-.73.3-1,.67-1.98,1.1-2.93.13-.3.48-.43.78-.3.3.13.43.48.3.78-.41.91-.76,1.85-1.05,2.8-.07.23-.28.39-.51.41Zm2.49-5.58c-.12.01-.25-.01-.36-.08-.28-.17-.37-.53-.2-.81.54-.89,1.14-1.76,1.78-2.58.2-.26.57-.3.83-.1.26.2.3.57.1.83-.61.78-1.19,1.6-1.7,2.46-.1.17-.27.26-.45.28Zm3.78-4.8c-.17.02-.34-.04-.47-.17-.23-.23-.23-.6,0-.83.74-.73,1.53-1.43,2.35-2.06.26-.2.63-.15.83.1.2.26.15.63-.1.83-.78.61-1.54,1.27-2.24,1.97-.1.1-.23.16-.36.17Zm4.83-3.74c-.22.02-.44-.08-.56-.29-.17-.28-.07-.64.21-.81.9-.53,1.83-1.01,2.78-1.43.3-.13.64,0,.77.3.13.3,0,.64-.3.77-.91.4-1.8.85-2.65,1.36-.08.05-.16.07-.24.08Zm5.59-2.44c-.27.03-.54-.14-.62-.42-.09-.31.09-.64.4-.73,1-.29,2.02-.53,3.05-.7.32-.05.62.16.68.48.05.32-.16.62-.48.68-.98.16-1.96.39-2.91.67-.04.01-.07.02-.11.02Zm9.08-.94s-.07,0-.1,0c-.85-.07-1.73-.09-2.6-.07-.13,0-.26,0-.39.01-.32.01-.6-.24-.61-.56-.01-.33.24-.61.56-.61.14,0,.27-.01.41-.01.91-.02,1.82,0,2.72.08.32.03.56.31.54.63-.02.29-.25.51-.53.54Z"/>
            </g>
            <g class="cls-17">
              <path class="cls-11" d="m77.5,118.24c-.32.03-.61-.2-.64-.52-.03-.32.2-.61.52-.65.97-.1,1.95-.27,2.9-.49.32-.07.63.12.71.44.07.32-.12.63-.44.71-1,.23-2.02.4-3.04.51,0,0,0,0,0,0Zm-3.01.14s-.04,0-.06,0c-1.02-.01-2.06-.09-3.07-.22-.32-.04-.55-.34-.51-.66.04-.32.34-.55.66-.51.97.13,1.95.2,2.93.21.32,0,.58.27.58.6,0,.3-.24.55-.53.58Zm8.85-1.5c-.26.02-.51-.13-.61-.38-.11-.3.04-.64.35-.75.92-.34,1.82-.73,2.69-1.18.29-.15.64-.03.79.26.15.29.03.64-.26.79-.91.47-1.86.88-2.82,1.23-.05.02-.1.03-.15.03Zm-14.81.71c-.07,0-.14,0-.2-.02-.99-.26-1.98-.58-2.93-.96-.3-.12-.45-.46-.33-.76.12-.3.46-.45.76-.33.91.36,1.85.67,2.79.91.31.08.5.4.42.72-.06.25-.27.41-.51.44Zm20.16-3.44c-.21.02-.42-.07-.54-.26-.18-.27-.11-.64.16-.82.81-.55,1.59-1.15,2.33-1.79.25-.21.62-.19.83.06.21.25.19.62-.06.83-.77.67-1.59,1.3-2.44,1.88-.08.06-.18.09-.27.1Zm4.53-3.94c-.16.02-.32-.03-.45-.15-.24-.22-.26-.59-.04-.83.66-.73,1.27-1.5,1.84-2.29.19-.27.55-.33.82-.14.27.19.33.55.14.82-.59.84-1.24,1.64-1.92,2.41-.1.11-.24.18-.38.19Zm3.46-4.91c-.11.01-.23-.01-.33-.07-.29-.15-.39-.51-.24-.8.46-.86.88-1.76,1.23-2.67.12-.3.46-.45.76-.33.3.12.45.46.33.76-.37.95-.8,1.89-1.29,2.8-.1.18-.27.29-.46.31Z"/>
              <path class="cls-11" d="m62.92,115.36c-.11.01-.23-.01-.34-.07-.44-.24-.88-.5-1.3-.76-.28-.17-.36-.54-.19-.81.17-.27.54-.36.81-.19.4.25.82.49,1.24.73.29.16.39.51.23.8-.1.18-.27.29-.46.3Z"/>
            </g>
            <g>
              <path class="cls-11" d="m62.69,107.75c.09.09.23.11.34.06l3.27-1.57c1.43.9,3.02,1.58,4.71,1.99l1.16,3.43c.04.12.15.2.28.2l4.35.03c.13,0,.24-.08.28-.2l1.2-3.42c1.7-.39,3.29-1.05,4.74-1.93l3.25,1.61c.11.06.25.03.34-.05l3.09-3.05c.09-.09.11-.23.06-.34l-1.57-3.27c.9-1.43,1.58-3.02,1.99-4.71l3.43-1.16c.12-.04.2-.15.2-.28l.03-4.35c0-.13-.08-.24-.2-.28l-3.42-1.2c-.39-1.7-1.05-3.29-1.93-4.74l1.61-3.25c.06-.11.03-.25-.05-.34l-3.05-3.09c-.09-.09-.23-.11-.34-.06l-3.27,1.57c-1.43-.9-3.02-1.58-4.71-1.99l-1.16-3.43c-.04-.12-.15-.2-.28-.2l-4.35-.03c-.13,0-.24.08-.28.2l-1.2,3.42c-1.7.39-3.29,1.05-4.74,1.93l-3.25-1.61c-.11-.06-.25-.03-.34.05l-3.09,3.05c-.09.09-.11.23-.06.34l1.57,3.27c-.9,1.43-1.58,3.02-1.99,4.71l-3.43,1.16c-.12.04-.2.15-.2.28l-.03,4.35c0,.13.08.24.2.28l3.42,1.2c.39,1.7,1.05,3.29,1.93,4.74l-1.61,3.25c-.06.11-.03.25.05.34l3.05,3.09Z"/>
              <path class="cls-9" d="m75.16,97.22c-.94.09-1.89-.13-2.72-.63-1.02-.62-1.73-1.59-2.02-2.74-.59-2.38.88-4.8,3.26-5.38,2.39-.58,4.8.88,5.38,3.26.28,1.15.1,2.35-.52,3.37-.62,1.02-1.59,1.73-2.74,2.02-.22.05-.43.09-.65.11Zm-.72-7.69c-.16.01-.32.04-.47.08-1.75.43-2.83,2.21-2.4,3.96.21.85.73,1.57,1.48,2.02.75.45,1.63.59,2.48.38h0c.85-.21,1.57-.74,2.02-1.48.45-.75.59-1.63.38-2.48-.39-1.59-1.9-2.63-3.49-2.48Z"/>
              <path class="cls-9" d="m75.87,103.75c-.37.04-.75.05-1.13.05-.75,0-1.51-.09-2.24-.24-.03,0-.07-.01-.1-.02-.26-.06-.43-.27-.46-.52,0-.06,0-.12.01-.18.07-.32.39-.52.7-.45.69.15,1.39.23,2.1.24h0s.08,0,.12,0c1.67,0,3.27-.43,4.7-1.21.77-.42,1.49-.96,2.14-1.59,0,0,.01-.01.02-.02.02-.02.03-.03.05-.05,1.88-1.86,2.93-4.34,2.95-6.98,0-.34-.01-.68-.04-1.02-.21-2.26-1.19-4.36-2.81-6-1.86-1.88-4.34-2.93-6.98-2.95-2.64-.02-5.14,1-7.02,2.85-1.88,1.86-2.93,4.34-2.95,6.98,0,.34.01.67.04,1,.14,1.44.59,2.84,1.33,4.09.05.08.07.16.08.24.02.22-.08.44-.29.56-.28.16-.64.07-.81-.21-.83-1.4-1.33-2.96-1.48-4.57-.04-.37-.05-.75-.05-1.12.02-2.96,1.19-5.73,3.3-7.81,2.11-2.08,4.89-3.22,7.86-3.19,2.96.02,5.73,1.19,7.81,3.3,1.81,1.83,2.9,4.19,3.14,6.72.04.38.05.76.05,1.14-.04,5.73-4.44,10.43-10.03,10.96Z"/>
            </g>
          </g>
        </g>
        <g>
          <rect class="cls-12" x="191.31" y="66.08" width="41.68" height="7.66" rx="1.13" ry="1.13" transform="translate(-11.22 68.31) rotate(-17.83)"/>
          <rect class="cls-12" x="197.91" y="79.86" width="47.34" height="7.66" rx="1.13" ry="1.13" transform="translate(-14.98 71.86) rotate(-17.83)"/>
          <rect class="cls-12" x="199.29" y="97.19" width="43.29" height="7.66" rx="1.13" ry="1.13" transform="translate(-20.32 72.5) rotate(-17.83)"/>
        </g>
      </g>
    </g>
  </g>
</svg>