<?xml version="1.0" encoding="UTF-8"?>
<svg id="Layer_1" data-name="Layer 1" xmlns="http://www.w3.org/2000/svg" viewBox="0 0 280.61 256">
  <defs>
    <style>
      .cls-1 {
        fill: #dc654a;
      }

      .cls-2 {
        fill: #fff;
      }

      .cls-3 {
        fill: #272640;
      }

      .cls-4 {
        fill: #db822b;
      }

      .cls-5 {
        fill: #e5d0c2;
      }

      .cls-6 {
        fill: #eb997f;
      }

      .cls-7 {
        fill: #6f9ce4;
      }

      .cls-8 {
        fill: #91c16a;
      }

      .cls-9 {
        fill: #09a2b9;
      }

      .cls-10 {
        fill: #6e903c;
      }

      .cls-11 {
        fill: #82af59;
      }

      .cls-12 {
        fill: #eee1d8;
      }

      .cls-13 {
        fill: #09a293;
      }

      .cls-14 {
        fill: #d57c60;
      }

      .cls-15 {
        fill: #f4f2de;
      }

      .cls-16 {
        fill: #457ac5;
      }

      .cls-17 {
        fill: #779d47;
      }

      .cls-18 {
        fill: #e4cfc1;
      }

      .cls-19 {
        fill: #decec3;
      }

      .cls-20 {
        fill: #421530;
      }

      .cls-21 {
        fill: #eba04b;
      }

      .cls-22 {
        fill: #da4b66;
      }
    </style>
  </defs>
  <rect class="cls-15" x=".13" width="256" height="256"/>
  <g>
    <g>
      <path class="cls-13" d="m17.18,63.71h-.59c-1.06,0-1.92-.82-1.92-1.84v-28.21c0-2.24,1.9-4.07,4.24-4.07h6.46v.33h-6.46c-2.15,0-3.9,1.68-3.9,3.74v28.21c0,.83.71,1.51,1.57,1.51h.59v.33Z"/>
      <rect class="cls-13" x="21.37" y="28.88" width="4" height="1.78"/>
      <g>
        <g>
          <g>
            <rect class="cls-2" x="50.1" y="23.64" width="2.45" height="4.53" transform="translate(102.65 51.81) rotate(180)"/>
            <rect class="cls-3" x="46.7" y="23.64" width="2.45" height="4.53" transform="translate(95.86 51.81) rotate(180)"/>
            <rect class="cls-7" x="43.31" y="23.64" width="2.45" height="4.53" transform="translate(89.07 51.81) rotate(180)"/>
            <rect class="cls-22" x="39.91" y="23.64" width="2.45" height="4.53" transform="translate(82.28 51.81) rotate(180)"/>
            <rect class="cls-21" x="36.52" y="23.64" width="2.45" height="4.53" transform="translate(75.49 51.81) rotate(180)"/>
            <rect class="cls-1" x="33.12" y="23.64" width="2.45" height="4.53" transform="translate(68.7 51.81) rotate(180)"/>
            <rect class="cls-3" x="29.73" y="23.64" width="2.45" height="4.53" transform="translate(61.91 51.81) rotate(180)"/>
            <rect class="cls-1" x="26.33" y="23.64" width="2.45" height="4.53" transform="translate(55.12 51.81) rotate(180)"/>
          </g>
          <rect class="cls-13" x="25.26" y="27.55" width="28.37" height="4.43" transform="translate(78.88 59.53) rotate(180)"/>
          <polygon class="cls-13" points="53.62 28.17 53.28 28.17 53.28 22.77 25.61 22.77 25.61 28.17 25.26 28.17 25.26 22.44 53.62 22.44 53.62 28.17"/>
        </g>
        <polygon class="cls-2" points="17.18 45.55 213.52 45.55 210.22 31.98 20.48 31.98 17.18 45.55"/>
        <rect class="cls-19" x="17.18" y="45.55" width="196.35" height="9.98" transform="translate(230.7 101.07) rotate(180)"/>
        <rect class="cls-13" x="17.18" y="55.53" width="196.35" height="16.05" transform="translate(230.7 127.1) rotate(180)"/>
        <polygon class="cls-13" points="171.42 55.53 171.07 55.53 171.07 53.2 59.62 53.2 59.62 55.53 59.28 55.53 59.28 52.87 171.42 52.87 171.42 55.53"/>
        <g>
          <rect class="cls-13" x="184.21" y="71.57" width="5.53" height="41.97" transform="translate(373.95 185.11) rotate(180)"/>
          <rect class="cls-13" x="40.95" y="71.57" width="5.53" height="41.97" transform="translate(87.44 185.11) rotate(180)"/>
        </g>
        <g>
          <rect class="cls-13" x="34.24" y="113.54" width="162.22" height="6.39" transform="translate(230.7 233.48) rotate(180)"/>
          <rect class="cls-13" x="178.64" y="119.94" width="17.82" height="4.49" transform="translate(375.1 244.36) rotate(180)"/>
          <rect class="cls-13" x="34.24" y="119.94" width="17.82" height="4.49" transform="translate(86.29 244.36) rotate(180)"/>
        </g>
        <path class="cls-13" d="m187.15,87H42.97v-2.96h144.18v2.96Zm-143.83-.33h143.49v-2.29H43.32v2.29Z"/>
        <rect class="cls-20" x="184.21" y="71.35" width="5.53" height=".44"/>
        <rect class="cls-20" x="40.95" y="71.35" width="5.53" height=".44"/>
        <rect class="cls-20" x="184.21" y="113.32" width="5.53" height=".44"/>
        <rect class="cls-20" x="40.95" y="113.32" width="5.53" height=".44"/>
        <rect class="cls-20" x="178.64" y="119.72" width="17.82" height=".44"/>
        <rect class="cls-20" x="34.24" y="119.72" width="17.82" height=".44"/>
        <rect class="cls-13" x="17.76" y="42.96" width="195.17" height=".33"/>
        <ellipse class="cls-13" cx="186.48" cy="34.27" rx="1.62" ry="1.55"/>
        <rect class="cls-13" x="165.08" y="22.3" width="4.7" height="9.68" transform="translate(334.86 54.28) rotate(180)"/>
        <rect class="cls-13" x="153.01" y="6.11" width="28.36" height="19.34" rx="2.15" ry="2.15" transform="translate(334.38 31.55) rotate(180)"/>
        <rect class="cls-2" x="155.08" y="8.01" width="24.21" height="15.53" transform="translate(334.38 31.55) rotate(180)"/>
        <g>
          <rect class="cls-21" x="156.46" y="10.52" width="21.45" height="11.78" transform="translate(334.38 32.82) rotate(180)"/>
          <polygon class="cls-4" points="177.65 20.97 170.37 11.48 164.07 20.97 177.65 20.97"/>
          <polygon class="cls-4" points="161.21 14.25 164.41 18.28 162.64 20.97 157.16 20.97 161.21 14.25"/>
          <path class="cls-4" d="m163.04,12.91c0,.68.59,1.23,1.31,1.23s1.31-.55,1.31-1.23-.59-1.23-1.31-1.23-1.31.55-1.31,1.23Z"/>
        </g>
        <rect class="cls-7" x="155.08" y="8.01" width="24.21" height="1.33" transform="translate(334.38 17.36) rotate(180)"/>
        <rect class="cls-20" x="165.08" y="25.23" width="4.7" height=".44"/>
        <rect class="cls-20" x="166.37" y="6.81" width="1.64" height=".44"/>
      </g>
      <path class="cls-21" d="m167.89,54.57H63.56c-20.08,11.62-30.3,34.32-33.82,62.17h173.68c-3.52-27.85-15.45-50.55-35.53-62.17Z"/>
      <path class="cls-4" d="m129.02,110.74H40.41c10.41-25.32,24.79-45.4,46.23-56.17h9.89l32.49,56.17Z"/>
      <path class="cls-4" d="m124.08,87.82l14.28,22.92h48.62c-10.72-19.32-23.07-36.04-39.99-45.48l-22.91,22.55Z"/>
      <path class="cls-4" d="m115.65,54.57c-.1.37-.16.76-.16,1.15,0,3.29,3.85,5.96,8.59,5.96s8.59-2.67,8.59-5.96c0-.39-.06-.78-.16-1.15h-16.86Z"/>
      <rect class="cls-13" x=".15" y="124.3" width="254.83" height=".29"/>
    </g>
    <g>
      <path class="cls-2" d="m175.21,208.91h-102.63c-1.96,0-3.56-1.53-3.56-3.41l7.2-71.69c0-1.88,1.59-3.41,3.56-3.41h102.63c1.96,0,3.56,1.53,3.56,3.41l-7.2,71.69c0,1.88-1.59,3.41-3.56,3.41Z"/>
      <path class="cls-2" d="m131.68,187.43h-21.38l3.4,43.22c.09,1.11-.83,2.06-2,2.06h-10.64v2.61h36.11c2.12,0,3.71-1.85,3.31-3.85l-8.81-44.05Z"/>
      <polygon class="cls-5" points="136.55 211.76 131.68 187.43 110.3 187.43 112.05 209.61 136.55 211.76"/>
      <path class="cls-18" d="m136.13,232.72h-24.28v-.37h24.28c.43,0,.84-.18,1.11-.5.27-.31.37-.71.3-1.11l-5.24-25.9.38-.07,5.24,25.9c.1.5-.04,1.02-.38,1.41-.35.4-.86.63-1.4.63Z"/>
      <path class="cls-2" d="m172.31,208.91h-102.63c-1.96,0-3.56-1.53-3.56-3.41l7.2-71.69c0-1.88,1.59-3.41,3.56-3.41h102.63c1.96,0,3.56,1.53,3.56,3.41l-7.2,71.69c0,1.88-1.59,3.41-3.56,3.41Z"/>
      <path class="cls-18" d="m172.31,209.09v-.37c1.86,0,3.37-1.45,3.37-3.23l7.21-71.71c0-1.76-1.51-3.21-3.37-3.21v-.37c2.07,0,3.75,1.61,3.75,3.59l-7.21,71.71c0,1.96-1.68,3.58-3.75,3.58Z"/>
      <polygon class="cls-12" points="168.44 202.32 73.55 202.32 80.75 136.99 175.64 136.99 168.44 202.32"/>
      <polygon class="cls-13" points="175.36 139.61 175.64 136.99 80.75 136.99 80.46 139.61 175.36 139.61"/>
      <polygon class="cls-13" points="85.05 177.31 88.99 141.59 82.5 141.59 78.56 177.31 85.05 177.31"/>
      <path class="cls-18" d="m133.11,134.7h-9.82c-.58,0-1.06-.45-1.06-1.01s.47-1.01,1.06-1.01h9.82c.58,0,1.06.45,1.06,1.01s-.47,1.01-1.06,1.01Zm-9.82-1.66c-.37,0-.67.29-.67.65s.3.65.67.65h9.82c.37,0,.67-.29.67-.65s-.3-.65-.67-.65h-9.82Z"/>
      <path class="cls-18" d="m123.43,206.82c-.73,0-1.32-.57-1.32-1.26s.59-1.27,1.32-1.27,1.32.57,1.32,1.27-.59,1.26-1.32,1.26Zm0-2.16c-.52,0-.94.4-.94.9s.42.9.94.9.94-.4.94-.9-.42-.9-.94-.9Z"/>
      <g>
        <path class="cls-21" d="m82.66,138.3c0,.3-.25.54-.56.54s-.56-.24-.56-.54.25-.54.56-.54.56.24.56.54Z"/>
        <ellipse class="cls-21" cx="84.34" cy="138.3" rx=".56" ry=".54"/>
        <ellipse class="cls-21" cx="86.59" cy="138.3" rx=".56" ry=".54"/>
      </g>
    </g>
    <g>
      <path class="cls-21" d="m163.95,191.82h-73.51c-1.46,0-2.6-1.21-2.45-2.61l5.02-45.52c.13-1.2,1.19-2.11,2.45-2.11h73.51c1.46,0,2.6,1.21,2.45,2.61l-5.02,45.52c-.13,1.2-1.19,2.11-2.45,2.11Z"/>
      <path class="cls-13" d="m96.35,143.77c0,.34-.29.61-.64.61s-.64-.27-.64-.61.29-.61.64-.61.64.27.64.61Z"/>
      <polygon class="cls-4" points="92.63 186.4 117.22 149 138.49 186.4 92.63 186.4"/>
      <polygon class="cls-4" points="148.12 159.9 137.33 175.8 143.29 186.4 161.81 186.4 148.12 159.9"/>
      <ellipse class="cls-4" cx="137.52" cy="154.61" rx="4.42" ry="4.24"/>
    </g>
    <g>
      <polygon class="cls-2" points="170.02 242.02 170.02 252.1 165.58 252.1 162.82 242.02 170.02 242.02"/>
      <rect class="cls-13" x="5.97" y="235.32" width="169.21" height="6.7"/>
    </g>
    <g>
      <path class="cls-11" d="m148.62,224.45s1.2-13.33,3.67-21.65l2.39.45-2.04-1.45c1.08-3.03,2.54-5.48,4.07-5.45,1.89.04,2.98,3.38,3.58,7.8l-2.28.93,2.38-.15c1.06,8.71.44,20.91.44,20.91l-12.21-1.4Z"/>
      <path class="cls-17" d="m154.86,229.44c-2.06-14.92,1.72-31.59,1.75-31.76l.37.08c-.04.17-3.8,16.78-1.75,31.63l-.38.05Z"/>
      <path class="cls-8" d="m155.3,222.57s1.52-3.87,3.51-8.12l1.58.87-1.22-1.64c1.03-2.17,2.17-4.39,3.27-6.19l.99.19-.56-.91c1.31-1.94,2.75-3.37,3.67-3.07,1.4.45.82,4.17-.35,8.44l-1.81.26,1.62.42c-.66,2.32-1.48,4.76-2.23,6.88l-1.92.13,1.69.5c-1.13,3.15-2.08,5.48-2.08,5.48l-6.18-3.24Z"/>
      <path class="cls-8" d="m145.45,227.12s-1.27-4.1-2.19-8.85l3.66-.14-3.89-1.08c-.39-2.24-.68-4.55-.69-6.59l1.73-.29-1.72-.6c.09-2.71.73-4.81,2.35-5.4,2.41-.88,4.96,2.4,7.12,6.49l-1.58,2,2.08-1.04c2.71,5.44,4.68,11.82,4.68,11.82l-11.54,3.67Z"/>
      <path class="cls-17" d="m153.07,227.62c-4.14-6.93-6.84-14.09-8.01-21.26l.38-.06c1.17,7.13,3.85,14.24,7.97,21.14l-.33.18Z"/>
      <path class="cls-17" d="m156.57,227.63l-.33-.19c5.92-9.58,8.36-19.28,8.39-19.37l.37.09c-.02.1-2.48,9.85-8.43,19.48Z"/>
      <polygon class="cls-11" points="155.3 218.54 157.05 223.45 158.3 223.45 155.5 218.1 155.3 218.54"/>
      <path class="cls-1" d="m156.14,235.32c4.68-1.07,8.15-5.1,8.15-9.92,0-1.18-.21-2.32-.6-3.38h-20.07c-.39,1.06-.6,2.19-.6,3.38,0,4.81,3.48,8.84,8.15,9.92h4.97Z"/>
    </g>
    <g>
      <path class="cls-6" d="m103.09,192.94s-27.74,27.93-29.42,31.67c-1.37,2.32-2.04,5.52-1.77,7.68.83,6.5,7,11.12,13.8,10.32,4.73-.55,10.1-7.58,10.1-7.58l18.86-34.36c-2.44-4.94-6.18-6.32-11.56-7.73Z"/>
      <rect class="cls-6" x="19.63" y="152.06" width="19.81" height="45.49"/>
      <path class="cls-6" d="m38.4,169.94h0c-7.14,0-12.98-5.6-12.98-12.45v-9.83c0-6.85,5.84-12.45,12.98-12.45h0c7.14,0,12.98-9.11,12.98-2.26v11.9c1.26,3.08,2.61,4.99,1.93,6.25-.68,1.25-1.93,3.1-1.93,3.1-.07,11.43-5.84,15.75-12.98,15.75Z"/>
      <path class="cls-9" d="m19.71,133.95c3.9-7.78,15.32-10.17,22.46-8.96,5.81-3.21,10.46-1.36,11.95,2.67,1.71,7.24-4.16,9.78-10.72,11.04.42,7.6.48,12.06-2.39,13.24.45-1.55.62-3.1.14-4.61-1.27-2.99-4.26-2.75-5.49-1-1.37,1.77-1.38,6.71,1.72,9.75-5.82,6.71-10.52,7.08-17.74,7.08-4.58-11.6-11.38-25.26.08-29.2Z"/>
      <path class="cls-2" d="m71.76,198.73c0-14.31-12.39-21.22-31.12-21.72h-21.99c-6.89,0-13.82,1.07-18.65,5.57v69.51h69.18c2-15.52,3.97-36.8,2.59-53.36Z"/>
      <path class="cls-2" d="m18.26,170.85c-1.61,2.5-2.21,3.97-2.34,6.28,6.91,4.76,16.15,4.22,28.44.16-1.11-2.56-2.53-4.78-4.41-6.5-5.87,1.24-15,2-21.69.06Z"/>
      <path class="cls-18" d="m28.4,179.98c-5.4,0-10.51-.76-12.62-2.72l.27-.26c4.56,4.23,23.48,2.71,28.21.13l.19.32c-2.62,1.43-9.55,2.53-16.05,2.53Z"/>
      <path class="cls-13" d="m43.51,144.11s.15,11.52,7.88,10.08c0,0,5.89,13.14-6.91,15.53-7.21,1.41-.97-8.08-3.47-17.79l2.5-7.83Z"/>
      <path class="cls-2" d="m41.63,200.7c-2.79-7.54,24.13-16.05,24.13-16.05,6.97,5.9,28.77,43.92,29.06,44.5h0s0,0,0,0c1.65,3.41,1.57,7.54-.59,11.05-3.47,5.63-10.99,7.53-16.79,4.25-8.9-5.01-28.56-29.96-35.82-43.76Z"/>
      <g>
        <path class="cls-13" d="m57.88,190.1c-4.24-3.13-9.97-4.13-15.12-4.77-10.11-1.33-28.13-1.16-37.84,0-1.61.2-3.27.43-4.92.76v66.02h64.54v-49.25c0-4.81-2.7-9.83-6.66-12.75Z"/>
        <path class="cls-20" d="m60.97,252.1h-.51v-45.76c0-4.47-2.45-9.17-6.25-11.98-3.91-2.89-9.18-3.87-14.29-4.51-9.82-1.29-27.1-1.07-35.99,0-1.42.18-2.58.34-3.65.53l-.09-.48c1.08-.19,2.25-.36,3.68-.53,8.92-1.07,26.27-1.3,36.12,0,5.18.64,10.53,1.64,14.53,4.6,3.92,2.9,6.45,7.75,6.45,12.37v45.76Z"/>
      </g>
      <rect class="cls-14" x="39.25" y="165.01" width=".38" height="4.9"/>
      <rect class="cls-14" x="51.2" y="150.75" width=".38" height="3.45"/>
      <path class="cls-18" d="m70.54,238.92c-1.77-1.65-3.61-3.59-5.47-5.75l.3-.23c1.85,2.15,3.68,4.08,5.44,5.72l-.27.26Z"/>
      <g>
        <path class="cls-6" d="m106.95,200.84c1.96,1.06,4.23,1.43,6.38.67,2.37-.83,4.29-2.6,5.84-4.46,1.66-1.99,3.3-4.14,4.32-6.51,1.01-1.85.19-4.01-1.85-4.48.34-1.85-2.53-3.29-3.51-2.5.67-1.18-2.58-3.48-3.42-1.92l4.61-8.1c1.39-2.3-1.18-4.75-3.27-1.99-1.29,1.43-7.62,11.95-7.62,11.95-1.22-.78,1.85-5.94-.92-8.2-.42-.23-.72.03-.88.27-4.19,8.27-3.57,14.03-3.68,16.05-.17,3.04.35,7.25,4.01,9.22Z"/>
        <path class="cls-14" d="m105.19,193.43c-.88-.53-2.21-.19-2.22-.19l-.1-.36c.06-.02,1.51-.38,2.52.23l-.2.31Z"/>
        <path class="cls-14" d="m114.64,201.08l-.37-.09s.17-.66-.25-1.42l.34-.17c.49.9.29,1.65.28,1.69Z"/>
        <polygon class="cls-14" points="113.92 183.2 113.6 183.01 114.53 181.55 114.86 181.74 113.92 183.2"/>
        <polygon class="cls-14" points="117.12 185.09 116.82 184.87 117.96 183.46 118.26 183.68 117.12 185.09"/>
        <polygon class="cls-14" points="120.52 187.78 120.21 187.56 121.47 185.96 121.78 186.18 120.52 187.78"/>
      </g>
    </g>
    <g>
      <g>
        <path class="cls-8" d="m234.14,78.04h0s-9.93-24.91-9.93-24.91h0c-.92-2.35-.47-5.09,1.41-7.06,2.68-2.8,7.22-2.98,10.14-.41,1.04.91,1.72,2.04,2.07,3.25h0s8.88,25.41,8.88,25.41c.14.33.27.66.35,1h0s0,0,0,0c.49,1.98-.01,4.15-1.55,5.76-2.47,2.58-6.66,2.75-9.37.38-1.08-.94-1.75-2.15-2.02-3.42Z"/>
        <path class="cls-8" d="m218.18,85.42s21.93-1.52,24.03-2.37c1.43-.41,2.92-1.4,3.65-2.33,2.19-2.8,1.6-6.78-1.33-8.89-2.04-1.47-6.83-.66-6.83-.66l-20.53,4.16c-.97,2.78-.51,7.64,1.02,10.09Z"/>
      </g>
      <path class="cls-13" d="m211.84,170.39h-8.01s-1.16,2.33-2.7,2.96c-1.54.63-5.06.83-5.06,3.85h14.63c.98,0,1.51-.68,1.51-1.34l-.37-5.46Z"/>
      <path class="cls-13" d="m240.57,170.39c-.83-1.06-7.03.62-8.23,0,0,0-.42,2.33-1.96,2.96-1.54.63-3.54,1.25-3.59,3.85h13.16c.98,0,1.65-.58,1.46-1.65l-.85-5.16Z"/>
      <rect class="cls-6" x="212.95" y="27.93" width="11.08" height="25.51" transform="translate(436.98 81.37) rotate(180)"/>
      <path class="cls-7" d="m198.45,86.14h33.71c6.09,11.99,10.07,86.56,10.07,86.56-2.17.32-4.99.57-11.4,0-6.77-23.85-10.21-49.87-12.78-72.19l-1.26.09c.11,16.24-1.97,43.2-4.29,71.99-1.98.9-6.63.75-10.83-.04-3.29-31.94-5.79-63.65-3.22-86.4Z"/>
      <path class="cls-2" d="m235.01,94.87c-.8-3.95-1.65-7-2.55-8.73h-34.32c-.32,2.78-.56,5.7-.74,8.73,14.9,3.52,27.15,3.1,37.61,0Z"/>
      <path class="cls-11" d="m197.73,88.73l-.34,3.91c13.73,2.6,26.12,2.71,37.15-.52l-.51-3.39h-36.3Z"/>
      <path class="cls-8" d="m233.65,90.4c1.51-.23,2.47-2.63,1.25-6.36.13-7.06.29-19.27,3.12-31.99.99-9.1-11.52-10.05-11.52-10.05h-14.76c-6.55,0-15.61,1.74-15.4,10.61-.72,9.19.53,19.93.96,27.31.08,1.39-.08,2.79-.5,4.12-.91,2.88-1.82,4.95.81,5.63,13.52,3.81,29.53,2.91,36.05.73Z"/>
      <path class="cls-8" d="m189.58,75.06h0s7.17-25.77,7.17-25.77h0c.69-2.42,2.73-4.39,5.46-4.93,3.88-.76,7.67,1.64,8.47,5.36.28,1.32.15,2.62-.31,3.8h0s-8.33,25.59-8.33,25.59c-.08.35-.19.69-.33,1.01h0s0,0,0,0c-.81,1.88-2.55,3.35-4.78,3.79-3.58.71-7.08-1.51-7.82-4.95-.29-1.37-.1-2.72.46-3.91Z"/>
      <g>
        <g>
          <path class="cls-6" d="m172.84,78.76c.16,1.22-.12,2.45-1,3.37-.96,1.02-2.35,1.61-3.71,2-1.45.41-2.99.78-4.51.79-1.24.11-2.25-.77-2.07-1.9-1.09-.23-1.27-1.99-.62-2.32-.79.09-1.36-2.05-.33-2.14l-5.45.59c-1.57.21-2.36-1.62-.4-2.08,1.07-.34,8.21-1.29,8.21-1.29-.17-.78-3.66-.34-4.32-2.23-.04-.26.17-.36.34-.38,5.45-.35,8.49,1.21,9.62,1.58,1.71.57,3.91,1.73,4.22,4.01Z"/>
          <polygon class="cls-14" points="160.63 78.72 160.58 78.4 161.58 78.24 161.64 78.56 160.63 78.72"/>
          <polygon class="cls-14" points="160.98 80.86 160.89 80.54 161.91 80.27 162 80.59 160.98 80.86"/>
          <polygon class="cls-14" points="161.6 83.18 161.51 82.86 162.66 82.56 162.75 82.88 161.6 83.18"/>
        </g>
        <path class="cls-11" d="m173.84,83.9c-.16-.07-4.32.14-4.32.14-1.27-2.98-1.45-6.11-.18-9.47l4.29.2.22,9.13Z"/>
        <path class="cls-8" d="m172.26,83.39c.2.61.8,1.02,1.47,1.03,4.41.04,21.21.15,23.09-.43,1.46-.29,3.04-1.16,3.85-2.03,2.43-2.62,2.19-6.63-.55-8.97-1.91-1.63-6.75-1.21-6.75-1.21l-19.72,2.36c-.72.09-1.31.57-1.5,1.24-.68,2.39-.65,5.7.11,8.01Z"/>
      </g>
      <path class="cls-6" d="m214.65,38.33h0c3.91-.77,6.46-4.48,5.65-8.24l-1.16-5.4c-.81-3.76-4.67-6.21-8.58-5.44h0c-3.91.77-8.19-3.6-7.38.16l1.4,6.54c-.33,1.83-.82,4.78-.3,5.4.52.61,1.58.61,1.58.61,1.38,6.27,4.87,7.15,8.78,6.38Z"/>
      <path class="cls-13" d="m224.14,32.58c-3.96.78-6.81.93-10.78-2.13,2-2.1,1.9-4.71.24-6.12-1.62-1.13-3.84.32-3.4,2.51-1.43-1.42-1.51-3.28-1.96-5.13-3.74.01-6.67-.78-6.59-4.94.73-5.11,13.32-7.4,19.01-.22,6.74.93,4.62,9.17,3.48,16.03Z"/>
      <path class="cls-16" d="m215.78,100.76c-.82,0-1.69-.04-2.61-.11l.03-.33c8.47.74,13.07-2.34,13.11-2.37l.2.27s-3.79,2.55-10.74,2.55Z"/>
      <polygon class="cls-14" points="213.91 38.48 213.41 36.15 213.74 36.08 214.24 38.41 213.91 38.48"/>
      <path class="cls-14" d="m212.62,28.72l-.2-.27c.39-.26.62-.59.68-.98.14-.88-.58-1.8-.59-1.81l.27-.2s.82,1.04.65,2.06c-.08.48-.35.89-.82,1.2Z"/>
      <path class="cls-14" d="m211.49,27.55l-.28-.19c.35-.48,1-.97,2.06-.59v.16s0,.02,0,.02h.17s-.07.14-.07.14c-.08.05-.15.03-.22,0-.26-.09-1.04-.37-1.66.47Z"/>
      <path class="cls-10" d="m196.83,84.2l-.08-.32c2.55-.58,4.27-2.03,5.12-4.32l2.43-7.9,3.43-11.97.33.09-3.43,11.97-2.44,7.92c-.89,2.4-2.7,3.93-5.37,4.54Z"/>
      <path class="cls-10" d="m234.73,84.05c-.6-9.59,1.24-19.99,2.85-29.17l.34.06c-1.61,9.16-3.44,19.54-2.85,29.09l-.34.02Z"/>
      <path class="cls-13" d="m207.21,33.66l-.1-.32s1.12-.32,1.24-1.23l.34.04c-.15,1.12-1.44,1.49-1.49,1.5Z"/>
      <path class="cls-13" d="m204.29,25.06c.18-.13.38-.17.58-.2.2-.02.4-.02.6,0,.2.03.39.08.57.15.19.07.35.17.51.27.08.05.1.15.05.23-.05.07-.14.1-.22.06h0c-.16-.08-.32-.13-.48-.18-.16-.05-.33-.07-.49-.09-.16-.02-.33-.01-.49,0-.16.01-.33.05-.48.06h-.04c-.1,0-.18-.06-.18-.15,0-.06.02-.11.07-.14Z"/>
      <path class="cls-13" d="m206.18,26.69c.05.24-.11.48-.36.53-.25.05-.5-.11-.55-.35-.05-.24.11-.48.36-.53.25-.05.5.11.55.35Z"/>
      <path class="cls-11" d="m206.79,42.37s4.33-5.44,14.71-5.6c10.38-.16,10.41,6.53,10.41,6.53,0,0,.62,9.96-7.1,9.95-9.36-.33-13.76-10.76-18.02-10.89Z"/>
      <rect class="cls-13" x="160.16" y="177.03" width="96.97" height=".33"/>
    </g>
  </g>
</svg>