<?xml version="1.0" encoding="utf-8"?>
<!-- Generator: Adobe Illustrator 27.3.1, SVG Export Plug-In . SVG Version: 6.00 Build 0)  -->
<svg version="1.1" xmlns="http://www.w3.org/2000/svg" xmlns:xlink="http://www.w3.org/1999/xlink" x="0px" y="0px"
	 viewBox="0 0 500 500" style="enable-background:new 0 0 500 500;" xml:space="preserve">
<style type="text/css">
	.st0{fill:#F4F2DE;}
	.st1{fill:#30B19F;}
	.st2{fill:#33BDAA;}
	.st3{fill:#3FCCB9;}
	.st4{fill:#182638;}
	.st5{fill:#131D2B;}
	.st6{fill:#2E3E52;}
	.st7{fill:#223145;}
	.st8{fill:#DDE1E1;}
	.st9{fill:#CCCECE;}
	.st10{fill:#19283B;}
	.st11{fill:#F8C437;}
	.st12{fill:#D3A32D;}
	.st13{fill:#289986;}
	.st14{fill:#935AAF;}
	.st15{fill:#704689;}
	.st16{fill:#EA4A3F;}
	.st17{fill:#C63936;}
	.st18{opacity:0.5;}
	.st19{fill:#FFFFFF;}
	.st20{opacity:0.5;fill:#FFFFFF;}
	.st21{font-family:'ErasITC-Demi';}
	.st22{font-size:69.2487px;}
	.st23{letter-spacing:1;}
	.st24{display:none;fill:#2E3E52;}
	.st25{font-family:'Montserrat-Bold';}
	.st26{font-size:13.8632px;}
	.st27{letter-spacing:6.03;}
</style>
<g id="BACKGROUND">
	<rect class="st0" width="500" height="500"/>
</g>
<g id="OBJECTS">
	<g>
		<g>
			<g>
				<path class="st1" d="M70.6,229.93c0,0-11.82,84.42,38.13,143.56c49.94,59.14,217.3,72.98,279.35-2.66
					c61.66-75.16,48.94-157.66,8.44-214c-40.26-56.01-146.39-86.32-225.67-49.83C81.07,148.33,70.6,229.93,70.6,229.93z"/>
				<path class="st2" d="M425.01,216.61c-37.26,22.07-99.64,34.07-212.71,33.68c-59.68-0.21-105.86,10.73-141.59,27.18
					c3.06,28.81,12.44,65.73,38.02,96.02c49.94,59.14,217.3,72.98,279.35-2.66C430.37,319.27,437.66,264.26,425.01,216.61z"/>
				<path class="st3" d="M302.2,342.69c-64.16,28.58-116.29,46.8-159.51,56.5c69.13,35.56,193.73,34.6,245.38-28.36
					c16.54-20.16,27.71-40.86,34.44-61.43C385.96,312.93,345.89,323.23,302.2,342.69z"/>
			</g>
			<g>
				<g>
					<g>
						<path class="st4" d="M244.4,196.63c-0.23,0-0.47-0.02-0.71-0.04c-3.19-0.39-5.45-3.29-5.06-6.48
							c3.87-31.57-7.2-38.79-21.2-47.93c-7.95-5.19-16.95-11.06-23.65-21.7c-19.89-31.56,27.55-71.95,29.58-73.65
							c2.46-2.06,6.13-1.75,8.19,0.71c2.07,2.46,1.75,6.12-0.71,8.19c-11.66,9.81-39.26,39.45-27.22,58.55
							c5.35,8.49,12.55,13.19,20.17,18.16c15.31,9.99,31.14,20.32,26.39,59.08C249.81,194.48,247.3,196.64,244.4,196.63z"/>
					</g>
				</g>
				<g>
					<g>
						<g>
							<path class="st4" d="M136.8,208.64c0,0,1.46-13.53,7.51-17.04c6.06-3.51,29.99-7.59,35.17-3.24
								c5.18,4.35,9.62,14.5,9.62,14.5L136.8,208.64z"/>
						</g>
						<g>
							<g>
								<path class="st5" d="M178.1,204.07l11.01-1.22c0,0-4.44-10.15-9.62-14.5c-1.53-1.28-4.69-1.83-8.53-1.87
									C174.64,191.99,176.82,198.52,178.1,204.07z"/>
							</g>
						</g>
					</g>
					<path class="st6" d="M131.76,210.1c0,0,2.06-6.55,5.99-8.82c8.33-4.83,39.42-9.13,45.25-9.29c5.33-0.15,8.12,5.97,8.12,5.97"/>
					<path class="st7" d="M131.76,210.1c0,0,2.06-6.55,5.99-8.82c8.33-4.83,39.42-9.13,45.25-9.29c5.33-0.15,8.12,5.97,8.12,5.97"/>
				</g>
				<g>
					<g>
						<g>
							<path class="st4" d="M360.48,208.84c0,0-1.43-13.53-7.48-17.05c-6.05-3.52-29.98-7.65-35.17-3.31
								c-5.19,4.34-9.65,14.48-9.65,14.48L360.48,208.84z"/>
						</g>
						<g>
							<g>
								<path class="st5" d="M319.19,204.2l-11-1.24c0,0,4.46-10.15,9.65-14.48c1.53-1.28,4.69-1.82,8.53-1.86
									C322.66,192.13,320.47,198.66,319.19,204.2z"/>
							</g>
						</g>
					</g>
					<path class="st6" d="M365.51,210.32c0,0-2.05-6.55-5.98-8.84c-8.33-4.84-39.4-9.2-45.23-9.37c-5.33-0.16-8.13,5.96-8.13,5.96"
						/>
					<path class="st7" d="M365.51,210.32c0,0-2.05-6.55-5.98-8.84c-8.33-4.84-39.4-9.2-45.23-9.37c-5.33-0.16-8.13,5.96-8.13,5.96"
						/>
				</g>
				<g>
					<path class="st6" d="M260.61,214.45c0,1.61-1.3,2.91-2.91,2.9l-24.71-0.02c-1.6,0-2.9-1.3-2.9-2.91l2.93-27.97
						c0-1.61,1.3-2.91,2.91-2.9l18.89,0.02c1.6,0,2.91,1.3,2.9,2.91L260.61,214.45z"/>
				</g>
				<g>
					<path class="st7" d="M245.53,189.61c-3.86,0.1-8.39-0.25-12.92,0.73l-2.52,24.08c0,1.61,1.3,2.91,2.9,2.91l24.71,0.02
						c1.61,0,2.91-1.3,2.91-2.9l-2.55-24.76C254.08,189.64,249.1,189.66,245.53,189.61z"/>
				</g>
				<g>
					<path class="st6" d="M418.01,343.94c-15.44-62.99-38.15-125.51-49.29-132.78c-11.13-7.28-45.69-17.48-123.2-18.52
						c-71.7,1.87-109.49,11.04-120.64,18.3c-11.15,7.25-33.98,69.73-49.54,132.69c-15.56,62.96,10.09,83.82,38.19,81.42
						c28.1-2.4,61.89-91.01,68.89-102.64c2.67-4.43,54.88-5.16,63.66-5.25c8.6,0.1,62.21,0.92,64.88,5.38
						c6.97,11.65,40.6,100.32,68.69,102.76C407.76,427.75,433.46,406.94,418.01,343.94z"/>
				</g>
				<g>
					<g>
						<path class="st6" d="M314.69,310.42c-0.01,13.64-11.08,24.7-24.73,24.68c-13.64-0.01-24.7-11.08-24.68-24.73
							c0.01-13.65,11.08-24.7,24.73-24.68C303.65,285.7,314.7,296.78,314.69,310.42z"/>
					</g>
					<g>
						<path class="st7" d="M314.69,310.42c-0.01,13.64-11.08,24.7-24.73,24.68c-13.64-0.01-24.7-11.08-24.68-24.73
							c0.01-13.65,11.08-24.7,24.73-24.68C303.65,285.7,314.7,296.78,314.69,310.42z"/>
					</g>
					<g>
						<g>
							<path class="st4" d="M309.24,310.41c-0.01,10.7-8.69,19.37-19.4,19.36c-10.7-0.01-19.37-8.69-19.36-19.4
								c0.01-10.7,8.69-19.37,19.39-19.36C300.58,291.03,309.25,299.71,309.24,310.41z"/>
						</g>
						<g>
							<path class="st5" d="M304.87,298.13c0.95,2.29,1.48,4.8,1.48,7.43c-0.01,10.71-8.69,19.37-19.4,19.36
								c-6.04,0-11.43-2.78-14.98-7.11c2.91,7.02,9.82,11.95,17.88,11.96c10.7,0.01,19.39-8.66,19.4-19.36
								C309.25,305.76,307.6,301.48,304.87,298.13z"/>
						</g>
					</g>
				</g>
				<g>
					<g>
						<path class="st6" d="M202.94,252.72c-0.02,21.27-17.28,38.5-38.55,38.48c-21.27-0.02-38.5-17.28-38.48-38.55
							c0.02-21.27,17.28-38.5,38.55-38.48C185.73,214.19,202.96,231.45,202.94,252.72z"/>
					</g>
					<g>
						<path class="st7" d="M202.94,252.72c-0.02,21.27-17.28,38.5-38.55,38.48c-21.27-0.02-38.5-17.28-38.48-38.55
							c0.02-21.27,17.28-38.5,38.55-38.48C185.73,214.19,202.96,231.45,202.94,252.72z"/>
					</g>
					<path class="st8" d="M198,252.72c-0.02,18.54-15.06,33.56-33.61,33.55c-18.54-0.02-33.56-15.07-33.54-33.61
						c0.02-18.55,15.06-33.56,33.61-33.55C183,219.12,198.02,234.17,198,252.72z"/>
					<path class="st9" d="M193.32,235.58c1.62,3.94,2.52,8.25,2.51,12.78c-0.02,18.54-15.06,33.56-33.61,33.54
						c-12.28-0.01-23.02-6.62-28.86-16.47c5.02,12.21,17.01,20.82,31.03,20.83c18.54,0.01,33.59-15.01,33.61-33.55
						C198.01,246.45,196.3,240.6,193.32,235.58z"/>
				</g>
				<g>
					<path class="st6" d="M154.39,245.21l-11.98-0.01c-1.95,0-3.53,1.58-3.54,3.53l-0.01,7.85c0,1.95,1.58,3.54,3.53,3.54
						l11.98,0.01l7.89-7.5L154.39,245.21z"/>
				</g>
				<g>
					<path class="st6" d="M174.58,245.23l11.98,0.01c1.95,0,3.53,1.59,3.53,3.54l-0.01,7.85c0,1.95-1.59,3.53-3.54,3.53l-11.98-0.01
						l-7.87-7.51L174.58,245.23z"/>
				</g>
				<g>
					<path class="st7" d="M154.38,256.74l-11.98-0.01c-1.95,0-3.53-1.58-3.53-3.54l0,3.39c0,1.95,1.58,3.54,3.53,3.54l11.98,0.01
						l7.89-7.5l-1.79-1.69L154.38,256.74z"/>
				</g>
				<g>
					<path class="st7" d="M186.55,256.77l-11.98-0.01l-6.08-5.81l-1.79,1.69l7.87,7.51l11.98,0.01c1.95,0,3.54-1.58,3.54-3.53
						l0-3.39C190.08,255.2,188.5,256.78,186.55,256.77z"/>
				</g>
				<g>
					<path class="st6" d="M171.95,242.59l0.01-11.98c0-1.95-1.58-3.54-3.53-3.54l-7.85-0.01c-1.95,0-3.54,1.58-3.54,3.53
						l-0.01,11.98l7.5,7.89L171.95,242.59z"/>
				</g>
				<g>
					<path class="st6" d="M171.93,262.79l-0.01,11.98c0,1.95-1.58,3.53-3.54,3.53l-7.85-0.01c-1.95,0-3.53-1.58-3.53-3.54
						l0.01-11.98l7.51-7.87L171.93,262.79z"/>
				</g>
				<g>
					<path class="st7" d="M168.43,227.08l-2.91,0c1.95,0,3.53,1.58,3.53,3.54l-0.01,11.97l-5.98,6.34l1.46,1.54l7.42-7.87
						l0.01-11.98C171.96,228.67,170.38,227.08,168.43,227.08z"/>
				</g>
				<g>
					<path class="st7" d="M164.52,254.9l-1.46,1.53l5.97,6.35l-0.01,11.98c0,1.95-1.59,3.53-3.54,3.53l2.91,0
						c1.95,0,3.54-1.58,3.54-3.53l0.01-11.98L164.52,254.9z"/>
				</g>
				<g>
					<path class="st7" d="M118.7,218.46c-12.1,19.77-30.29,72.29-43.36,125.17c-15.56,62.96,10.09,83.82,38.19,81.42
						c28.1-2.4,61.89-91.01,68.89-102.64C111.16,301.75,111.18,249.75,118.7,218.46z"/>
				</g>
				<g>
					<path class="st7" d="M418.01,343.94c-13.73-56.01-33.2-111.61-45.18-128.37c8.61,35.32,3.72,86.19-61.79,107.09
						c7.13,12.13,40.62,100.19,68.62,102.63C407.76,427.75,433.46,406.94,418.01,343.94z"/>
				</g>
				<g>
					<path class="st10" d="M163.67,362.02c9.09-18.5,16-35.03,18.76-39.62c-25.5-7.39-41.87-18.79-52.04-31.82l-0.41,0.28
						C129.98,290.87,136.97,343.19,163.67,362.02z"/>
				</g>
				<g>
					<path class="st10" d="M311.05,322.66c2.68,4.55,9.08,19.83,17.51,37.25c22.38-18.76,29.72-61.28,30.75-67.94
						C349.21,304.54,333.78,315.41,311.05,322.66z"/>
				</g>
				<g>
					<g>
						<g>
							<path class="st6" d="M254.53,236.24l-17.92-0.02c-3.21,0-5.81,2.47-5.82,5.52l0,3.72c0,3.05,2.6,5.53,5.81,5.53l17.92,0.02
								c3.21,0,5.82-2.47,5.82-5.52l0-3.72C260.34,238.73,257.74,236.25,254.53,236.24z"/>
						</g>
						<g>
							<path class="st6" d="M254.51,258.53l-17.92-0.02c-3.21,0-5.82,2.47-5.82,5.52l0,3.71c0,3.05,2.6,5.53,5.81,5.54l17.92,0.02
								c3.21,0,5.82-2.48,5.82-5.53l0-3.72C260.32,261.02,257.72,258.53,254.51,258.53z"/>
						</g>
					</g>
					<g>
						<g>
							<path class="st6" d="M254.53,236.24l-17.92-0.02c-3.21,0-5.81,2.47-5.82,5.52l0,3.72c0,3.05,2.6,5.53,5.81,5.53l17.92,0.02
								c3.21,0,5.82-2.47,5.82-5.52l0-3.72C260.34,238.73,257.74,236.25,254.53,236.24z"/>
						</g>
						<g>
							<path class="st6" d="M254.51,258.53l-17.92-0.02c-3.21,0-5.82,2.47-5.82,5.52l0,3.71c0,3.05,2.6,5.53,5.81,5.54l17.92,0.02
								c3.21,0,5.82-2.48,5.82-5.53l0-3.72C260.32,261.02,257.72,258.53,254.51,258.53z"/>
						</g>
					</g>
					<path class="st8" d="M257.43,245.49c0,1.45-1.3,2.62-2.91,2.62l-17.92-0.02c-1.61,0-2.9-1.18-2.9-2.63l0-3.71
						c0-1.45,1.3-2.62,2.91-2.62l17.92,0.02c1.61,0,2.91,1.18,2.9,2.63L257.43,245.49z"/>
					<path class="st8" d="M257.41,267.78c0,1.45-1.3,2.62-2.91,2.62l-17.92-0.02c-1.6,0-2.91-1.18-2.9-2.63l0-3.72
						c0-1.45,1.3-2.62,2.91-2.62l17.92,0.02c1.61,0,2.91,1.18,2.9,2.63L257.41,267.78z"/>
					<path class="st9" d="M254.52,245.57l-17.92-0.01c-1.61,0-2.91-1.18-2.9-2.63l0,2.54c0,1.45,1.3,2.63,2.9,2.63l17.92,0.02
						c1.6,0,2.91-1.17,2.91-2.62l0-2.54C257.43,244.4,256.13,245.57,254.52,245.57z"/>
					<path class="st9" d="M254.5,267.86l-17.92-0.02c-1.61,0-2.91-1.18-2.9-2.63l0,2.55c0,1.45,1.3,2.62,2.9,2.63l17.92,0.02
						c1.6,0,2.91-1.17,2.91-2.62l0-2.54C257.41,266.68,256.11,267.86,254.5,267.86z"/>
				</g>
				<g>
					<path class="st7" d="M203.61,114.29c-12.04-19.1,15.57-48.74,27.22-58.55c2.46-2.07,2.78-5.73,0.71-8.19
						c-2.06-2.46-5.73-2.78-8.19-0.71c-1.37,1.15-23.31,19.83-31.44,41.55C191.68,98.73,196.88,108.91,203.61,114.29
						C203.76,114.18,203.61,114.29,203.61,114.29z"/>
				</g>
				<g>
					<g>
						<g>
							<g>
								<g>
									<g>
										<g>
											<path class="st6" d="M346.58,229.57c-0.01,9.49-7.72,17.19-17.21,17.18c-9.5-0.01-17.19-7.72-17.18-17.21
												c0.01-9.5,7.71-17.19,17.21-17.18C338.9,212.36,346.59,220.07,346.58,229.57z"/>
										</g>
										<g>
											<path class="st7" d="M346.58,229.57c-0.01,9.49-7.72,17.19-17.21,17.18c-9.5-0.01-17.19-7.72-17.18-17.21
												c0.01-9.5,7.71-17.19,17.21-17.18C338.9,212.36,346.59,220.07,346.58,229.57z"/>
										</g>
										<path class="st11" d="M342.29,229.56c-0.01,7.13-5.79,12.9-12.92,12.89c-7.13-0.01-12.9-5.79-12.89-12.92
											c0.01-7.13,5.79-12.9,12.92-12.9C336.52,216.65,342.3,222.44,342.29,229.56z"/>
										<path class="st12" d="M339.58,221.66c0.54,1.43,0.85,2.98,0.85,4.6c-0.01,7.13-5.79,12.9-12.92,12.89
											c-4.15-0.01-7.83-1.98-10.19-5.02c1.85,4.86,6.53,8.31,12.04,8.32c7.13,0.01,12.91-5.76,12.92-12.89
											C342.29,226.59,341.28,223.85,339.58,221.66z"/>
									</g>
								</g>
							</g>
							<g>
								<g>
									<g>
										<g>
											<path class="st6" d="M346.53,277.13c-0.01,9.49-7.72,17.19-17.21,17.18c-9.5-0.01-17.19-7.72-17.18-17.21
												c0.01-9.5,7.71-17.19,17.21-17.18C338.85,259.92,346.54,267.63,346.53,277.13z"/>
										</g>
										<g>
											<path class="st7" d="M346.53,277.13c-0.01,9.49-7.72,17.19-17.21,17.18c-9.5-0.01-17.19-7.72-17.18-17.21
												c0.01-9.5,7.71-17.19,17.21-17.18C338.85,259.92,346.54,267.63,346.53,277.13z"/>
										</g>
										<path class="st1" d="M342.24,277.12c-0.01,7.13-5.79,12.9-12.91,12.89c-7.13,0-12.9-5.79-12.89-12.92
											c0.01-7.12,5.79-12.9,12.92-12.89C336.48,264.21,342.25,270,342.24,277.12z"/>
										<path class="st13" d="M339.54,269.22c0.54,1.43,0.85,2.98,0.85,4.6c-0.01,7.12-5.79,12.9-12.92,12.89
											c-4.15,0-7.83-1.97-10.19-5.02c1.85,4.85,6.53,8.31,12.04,8.32c7.13,0.01,12.91-5.76,12.91-12.89
											C342.25,274.14,341.23,271.41,339.54,269.22z"/>
									</g>
								</g>
							</g>
						</g>
						<g>
							<g>
								<g>
									<g>
										<g>
											<path class="st6" d="M320.99,253.32c-0.01,9.49-7.72,17.19-17.21,17.18c-9.5-0.01-17.19-7.72-17.18-17.21
												c0.01-9.5,7.71-17.19,17.21-17.18C313.3,236.12,321,243.83,320.99,253.32z"/>
										</g>
										<g>
											<path class="st7" d="M320.99,253.32c-0.01,9.49-7.72,17.19-17.21,17.18c-9.5-0.01-17.19-7.72-17.18-17.21
												c0.01-9.5,7.71-17.19,17.21-17.18C313.3,236.12,321,243.83,320.99,253.32z"/>
										</g>
										<path class="st14" d="M316.7,253.32c-0.01,7.13-5.79,12.9-12.92,12.89c-7.13-0.01-12.9-5.79-12.89-12.92
											c0.01-7.13,5.79-12.9,12.92-12.89C310.93,240.41,316.7,246.19,316.7,253.32z"/>
										<path class="st15" d="M313.99,245.42c0.55,1.43,0.86,2.98,0.86,4.6c-0.01,7.13-5.79,12.9-12.92,12.89
											c-4.15,0-7.83-1.97-10.19-5.02c1.85,4.86,6.53,8.31,12.04,8.32c7.13,0.01,12.91-5.77,12.92-12.89
											C316.7,250.34,315.69,247.61,313.99,245.42z"/>
									</g>
								</g>
							</g>
							<g>
								<g>
									<g>
										<g>
											<path class="st6" d="M372.13,253.37c-0.01,9.5-7.72,17.19-17.21,17.18c-9.49-0.01-17.19-7.72-17.18-17.21
												c0.01-9.5,7.71-17.19,17.21-17.18C364.44,236.17,372.13,243.87,372.13,253.37z"/>
										</g>
										<g>
											<path class="st7" d="M372.13,253.37c-0.01,9.5-7.72,17.19-17.21,17.18c-9.49-0.01-17.19-7.72-17.18-17.21
												c0.01-9.5,7.71-17.19,17.21-17.18C364.44,236.17,372.13,243.87,372.13,253.37z"/>
										</g>
										<path class="st16" d="M367.83,253.37c-0.01,7.13-5.79,12.9-12.92,12.89c-7.13-0.01-12.9-5.79-12.89-12.92
											c0.01-7.13,5.79-12.9,12.92-12.89C362.07,240.46,367.84,246.24,367.83,253.37z"/>
										<path class="st17" d="M365.13,245.47c0.55,1.43,0.86,2.98,0.86,4.6c-0.01,7.13-5.79,12.9-12.92,12.89
											c-4.15,0-7.82-1.97-10.19-5.01c1.85,4.85,6.53,8.31,12.04,8.32c7.13,0.01,12.91-5.77,12.92-12.89
											C367.84,250.39,366.82,247.65,365.13,245.47z"/>
									</g>
								</g>
							</g>
						</g>
					</g>
					<g>
						<g>
							<path class="st4" d="M351.97,259.73c-0.13-0.02-0.26-0.06-0.38-0.13c-0.33-0.19-0.53-0.55-0.53-0.93l0.01-9.78
								c0-0.05,0-0.11,0.01-0.16c0.05-0.32,0.24-0.6,0.52-0.77c0.33-0.19,0.74-0.19,1.07,0l8.47,4.9c0.33,0.19,0.53,0.55,0.53,0.93
								c0,0.05,0,0.11-0.01,0.16c-0.05,0.32-0.24,0.6-0.52,0.77l-8.48,4.88C352.46,259.72,352.21,259.76,351.97,259.73z
								 M353.21,250.74l0,6.07l5.26-3.03L353.21,250.74z"/>
						</g>
					</g>
					<g>
						<g>
							<g>
								<path class="st4" d="M329.4,235.65c-0.51-0.08-0.91-0.52-0.91-1.06l0.01-10.54c0-0.59,0.48-1.07,1.07-1.07
									c0.58,0,1.07,0.48,1.07,1.07l-0.01,10.54c0,0.59-0.48,1.07-1.07,1.07C329.51,235.66,329.45,235.66,329.4,235.65z"/>
							</g>
						</g>
						<g>
							<g>
								<path class="st4" d="M324.14,230.38c-0.51-0.08-0.91-0.52-0.91-1.06c0-0.59,0.48-1.07,1.07-1.07l10.54,0.01
									c0.58,0,1.07,0.48,1.07,1.07c0,0.59-0.48,1.07-1.07,1.07l-10.54-0.01C324.24,230.39,324.19,230.39,324.14,230.38z"/>
							</g>
						</g>
					</g>
					<g>
						<g>
							<path class="st4" d="M303.03,259.1c-1.24-0.19-2.38-0.76-3.29-1.67c-1.12-1.12-1.73-2.6-1.73-4.19
								c0-1.58,0.62-3.06,1.74-4.18c1.12-1.12,2.6-1.73,4.18-1.73c3.25,0,5.91,2.66,5.91,5.92c0,1.58-0.62,3.07-1.74,4.18
								c-1.12,1.12-2.6,1.73-4.18,1.73C303.62,259.16,303.32,259.14,303.03,259.1z M304.5,249.52c-0.18-0.03-0.37-0.04-0.56-0.04
								c-1.01,0-1.95,0.39-2.67,1.1c-0.71,0.71-1.11,1.66-1.11,2.67c0,1.01,0.39,1.96,1.1,2.67c0.71,0.71,1.65,1.11,2.67,1.11
								c1.01,0,1.95-0.39,2.67-1.1c0.71-0.71,1.11-1.66,1.11-2.67l0,0C307.71,251.36,306.31,249.79,304.5,249.52z"/>
						</g>
					</g>
					<g>
						<g>
							<path class="st4" d="M324.09,281.15c-0.23-0.03-0.43-0.14-0.6-0.3c-0.2-0.2-0.31-0.47-0.31-0.76l0.01-6.54
								c0-0.59,0.48-1.07,1.07-1.07l10.17,0.01c0.6,0,1.07,0.48,1.07,1.07l-0.01,6.54c0,0.59-0.48,1.07-1.07,1.07l-10.18-0.01
								C324.2,281.16,324.14,281.16,324.09,281.15z M325.33,274.63l-0.01,4.4l8.03,0.01l0-4.4L325.33,274.63z"/>
						</g>
					</g>
				</g>
				<g>
					<g>
						<path class="st6" d="M228.46,310.34c-0.01,13.64-11.08,24.7-24.73,24.68c-13.64-0.01-24.7-11.09-24.68-24.73
							c0.01-13.65,11.09-24.7,24.73-24.68C217.42,285.62,228.47,296.7,228.46,310.34z"/>
					</g>
					<g>
						<path class="st7" d="M228.46,310.34c-0.01,13.64-11.08,24.7-24.73,24.68c-13.64-0.01-24.7-11.09-24.68-24.73
							c0.01-13.65,11.09-24.7,24.73-24.68C217.42,285.62,228.47,296.7,228.46,310.34z"/>
					</g>
					<g>
						<g>
							<path class="st4" d="M223.13,310.33c-0.01,10.7-8.69,19.37-19.39,19.36c-10.7-0.01-19.37-8.69-19.36-19.4
								c0.01-10.7,8.69-19.37,19.4-19.36C214.47,290.95,223.14,299.63,223.13,310.33z"/>
						</g>
						<g>
							<path class="st5" d="M218.76,298.05c0.95,2.29,1.48,4.8,1.48,7.43c-0.01,10.7-8.69,19.37-19.39,19.36
								c-6.04-0.01-11.43-2.78-14.98-7.11c2.91,7.01,9.82,11.95,17.89,11.96c10.7,0.01,19.38-8.66,19.39-19.36
								C223.14,305.68,221.49,301.4,218.76,298.05z"/>
						</g>
					</g>
				</g>
			</g>
			<g class="st18">
				<g>
					<path class="st19" d="M365.73,181.73c-0.19-0.03-0.37-0.09-0.53-0.17c-0.21-0.11-0.39-0.26-0.54-0.45
						c-0.13-0.16-0.23-0.35-0.29-0.55c-0.05-0.15-0.07-0.3-0.07-0.46l-0.57-14.28c-0.01-0.12,0-0.24,0.02-0.35
						c0.01-0.04,0.01-0.08,0.02-0.12c0.04-0.2,0.13-0.39,0.24-0.56c0.13-0.2,0.3-0.37,0.49-0.49c0.2-0.13,0.43-0.22,0.68-0.25
						c0.2-0.03,0.4-0.02,0.6,0.03c0.16,0.03,0.3,0.09,0.44,0.16l12.66,6.65c0.14,0.07,0.27,0.16,0.39,0.27
						c0.15,0.14,0.27,0.3,0.36,0.48c0.11,0.22,0.17,0.45,0.18,0.69c0,0.11,0,0.22-0.02,0.32c-0.02,0.13-0.05,0.26-0.1,0.38
						c-0.08,0.19-0.19,0.37-0.33,0.52c-0.11,0.11-0.23,0.21-0.36,0.29l-12.09,7.64c-0.13,0.09-0.28,0.16-0.44,0.21
						c-0.19,0.06-0.39,0.08-0.59,0.07C365.84,181.75,365.78,181.74,365.73,181.73z M367.22,168.57l0.34,8.51l7.19-4.55
						L367.22,168.57z"/>
				</g>
			</g>
			<g>
				<g>
					<path class="st19" d="M174.69,156.55c-0.48-0.07-0.92-0.35-1.19-0.8l-7.98-13.25c-0.48-0.8-0.22-1.83,0.57-2.31
						c0.8-0.48,1.84-0.22,2.32,0.57l7.98,13.25c0.48,0.8,0.22,1.83-0.57,2.32C175.46,156.53,175.06,156.6,174.69,156.55z"/>
				</g>
				<g>
					<path class="st19" d="M164.08,153.91c-0.48-0.07-0.92-0.35-1.19-0.8c-0.48-0.8-0.22-1.83,0.58-2.32l13.25-7.98
						c0.8-0.48,1.84-0.22,2.31,0.58c0.48,0.8,0.22,1.83-0.57,2.31l-13.25,7.98C164.85,153.9,164.45,153.97,164.08,153.91z"/>
				</g>
			</g>
			<g class="st18">
				<g>
					<path class="st19" d="M412.19,260.59c-0.64-0.1-1.2-0.56-1.38-1.23l-4.04-14.93c-0.24-0.9,0.29-1.83,1.19-2.07
						c0.9-0.24,1.82,0.29,2.07,1.19l4.04,14.93c0.24,0.9-0.29,1.82-1.19,2.07C412.65,260.61,412.41,260.62,412.19,260.59z"/>
				</g>
				<g>
					<path class="st19" d="M402.7,255.14c-0.64-0.1-1.2-0.56-1.38-1.23c-0.24-0.9,0.29-1.83,1.19-2.07l14.93-4.04
						c0.9-0.24,1.83,0.29,2.07,1.19c0.24,0.9-0.29,1.83-1.19,2.07l-14.93,4.04C403.16,255.17,402.93,255.18,402.7,255.14z"/>
				</g>
			</g>
			<g>
				<g>
					<path class="st19" d="M94.62,229.35c-3.63-0.55-6.36-3.61-6.51-7.28c-0.17-4.23,3.13-7.8,7.36-7.97
						c0.49-0.02,0.98,0.01,1.46,0.08c3.63,0.55,6.36,3.61,6.51,7.28c0.08,2.05-0.64,4.01-2.03,5.51c-1.39,1.51-3.28,2.38-5.33,2.46
						C95.59,229.44,95.1,229.42,94.62,229.35z M96.49,217.08c-0.3-0.05-0.6-0.06-0.91-0.05c-2.61,0.1-4.64,2.31-4.54,4.92
						c0.09,2.26,1.78,4.15,4.01,4.49c0.3,0.05,0.6,0.06,0.9,0.05c1.26-0.05,2.43-0.59,3.29-1.52c0.86-0.93,1.3-2.14,1.25-3.4
						C100.41,219.31,98.73,217.42,96.49,217.08z"/>
				</g>
			</g>
			<g>
				<g>
					<path class="st19" d="M277.04,132.69c-0.32-0.21-0.56-0.53-0.67-0.9c-0.13-0.43-0.09-0.89,0.12-1.29l4.48-8.49
						c0.43-0.82,1.45-1.14,2.28-0.71l13.21,6.96c0.82,0.43,1.14,1.45,0.71,2.28l-4.48,8.49c-0.21,0.4-0.57,0.69-0.99,0.83
						c-0.43,0.13-0.89,0.09-1.29-0.12l-13.21-6.97C277.14,132.75,277.09,132.72,277.04,132.69z M283.16,125.08l-2.9,5.51l10.23,5.39
						l2.9-5.51L283.16,125.08z"/>
				</g>
			</g>
			<path class="st19" d="M299.36,398.86c-0.48,3.17-3.44,5.35-6.61,4.87c-3.17-0.48-5.36-3.44-4.87-6.62
				c0.48-3.17,3.44-5.35,6.62-4.87C297.66,392.72,299.84,395.69,299.36,398.86z"/>
			<path class="st20" d="M203.19,177.86c-0.43,2.87-3.11,4.84-5.98,4.4c-2.86-0.43-4.84-3.11-4.4-5.97c0.43-2.86,3.11-4.84,5.97-4.4
				C201.66,172.32,203.63,175,203.19,177.86z"/>
		</g>
		<polygon class="st11" points="14.93,363.06 485.07,356.81 466.53,448.76 14.93,448.76 		"/>
		<text transform="matrix(0.9954 3.772772e-03 -0.0991 0.9951 23.0013 431.54)" class="st6 st21 st22 st23">Video Games</text>
		<text transform="matrix(0.9955 0 0 1 159.0059 451.0611)" class="st24 st25 st26 st27">READY TO PLAY</text>
	</g>
</g>
</svg>
